<svg width="49" height="39" viewBox="0 0 49 39" fill="none" xmlns="http://www.w3.org/2000/svg">
<mask id="path-1-outside-1_5704_216" maskUnits="userSpaceOnUse" x="-1" y="-0.957031" width="51" height="41" fill="black">
<rect fill="white" x="-1" y="-0.957031" width="51" height="41"/>
<path d="M15.7 38.643C12.7333 38.643 10.1333 37.843 7.9 36.243C5.66667 34.643 3.91667 32.393 2.65 29.493C1.41667 26.593 0.8 23.2263 0.8 19.393C0.8 15.5263 1.41667 12.1596 2.65 9.29297C3.88333 6.4263 5.61667 4.19297 7.85 2.59297C10.0833 0.992967 12.6833 0.192967 15.65 0.192967C18.6833 0.192967 21.3 0.992967 23.5 2.59297C25.7333 4.19297 27.4833 6.44297 28.75 9.34297C30.0167 12.2096 30.65 15.5596 30.65 19.393C30.65 23.2263 30.0167 26.593 28.75 29.493C27.5167 32.3596 25.7833 34.6096 23.55 36.243C21.3167 37.843 18.7 38.643 15.7 38.643ZM15.75 32.443C17.45 32.443 18.9 31.9263 20.1 30.893C21.3 29.8263 22.2167 28.3263 22.85 26.393C23.5167 24.4263 23.85 22.093 23.85 19.393C23.85 16.693 23.5167 14.3763 22.85 12.443C22.2167 10.4763 21.2833 8.9763 20.05 7.94297C18.85 6.90963 17.3833 6.39297 15.65 6.39297C13.9833 6.39297 12.55 6.90963 11.35 7.94297C10.15 8.9763 9.21667 10.4763 8.55 12.443C7.91667 14.3763 7.6 16.693 7.6 19.393C7.6 22.0596 7.91667 24.3763 8.55 26.343C9.21667 28.2763 10.15 29.7763 11.35 30.843C12.5833 31.9096 14.05 32.443 15.75 32.443ZM42.0504 38.043V6.59297H34.8504V0.792966H48.8504V38.043H42.0504Z"/>
</mask>
<path d="M7.9 36.243L7.31762 37.0559L7.31762 37.0559L7.9 36.243ZM2.65 29.493L1.72972 29.8844L1.7336 29.8932L2.65 29.493ZM2.65 9.29297L1.73141 8.89776L1.73141 8.89776L2.65 9.29297ZM7.85 2.59297L7.26762 1.78005L7.26761 1.78005L7.85 2.59297ZM23.5 2.59297L22.9118 3.40172L22.9176 3.40588L23.5 2.59297ZM28.75 9.34297L27.8336 9.74324L27.8353 9.74713L28.75 9.34297ZM28.75 29.493L27.8336 29.0927L27.8314 29.0978L28.75 29.493ZM23.55 36.243L24.1324 37.0559L24.1403 37.0501L23.55 36.243ZM20.1 30.893L20.7525 31.6507L20.7585 31.6456L20.7644 31.6404L20.1 30.893ZM22.85 26.393L21.9029 26.0719L21.8997 26.0817L22.85 26.393ZM22.85 12.443L21.8981 12.7495L21.9013 12.7593L21.9046 12.769L22.85 12.443ZM20.05 7.94297L19.3974 8.7008L19.4078 8.70949L20.05 7.94297ZM11.35 7.94297L10.6975 7.1852L10.6975 7.1852L11.35 7.94297ZM8.55 12.443L7.60288 12.1219L7.59969 12.1317L8.55 12.443ZM8.55 26.343L7.59814 26.6495L7.60128 26.6593L7.60463 26.669L8.55 26.343ZM11.35 30.843L10.6856 31.5904L10.6958 31.5993L11.35 30.843ZM15.7 37.643C12.9246 37.643 10.5321 36.8985 8.48239 35.4301L7.31762 37.0559C9.73454 38.7874 12.542 39.643 15.7 39.643V37.643ZM8.48239 35.4301C6.41661 33.9501 4.77207 31.8531 3.5664 29.0927L1.7336 29.8932C3.06126 32.9329 4.91673 35.3358 7.31762 37.0559L8.48239 35.4301ZM3.57024 29.1016C2.39962 26.3491 1.8 23.1202 1.8 19.393H-0.2C-0.2 23.3324 0.433718 26.8369 1.72976 29.8843L3.57024 29.1016ZM1.8 19.393C1.8 15.6307 2.40016 12.404 3.56859 9.68817L1.73141 8.89776C0.43317 11.9153 -0.2 15.4219 -0.2 19.393H1.8ZM3.56859 9.68817C4.73996 6.96553 6.36634 4.88603 8.43239 3.40588L7.26761 1.78005C4.86699 3.4999 3.0267 5.88707 1.73141 8.89776L3.56859 9.68817ZM8.43239 3.40588C10.4821 1.93741 12.8746 1.19297 15.65 1.19297V-0.807033C12.492 -0.807033 9.68454 0.0485271 7.26762 1.78005L8.43239 3.40588ZM15.65 1.19297C18.4975 1.19297 20.9023 1.9402 22.9118 3.4017L24.0882 1.78423C21.6977 0.0457341 18.8692 -0.807033 15.65 -0.807033V1.19297ZM22.9176 3.40588C24.9834 4.88584 26.6279 6.98287 27.8336 9.74323L29.6664 8.9427C28.3387 5.90306 26.4833 3.50009 24.0824 1.78005L22.9176 3.40588ZM27.8353 9.74713C29.0346 12.4614 29.65 15.6685 29.65 19.393H31.65C31.65 15.4508 30.9987 11.9579 29.6647 8.9388L27.8353 9.74713ZM29.65 19.393C29.65 23.117 29.0348 26.3427 27.8336 29.0927L29.6664 29.8932C30.9986 26.8433 31.65 23.3356 31.65 19.393H29.65ZM27.8314 29.0978C26.6595 31.8217 25.031 33.921 22.9597 35.4358L24.1403 37.0501C26.5357 35.2983 28.3738 32.8976 29.6686 29.8882L27.8314 29.0978ZM22.9676 35.4301C20.9198 36.8971 18.5113 37.643 15.7 37.643V39.643C18.8887 39.643 21.7135 38.7888 24.1324 37.0559L22.9676 35.4301ZM15.75 33.443C17.6705 33.443 19.3571 32.8523 20.7525 31.6507L19.4475 30.1352C18.4429 31.0003 17.2296 31.443 15.75 31.443V33.443ZM20.7644 31.6404C22.1275 30.4287 23.1264 28.7615 23.8003 26.7043L21.8997 26.0817C21.3069 27.8911 20.4725 29.2239 19.4356 30.1456L20.7644 31.6404ZM23.7971 26.714C24.5075 24.6182 24.85 22.1712 24.85 19.393H22.85C22.85 22.0148 22.5258 24.2344 21.9029 26.0719L23.7971 26.714ZM24.85 19.393C24.85 16.6154 24.5077 14.1827 23.7954 12.117L21.9046 12.769C22.5256 14.5699 22.85 16.7705 22.85 19.393H24.85ZM23.8019 12.1364C23.1269 10.0406 22.1058 8.36084 20.6922 7.17645L19.4078 8.70949C20.4608 9.59176 21.3064 10.912 21.8981 12.7495L23.8019 12.1364ZM20.7025 7.1852C19.3034 5.98039 17.5985 5.39297 15.65 5.39297V7.39297C17.1682 7.39297 18.3966 7.83888 19.3975 8.70073L20.7025 7.1852ZM15.65 5.39297C13.7575 5.39297 12.0891 5.9869 10.6975 7.1852L12.0025 8.70073C13.0109 7.83237 14.2092 7.39297 15.65 7.39297V5.39297ZM10.6975 7.1852C9.32613 8.36608 8.30958 10.0373 7.60293 12.1219L9.49707 12.764C10.1238 10.9153 10.9739 9.58652 12.0025 8.70073L10.6975 7.1852ZM7.59969 12.1317C6.92467 14.1922 6.6 16.6196 6.6 19.393H8.6C8.6 16.7663 8.90866 14.5604 9.50031 12.7543L7.59969 12.1317ZM6.6 19.393C6.6 22.1351 6.92519 24.5598 7.59814 26.6495L9.50186 26.0364C8.90814 24.1928 8.6 21.9842 8.6 19.393H6.6ZM7.60463 26.669C8.31224 28.721 9.32686 30.3826 10.6856 31.5904L12.0144 30.0956C10.9731 29.17 10.1211 27.8316 9.49537 26.017L7.60463 26.669ZM10.6958 31.5993C12.1192 32.8303 13.8209 33.443 15.75 33.443V31.443C14.2791 31.443 13.0475 30.989 12.0042 30.0866L10.6958 31.5993ZM42.0504 38.043H41.0504V39.043H42.0504V38.043ZM42.0504 6.59297H43.0504V5.59297H42.0504V6.59297ZM34.8504 6.59297H33.8504V7.59297H34.8504V6.59297ZM34.8504 0.792966V-0.207034H33.8504V0.792966H34.8504ZM48.8504 0.792966H49.8504V-0.207034H48.8504V0.792966ZM48.8504 38.043V39.043H49.8504V38.043H48.8504ZM43.0504 38.043V6.59297H41.0504V38.043H43.0504ZM42.0504 5.59297H34.8504V7.59297H42.0504V5.59297ZM35.8504 6.59297V0.792966H33.8504V6.59297H35.8504ZM34.8504 1.79297H48.8504V-0.207034H34.8504V1.79297ZM47.8504 0.792966V38.043H49.8504V0.792966H47.8504ZM48.8504 37.043H42.0504V39.043H48.8504V37.043Z" fill="#034833" mask="url(#path-1-outside-1_5704_216)"/>
</svg>
