<svg width="61" height="39" viewBox="0 0 61 39" fill="none" xmlns="http://www.w3.org/2000/svg">
<mask id="path-1-outside-1_5704_211" maskUnits="userSpaceOnUse" x="-1" y="-0.957031" width="63" height="41" fill="black">
<rect fill="white" x="-1" y="-0.957031" width="63" height="41"/>
<path d="M15.7 38.643C12.7333 38.643 10.1333 37.843 7.9 36.243C5.66667 34.643 3.91667 32.393 2.65 29.493C1.41667 26.593 0.8 23.2263 0.8 19.393C0.8 15.5263 1.41667 12.1596 2.65 9.29297C3.88333 6.4263 5.61667 4.19297 7.85 2.59297C10.0833 0.992967 12.6833 0.192967 15.65 0.192967C18.6833 0.192967 21.3 0.992967 23.5 2.59297C25.7333 4.19297 27.4833 6.44297 28.75 9.34297C30.0167 12.2096 30.65 15.5596 30.65 19.393C30.65 23.2263 30.0167 26.593 28.75 29.493C27.5167 32.3596 25.7833 34.6096 23.55 36.243C21.3167 37.843 18.7 38.643 15.7 38.643ZM15.75 32.443C17.45 32.443 18.9 31.9263 20.1 30.893C21.3 29.8263 22.2167 28.3263 22.85 26.393C23.5167 24.4263 23.85 22.093 23.85 19.393C23.85 16.693 23.5167 14.3763 22.85 12.443C22.2167 10.4763 21.2833 8.9763 20.05 7.94297C18.85 6.90963 17.3833 6.39297 15.65 6.39297C13.9833 6.39297 12.55 6.90963 11.35 7.94297C10.15 8.9763 9.21667 10.4763 8.55 12.443C7.91667 14.3763 7.6 16.693 7.6 19.393C7.6 22.0596 7.91667 24.3763 8.55 26.343C9.21667 28.2763 10.15 29.7763 11.35 30.843C12.5833 31.9096 14.05 32.443 15.75 32.443ZM35.7004 38.043V32.893L45.8004 22.343C47.8004 20.243 49.3337 18.5763 50.4004 17.343C51.5004 16.0763 52.2671 14.993 52.7004 14.093C53.1337 13.193 53.3504 12.2763 53.3504 11.343C53.3504 9.7763 52.8504 8.54297 51.8504 7.64297C50.8837 6.74297 49.6337 6.29297 48.1004 6.29297C46.5004 6.29297 45.1171 6.75963 43.9504 7.69297C42.7837 8.59297 41.9337 9.9263 41.4004 11.693L35.4504 9.84297C35.8504 7.8763 36.6671 6.1763 37.9004 4.74297C39.1337 3.2763 40.6337 2.15963 42.4004 1.39297C44.2004 0.592967 46.1004 0.192967 48.1004 0.192967C50.5004 0.192967 52.6004 0.626301 54.4004 1.49297C56.2337 2.35963 57.6504 3.5763 58.6504 5.14297C59.6837 6.70963 60.2004 8.54297 60.2004 10.643C60.2004 11.9763 59.9504 13.293 59.4504 14.593C58.9504 15.893 58.2004 17.2263 57.2004 18.593C56.2004 19.9263 54.9004 21.4263 53.3004 23.093L44.5504 32.293H60.7004V38.043H35.7004Z"/>
</mask>
<path d="M7.9 36.243L7.31762 37.0559L7.9 36.243ZM2.65 29.493L1.72972 29.8843L1.7336 29.8932L2.65 29.493ZM2.65 9.29297L1.73141 8.89776H1.73141L2.65 9.29297ZM7.85 2.59297L7.26762 1.78005L7.85 2.59297ZM23.5 2.59297L22.9118 3.40172L22.9176 3.40588L23.5 2.59297ZM28.75 9.34297L27.8336 9.74324L27.8353 9.74713L28.75 9.34297ZM28.75 29.493L27.8336 29.0927L27.8314 29.0978L28.75 29.493ZM23.55 36.243L24.1324 37.0559L24.1403 37.0501L23.55 36.243ZM20.1 30.893L20.7525 31.6507L20.7585 31.6456L20.7644 31.6404L20.1 30.893ZM22.85 26.393L21.9029 26.0719L21.8997 26.0817L22.85 26.393ZM22.85 12.443L21.8981 12.7495L21.9013 12.7593L21.9046 12.769L22.85 12.443ZM20.05 7.94297L19.3974 8.7008L19.4078 8.70949L20.05 7.94297ZM11.35 7.94297L10.6975 7.1852L10.6975 7.1852L11.35 7.94297ZM8.55 12.443L7.60289 12.1219L7.59969 12.1317L8.55 12.443ZM8.55 26.343L7.59814 26.6495L7.60128 26.6593L7.60463 26.669L8.55 26.343ZM11.35 30.843L10.6856 31.5904L10.6958 31.5993L11.35 30.843ZM15.7 37.643C12.9246 37.643 10.5321 36.8985 8.48239 35.4301L7.31762 37.0559C9.73454 38.7874 12.542 39.643 15.7 39.643V37.643ZM8.48239 35.4301C6.4166 33.9501 4.77207 31.8531 3.5664 29.0927L1.7336 29.8932C3.06126 32.9329 4.91673 35.3358 7.31762 37.0559L8.48239 35.4301ZM3.57024 29.1016C2.39962 26.3491 1.8 23.1202 1.8 19.393H-0.2C-0.2 23.3324 0.433718 26.8369 1.72976 29.8843L3.57024 29.1016ZM1.8 19.393C1.8 15.6307 2.40016 12.404 3.56859 9.68818L1.73141 8.89776C0.43317 11.9153 -0.2 15.4219 -0.2 19.393H1.8ZM3.56859 9.68818C4.73996 6.96553 6.36634 4.88603 8.43239 3.40588L7.26762 1.78005C4.86699 3.4999 3.0267 5.88707 1.73141 8.89776L3.56859 9.68818ZM8.43239 3.40588C10.4821 1.93741 12.8746 1.19297 15.65 1.19297V-0.807033C12.492 -0.807033 9.68454 0.0485268 7.26762 1.78005L8.43239 3.40588ZM15.65 1.19297C18.4975 1.19297 20.9023 1.9402 22.9118 3.4017L24.0882 1.78423C21.6977 0.0457344 18.8692 -0.807033 15.65 -0.807033V1.19297ZM22.9176 3.40588C24.9834 4.88584 26.6279 6.98288 27.8336 9.74323L29.6664 8.9427C28.3387 5.90306 26.4833 3.50009 24.0824 1.78005L22.9176 3.40588ZM27.8353 9.74713C29.0346 12.4614 29.65 15.6685 29.65 19.393H31.65C31.65 15.4508 30.9987 11.9579 29.6647 8.9388L27.8353 9.74713ZM29.65 19.393C29.65 23.117 29.0348 26.3427 27.8336 29.0927L29.6664 29.8932C30.9986 26.8433 31.65 23.3356 31.65 19.393H29.65ZM27.8314 29.0978C26.6595 31.8217 25.031 33.921 22.9597 35.4358L24.1403 37.0501C26.5357 35.2983 28.3738 32.8976 29.6686 29.8882L27.8314 29.0978ZM22.9676 35.4301C20.9198 36.8971 18.5113 37.643 15.7 37.643V39.643C18.8887 39.643 21.7135 38.7888 24.1324 37.0559L22.9676 35.4301ZM15.75 33.443C17.6705 33.443 19.3571 32.8523 20.7525 31.6507L19.4475 30.1352C18.4429 31.0003 17.2296 31.443 15.75 31.443V33.443ZM20.7644 31.6404C22.1275 30.4287 23.1264 28.7615 23.8003 26.7043L21.8997 26.0817C21.3069 27.8911 20.4725 29.2239 19.4356 30.1456L20.7644 31.6404ZM23.7971 26.714C24.5075 24.6182 24.85 22.1712 24.85 19.393H22.85C22.85 22.0148 22.5258 24.2344 21.9029 26.0719L23.7971 26.714ZM24.85 19.393C24.85 16.6154 24.5077 14.1827 23.7954 12.117L21.9046 12.769C22.5256 14.5699 22.85 16.7705 22.85 19.393H24.85ZM23.8019 12.1364C23.1269 10.0406 22.1058 8.36084 20.6922 7.17645L19.4078 8.70949C20.4608 9.59176 21.3064 10.912 21.8981 12.7495L23.8019 12.1364ZM20.7025 7.1852C19.3034 5.98039 17.5985 5.39297 15.65 5.39297V7.39297C17.1682 7.39297 18.3966 7.83888 19.3975 8.70074L20.7025 7.1852ZM15.65 5.39297C13.7575 5.39297 12.0891 5.98689 10.6975 7.1852L12.0025 8.70074C13.0109 7.83237 14.2092 7.39297 15.65 7.39297V5.39297ZM10.6975 7.1852C9.32613 8.36608 8.30958 10.0373 7.60293 12.1219L9.49707 12.764C10.1238 10.9153 10.9739 9.58652 12.0025 8.70074L10.6975 7.1852ZM7.59969 12.1317C6.92467 14.1922 6.6 16.6196 6.6 19.393H8.6C8.6 16.7663 8.90866 14.5604 9.50031 12.7543L7.59969 12.1317ZM6.6 19.393C6.6 22.1351 6.92519 24.5598 7.59814 26.6495L9.50186 26.0364C8.90814 24.1928 8.6 21.9842 8.6 19.393H6.6ZM7.60463 26.669C8.31224 28.721 9.32686 30.3826 10.6856 31.5904L12.0144 30.0956C10.9731 29.17 10.1211 27.8316 9.49537 26.017L7.60463 26.669ZM10.6958 31.5993C12.1192 32.8303 13.8209 33.443 15.75 33.443V31.443C14.2791 31.443 13.0475 30.989 12.0042 30.0866L10.6958 31.5993ZM35.7004 38.043H34.7004V39.043H35.7004V38.043ZM35.7004 32.893L34.978 32.2014L34.7004 32.4915V32.893H35.7004ZM45.8004 22.343L46.5227 23.0345L46.5245 23.0326L45.8004 22.343ZM50.4004 17.343L49.6454 16.6873L49.644 16.6888L50.4004 17.343ZM52.7004 14.093L51.7994 13.6592V13.6592L52.7004 14.093ZM51.8504 7.64297L51.169 8.37486L51.1752 8.38061L51.1814 8.38626L51.8504 7.64297ZM43.9504 7.69297L44.5612 8.48475L44.5682 8.47935L44.5751 8.47383L43.9504 7.69297ZM41.4004 11.693L41.1035 12.6479L42.0663 12.9472L42.3577 11.982L41.4004 11.693ZM35.4504 9.84297L34.4705 9.64366L34.2903 10.5295L35.1535 10.7979L35.4504 9.84297ZM37.9004 4.74297L38.6585 5.39525L38.6658 5.38657L37.9004 4.74297ZM42.4004 1.39297L42.7985 2.31035L42.8065 2.30678L42.4004 1.39297ZM54.4004 1.49297L53.9666 2.39399L53.973 2.39704L54.4004 1.49297ZM58.6504 5.14297L57.8075 5.681L57.8115 5.68731L57.8156 5.69356L58.6504 5.14297ZM57.2004 18.593L58.0004 19.193L58.0074 19.1835L57.2004 18.593ZM53.3004 23.093L52.579 22.4004L52.5758 22.4038L53.3004 23.093ZM44.5504 32.293L43.8258 31.6038L42.2192 33.293H44.5504V32.293ZM60.7004 32.293H61.7004V31.293H60.7004V32.293ZM60.7004 38.043V39.043H61.7004V38.043H60.7004ZM36.7004 38.043V32.893H34.7004V38.043H36.7004ZM36.4227 33.5845L46.5227 23.0345L45.078 21.6514L34.978 32.2014L36.4227 33.5845ZM46.5245 23.0326C48.5285 20.9284 50.0746 19.2484 51.1568 17.9971L49.644 16.6888C48.5929 17.9042 47.0723 19.5575 45.0763 21.6533L46.5245 23.0326ZM51.1554 17.9987C52.28 16.7037 53.1122 15.5428 53.6014 14.5268L51.7994 13.6592C51.4219 14.4431 50.7208 15.4489 49.6454 16.6873L51.1554 17.9987ZM53.6014 14.5268C54.0952 13.5012 54.3504 12.4369 54.3504 11.343H52.3504C52.3504 12.1157 52.1722 12.8848 51.7994 13.6592L53.6014 14.5268ZM54.3504 11.343C54.3504 9.54406 53.7654 8.02109 52.5194 6.89967L51.1814 8.38626C51.9354 9.06484 52.3504 10.0085 52.3504 11.343H54.3504ZM52.5318 6.91107C51.3505 5.81123 49.8431 5.29297 48.1004 5.29297V7.29297C49.4244 7.29297 50.417 7.6747 51.169 8.37486L52.5318 6.91107ZM48.1004 5.29297C46.2906 5.29297 44.6827 5.82649 43.3257 6.9121L44.5751 8.47383C45.5514 7.69277 46.7102 7.29297 48.1004 7.29297V5.29297ZM43.3396 6.90118C41.9702 7.95754 41.0213 9.4885 40.4431 11.404L42.3577 11.982C42.8461 10.3641 43.5972 9.22839 44.5612 8.48475L43.3396 6.90118ZM41.6973 10.7381L35.7473 8.88806L35.1535 10.7979L41.1035 12.6479L41.6973 10.7381ZM36.4303 10.0423C36.7984 8.23244 37.5434 6.69103 38.6584 5.39521L37.1424 4.09073C35.7907 5.66158 34.9024 7.52016 34.4705 9.64366L36.4303 10.0423ZM38.6658 5.38657C39.799 4.03895 41.173 3.01569 42.7985 2.31031L42.0023 0.475622C40.0944 1.30357 38.4685 2.51365 37.135 4.09937L38.6658 5.38657ZM42.8065 2.30678C44.4767 1.5645 46.2381 1.19297 48.1004 1.19297V-0.807033C45.9627 -0.807033 43.9241 -0.378562 41.9943 0.479156L42.8065 2.30678ZM48.1004 1.19297C50.38 1.19297 52.3264 1.60428 53.9666 2.39397L54.8342 0.591967C52.8743 -0.351676 50.6208 -0.807033 48.1004 -0.807033V1.19297ZM53.973 2.39704C55.6522 3.19085 56.9179 4.28739 57.8075 5.681L59.4933 4.60493C58.3829 2.86521 56.8152 1.52842 54.8278 0.588896L53.973 2.39704ZM57.8156 5.69356C58.7286 7.0778 59.2004 8.71461 59.2004 10.643H61.2004C61.2004 8.37133 60.6388 6.34147 59.4852 4.59237L57.8156 5.69356ZM59.2004 10.643C59.2004 11.8481 58.975 13.0434 58.517 14.234L60.3837 14.9519C60.9258 13.5426 61.2004 12.1045 61.2004 10.643H59.2004ZM58.517 14.234C58.0547 15.4361 57.352 16.6923 56.3934 18.0025L58.0074 19.1835C59.0488 17.7603 59.8461 16.3498 60.3837 14.9519L58.517 14.234ZM56.4004 17.993C55.4319 19.2842 54.1608 20.7527 52.579 22.4004L54.0218 23.7855C55.64 22.0999 56.9688 20.5684 58.0004 19.193L56.4004 17.993ZM52.5758 22.4038L43.8258 31.6038L45.275 32.9821L54.025 23.7821L52.5758 22.4038ZM44.5504 33.293H60.7004V31.293H44.5504V33.293ZM59.7004 32.293V38.043H61.7004V32.293H59.7004ZM60.7004 37.043H35.7004V39.043H60.7004V37.043Z" fill="#034833" mask="url(#path-1-outside-1_5704_211)"/>
</svg>
