<svg width="62" height="39" viewBox="0 0 62 39" fill="none" xmlns="http://www.w3.org/2000/svg">
<mask id="path-1-outside-1_5704_206" maskUnits="userSpaceOnUse" x="-1" y="-0.957031" width="64" height="41" fill="black">
<rect fill="white" x="-1" y="-0.957031" width="64" height="41"/>
<path d="M15.7 38.643C12.7333 38.643 10.1333 37.843 7.9 36.243C5.66667 34.643 3.91667 32.393 2.65 29.493C1.41667 26.593 0.8 23.2263 0.8 19.393C0.8 15.5263 1.41667 12.1596 2.65 9.29297C3.88333 6.4263 5.61667 4.19297 7.85 2.59297C10.0833 0.992967 12.6833 0.192967 15.65 0.192967C18.6833 0.192967 21.3 0.992967 23.5 2.59297C25.7333 4.19297 27.4833 6.44297 28.75 9.34297C30.0167 12.2096 30.65 15.5596 30.65 19.393C30.65 23.2263 30.0167 26.593 28.75 29.493C27.5167 32.3596 25.7833 34.6096 23.55 36.243C21.3167 37.843 18.7 38.643 15.7 38.643ZM15.75 32.443C17.45 32.443 18.9 31.9263 20.1 30.893C21.3 29.8263 22.2167 28.3263 22.85 26.393C23.5167 24.4263 23.85 22.093 23.85 19.393C23.85 16.693 23.5167 14.3763 22.85 12.443C22.2167 10.4763 21.2833 8.9763 20.05 7.94297C18.85 6.90963 17.3833 6.39297 15.65 6.39297C13.9833 6.39297 12.55 6.90963 11.35 7.94297C10.15 8.9763 9.21667 10.4763 8.55 12.443C7.91667 14.3763 7.6 16.693 7.6 19.393C7.6 22.0596 7.91667 24.3763 8.55 26.343C9.21667 28.2763 10.15 29.7763 11.35 30.843C12.5833 31.9096 14.05 32.443 15.75 32.443ZM48.0504 38.643C46.0171 38.643 44.0837 38.2763 42.2504 37.543C40.4504 36.7763 38.9004 35.7096 37.6004 34.343C36.3337 32.943 35.4671 31.293 35.0004 29.393L40.9504 27.293C41.5504 28.993 42.4671 30.293 43.7004 31.193C44.9337 32.0596 46.3837 32.493 48.0504 32.493C49.3837 32.493 50.5337 32.243 51.5004 31.743C52.5004 31.243 53.2837 30.5263 53.8504 29.593C54.4171 28.6263 54.7004 27.493 54.7004 26.193C54.7004 24.893 54.4171 23.793 53.8504 22.893C53.3171 21.9596 52.5504 21.243 51.5504 20.743C50.5504 20.243 49.3671 19.993 48.0004 19.993C47.3671 19.993 46.7004 20.0596 46.0004 20.193C45.3337 20.3263 44.7337 20.5263 44.2004 20.793L42.6504 17.543L52.3004 6.54297H37.1004V0.792966H59.9504V6.14297L50.2504 17.493L50.3504 14.943C52.5837 14.9763 54.5337 15.4596 56.2004 16.393C57.8671 17.3263 59.1671 18.6096 60.1004 20.243C61.0337 21.8763 61.5004 23.793 61.5004 25.993C61.5004 28.393 60.9171 30.5596 59.7504 32.493C58.5837 34.393 56.9837 35.893 54.9504 36.993C52.9171 38.093 50.6171 38.643 48.0504 38.643Z"/>
</mask>
<path d="M7.9 36.243L7.31762 37.0559L7.9 36.243ZM2.65 29.493L1.72972 29.8843L1.7336 29.8932L2.65 29.493ZM2.65 9.29297L1.73141 8.89776H1.73141L2.65 9.29297ZM7.85 2.59297L7.26762 1.78005L7.85 2.59297ZM23.5 2.59297L22.9118 3.40172L22.9176 3.40588L23.5 2.59297ZM28.75 9.34297L27.8336 9.74324L27.8353 9.74713L28.75 9.34297ZM28.75 29.493L27.8336 29.0927L27.8314 29.0978L28.75 29.493ZM23.55 36.243L24.1324 37.0559L24.1403 37.0501L23.55 36.243ZM20.1 30.893L20.7525 31.6507L20.7585 31.6456L20.7644 31.6404L20.1 30.893ZM22.85 26.393L21.9029 26.0719L21.8997 26.0817L22.85 26.393ZM22.85 12.443L21.8981 12.7495L21.9013 12.7593L21.9046 12.769L22.85 12.443ZM20.05 7.94297L19.3974 8.7008L19.4078 8.70949L20.05 7.94297ZM11.35 7.94297L10.6975 7.1852L10.6975 7.1852L11.35 7.94297ZM8.55 12.443L7.60289 12.1219L7.59969 12.1317L8.55 12.443ZM8.55 26.343L7.59814 26.6495L7.60128 26.6593L7.60463 26.669L8.55 26.343ZM11.35 30.843L10.6856 31.5904L10.6958 31.5993L11.35 30.843ZM15.7 37.643C12.9246 37.643 10.5321 36.8985 8.48239 35.4301L7.31762 37.0559C9.73454 38.7874 12.542 39.643 15.7 39.643V37.643ZM8.48239 35.4301C6.4166 33.9501 4.77207 31.8531 3.5664 29.0927L1.7336 29.8932C3.06126 32.9329 4.91673 35.3358 7.31762 37.0559L8.48239 35.4301ZM3.57024 29.1016C2.39962 26.3491 1.8 23.1202 1.8 19.393H-0.2C-0.2 23.3324 0.433718 26.8369 1.72976 29.8843L3.57024 29.1016ZM1.8 19.393C1.8 15.6307 2.40016 12.404 3.56859 9.68818L1.73141 8.89776C0.43317 11.9153 -0.2 15.4219 -0.2 19.393H1.8ZM3.56859 9.68818C4.73996 6.96553 6.36634 4.88603 8.43239 3.40588L7.26762 1.78005C4.86699 3.4999 3.0267 5.88707 1.73141 8.89776L3.56859 9.68818ZM8.43239 3.40588C10.4821 1.93741 12.8746 1.19297 15.65 1.19297V-0.807033C12.492 -0.807033 9.68454 0.0485268 7.26762 1.78005L8.43239 3.40588ZM15.65 1.19297C18.4975 1.19297 20.9023 1.9402 22.9118 3.4017L24.0882 1.78423C21.6977 0.0457344 18.8692 -0.807033 15.65 -0.807033V1.19297ZM22.9176 3.40588C24.9834 4.88584 26.6279 6.98288 27.8336 9.74323L29.6664 8.9427C28.3387 5.90306 26.4833 3.50009 24.0824 1.78005L22.9176 3.40588ZM27.8353 9.74713C29.0346 12.4614 29.65 15.6685 29.65 19.393H31.65C31.65 15.4508 30.9987 11.9579 29.6647 8.9388L27.8353 9.74713ZM29.65 19.393C29.65 23.117 29.0348 26.3427 27.8336 29.0927L29.6664 29.8932C30.9986 26.8433 31.65 23.3356 31.65 19.393H29.65ZM27.8314 29.0978C26.6595 31.8217 25.031 33.921 22.9597 35.4358L24.1403 37.0501C26.5357 35.2983 28.3738 32.8976 29.6686 29.8882L27.8314 29.0978ZM22.9676 35.4301C20.9198 36.8971 18.5113 37.643 15.7 37.643V39.643C18.8887 39.643 21.7135 38.7888 24.1324 37.0559L22.9676 35.4301ZM15.75 33.443C17.6705 33.443 19.3571 32.8523 20.7525 31.6507L19.4475 30.1352C18.4429 31.0003 17.2296 31.443 15.75 31.443V33.443ZM20.7644 31.6404C22.1275 30.4287 23.1264 28.7615 23.8003 26.7043L21.8997 26.0817C21.3069 27.8911 20.4725 29.2239 19.4356 30.1456L20.7644 31.6404ZM23.7971 26.714C24.5075 24.6182 24.85 22.1712 24.85 19.393H22.85C22.85 22.0148 22.5258 24.2344 21.9029 26.0719L23.7971 26.714ZM24.85 19.393C24.85 16.6154 24.5077 14.1827 23.7954 12.117L21.9046 12.769C22.5256 14.5699 22.85 16.7705 22.85 19.393H24.85ZM23.8019 12.1364C23.1269 10.0406 22.1058 8.36084 20.6922 7.17645L19.4078 8.70949C20.4608 9.59176 21.3064 10.912 21.8981 12.7495L23.8019 12.1364ZM20.7025 7.1852C19.3034 5.98039 17.5985 5.39297 15.65 5.39297V7.39297C17.1682 7.39297 18.3966 7.83888 19.3975 8.70074L20.7025 7.1852ZM15.65 5.39297C13.7575 5.39297 12.0891 5.98689 10.6975 7.1852L12.0025 8.70074C13.0109 7.83237 14.2092 7.39297 15.65 7.39297V5.39297ZM10.6975 7.1852C9.32613 8.36608 8.30958 10.0373 7.60293 12.1219L9.49707 12.764C10.1238 10.9153 10.9739 9.58652 12.0025 8.70074L10.6975 7.1852ZM7.59969 12.1317C6.92467 14.1922 6.6 16.6196 6.6 19.393H8.6C8.6 16.7663 8.90866 14.5604 9.50031 12.7543L7.59969 12.1317ZM6.6 19.393C6.6 22.1351 6.92519 24.5598 7.59814 26.6495L9.50186 26.0364C8.90814 24.1928 8.6 21.9842 8.6 19.393H6.6ZM7.60463 26.669C8.31224 28.721 9.32686 30.3826 10.6856 31.5904L12.0144 30.0956C10.9731 29.17 10.1211 27.8316 9.49537 26.017L7.60463 26.669ZM10.6958 31.5993C12.1192 32.8303 13.8209 33.443 15.75 33.443V31.443C14.2791 31.443 13.0475 30.989 12.0042 30.0866L10.6958 31.5993ZM42.2504 37.543L41.8585 38.463L41.8687 38.4673L41.879 38.4714L42.2504 37.543ZM37.6004 34.343L36.8589 35.0139L36.8672 35.0231L36.8758 35.0322L37.6004 34.343ZM35.0004 29.393L34.6676 28.45L33.8131 28.7515L34.0293 29.6315L35.0004 29.393ZM40.9504 27.293L41.8934 26.9601L41.5606 26.0172L40.6176 26.35L40.9504 27.293ZM43.7004 31.193L43.1109 32.0008L43.1181 32.006L43.1254 32.0112L43.7004 31.193ZM51.5004 31.743L51.0531 30.8485L51.041 30.8548L51.5004 31.743ZM53.8504 29.593L54.7052 30.1119L54.7092 30.1053L54.7131 30.0987L53.8504 29.593ZM53.8504 22.893L52.9821 23.3891L52.9928 23.4077L53.0042 23.4258L53.8504 22.893ZM51.5504 20.743L51.1032 21.6374L51.5504 20.743ZM46.0004 20.193L45.8133 19.2106L45.8043 19.2124L46.0004 20.193ZM44.2004 20.793L43.2978 21.2234L43.7364 22.143L44.6476 21.6874L44.2004 20.793ZM42.6504 17.543L41.8987 16.8835L41.4642 17.3788L41.7478 17.9734L42.6504 17.543ZM52.3004 6.54297L53.0521 7.20244L54.5079 5.54297H52.3004V6.54297ZM37.1004 6.54297H36.1004V7.54297H37.1004V6.54297ZM37.1004 0.792966V-0.207034H36.1004V0.792966H37.1004ZM59.9504 0.792966H60.9504V-0.207034H59.9504V0.792966ZM59.9504 6.14297L60.7106 6.79266L60.9504 6.51207V6.14297H59.9504ZM50.2504 17.493L49.2512 17.4538L49.1382 20.3335L51.0106 18.1427L50.2504 17.493ZM50.3504 14.943L50.3653 13.9431L49.3894 13.9285L49.3512 14.9038L50.3504 14.943ZM60.1004 20.243L59.2322 20.7391L60.1004 20.243ZM59.7504 32.493L60.6026 33.0162L60.6066 33.0096L59.7504 32.493ZM54.9504 36.993L55.4262 37.8725H55.4262L54.9504 36.993ZM48.0504 37.643C46.1404 37.643 44.3335 37.2992 42.6218 36.6145L41.879 38.4714C43.834 39.2534 45.8937 39.643 48.0504 39.643V37.643ZM42.6423 36.6229C40.963 35.9077 39.5274 34.9179 38.3249 33.6538L36.8758 35.0322C38.2733 36.5014 39.9378 37.6449 41.8585 38.463L42.6423 36.6229ZM38.3419 33.6721C37.1906 32.3995 36.4002 30.8996 35.9715 29.1544L34.0293 29.6315C34.534 31.6864 35.4769 33.4865 36.8589 35.0139L38.3419 33.6721ZM35.3332 30.336L41.2832 28.236L40.6176 26.35L34.6676 28.45L35.3332 30.336ZM40.0074 27.6258C40.6622 29.481 41.6867 30.9615 43.1109 32.0008L44.2899 30.3852C43.2474 29.6244 42.4386 28.505 41.8934 26.9601L40.0074 27.6258ZM43.1254 32.0112C44.5449 33.0086 46.2007 33.493 48.0504 33.493V31.493C46.5668 31.493 45.3226 31.1107 44.2753 30.3748L43.1254 32.0112ZM48.0504 33.493C49.5081 33.493 50.8227 33.2194 51.9598 32.6312L51.041 30.8548C50.2448 31.2666 49.2593 31.493 48.0504 31.493V33.493ZM51.9476 32.6374C53.1119 32.0553 54.0383 31.2103 54.7052 30.1119L52.9956 29.074C52.5292 29.8423 51.8889 30.4307 51.0532 30.8485L51.9476 32.6374ZM54.7131 30.0987C55.3832 28.9555 55.7004 27.6419 55.7004 26.193H53.7004C53.7004 27.344 53.4509 28.2971 52.9877 29.0872L54.7131 30.0987ZM55.7004 26.193C55.7004 24.7465 55.384 23.4519 54.6966 22.3602L53.0042 23.4258C53.4501 24.134 53.7004 25.0395 53.7004 26.193H55.7004ZM54.7186 22.3968C54.0833 21.285 53.1667 20.4331 51.9976 19.8485L51.1032 21.6374C51.9341 22.0528 52.5508 22.6343 52.9821 23.3891L54.7186 22.3968ZM51.9976 19.8485C50.8313 19.2654 49.4883 18.993 48.0004 18.993V20.993C49.2458 20.993 50.2695 21.2206 51.1032 21.6374L51.9976 19.8485ZM48.0004 18.993C47.297 18.993 46.5674 19.067 45.8133 19.2106L46.1875 21.1753C46.8334 21.0523 47.4371 20.993 48.0004 20.993V18.993ZM45.8043 19.2124C45.0624 19.3608 44.3762 19.587 43.7532 19.8985L44.6476 21.6874C45.0912 21.4656 45.605 21.2918 46.1965 21.1735L45.8043 19.2124ZM45.103 20.3625L43.553 17.1125L41.7478 17.9734L43.2978 21.2234L45.103 20.3625ZM43.4021 18.2024L53.0521 7.20244L51.5487 5.88349L41.8987 16.8835L43.4021 18.2024ZM52.3004 5.54297H37.1004V7.54297H52.3004V5.54297ZM38.1004 6.54297V0.792966H36.1004V6.54297H38.1004ZM37.1004 1.79297H59.9504V-0.207034H37.1004V1.79297ZM58.9504 0.792966V6.14297H60.9504V0.792966H58.9504ZM59.1902 5.49328L49.4902 16.8433L51.0106 18.1427L60.7106 6.79266L59.1902 5.49328ZM51.2496 17.5322L51.3496 14.9822L49.3512 14.9038L49.2512 17.4538L51.2496 17.5322ZM50.3355 15.9429C52.431 15.9741 54.2128 16.426 55.7118 17.2655L56.689 15.5205C54.8547 14.4933 52.7365 13.9785 50.3653 13.9431L50.3355 15.9429ZM55.7118 17.2655C57.2227 18.1116 58.3903 19.2659 59.2322 20.7391L60.9686 19.7468C59.9438 17.9534 58.5114 16.541 56.689 15.5205L55.7118 17.2655ZM59.2322 20.7391C60.0655 22.1975 60.5004 23.9373 60.5004 25.993H62.5004C62.5004 23.6487 62.002 21.5551 60.9686 19.7468L59.2322 20.7391ZM60.5004 25.993C60.5004 28.2228 59.9608 30.2088 58.8942 31.9763L60.6066 33.0096C61.8733 30.9105 62.5004 28.5632 62.5004 25.993H60.5004ZM58.8982 31.9697C57.827 33.7143 56.3593 35.0938 54.4746 36.1134L55.4262 37.8725C57.6082 36.6921 59.3405 35.0717 60.6026 33.0162L58.8982 31.9697ZM54.4746 36.1134C52.603 37.1259 50.4696 37.643 48.0504 37.643V39.643C50.7645 39.643 53.2312 39.06 55.4262 37.8725L54.4746 36.1134Z" fill="#034833" mask="url(#path-1-outside-1_5704_206)"/>
</svg>
