<svg width="144" height="49" viewBox="0 0 144 49" fill="none" xmlns="http://www.w3.org/2000/svg">
<path d="M143.733 24.6033V20.0092C142.834 20.0452 140.138 20.4118 138.945 21.8425V20.3255H133.912V35.6321H138.945V28.3994C139.664 24.9916 142.921 24.6321 143.747 24.6033H143.733ZM98.6546 24.7831C98.1146 24.3001 97.4973 23.9112 96.8285 23.6327C96.2777 23.3643 95.6725 23.2265 95.0598 23.2301C94.606 23.2256 94.1567 23.3214 93.7442 23.5105C93.5562 23.5868 93.3969 23.7201 93.2885 23.8916C93.1802 24.0631 93.1283 24.2642 93.1402 24.4667C93.1353 24.6721 93.1971 24.8735 93.3163 25.0407C93.4356 25.208 93.6059 25.332 93.8017 25.3942C94.5041 25.6542 95.2251 25.8609 95.9585 26.0125C96.5559 26.1419 97.1424 26.3174 97.7128 26.5373C98.2864 26.7561 98.8243 27.0589 99.3089 27.436C99.7816 27.8079 100.173 28.2728 100.459 28.802C100.76 29.3935 100.909 30.0509 100.891 30.7144C100.922 31.5247 100.739 32.3289 100.361 33.0459C99.9819 33.7629 99.4207 34.3673 98.7337 34.7981C98.0748 35.2252 97.3441 35.5297 96.5768 35.6968C95.8044 35.8821 95.013 35.9762 94.2187 35.9772C92.9599 35.9772 91.7095 35.7733 90.5161 35.3732C89.3829 35.0208 88.3469 34.4105 87.4893 33.5902L89.9768 30.4772C90.5831 31.031 91.272 31.487 92.0187 31.8288C92.6721 32.1575 93.3938 32.3274 94.1252 32.3249C94.552 32.3205 94.9723 32.2197 95.3546 32.0301C95.5489 31.9398 95.7109 31.7922 95.8189 31.6071C95.9268 31.4221 95.9756 31.2084 95.9585 30.9948C95.9612 30.7672 95.8935 30.5442 95.7649 30.3564C95.6362 30.1686 95.4528 30.025 95.2396 29.9451C94.4898 29.6332 93.7123 29.3924 92.9174 29.2262C92.3677 29.0972 91.8272 28.9314 91.2997 28.7301C90.7801 28.5283 90.295 28.247 89.8618 27.8961C89.448 27.543 89.1062 27.1134 88.8553 26.6308C88.5746 26.0536 88.4366 25.4175 88.4527 24.7759C88.4291 23.9461 88.633 23.1256 89.0422 22.4033C89.4273 21.7533 89.9561 21.1999 90.588 20.7857C91.2156 20.3651 91.9113 20.0562 92.6442 19.8726C93.3812 19.6797 94.1397 19.5806 94.9017 19.5778C96.0542 19.5767 97.1997 19.7587 98.2951 20.1171C99.3409 20.4438 100.301 20.9988 101.106 21.7419L98.6546 24.7831ZM128.11 25.9909C128.104 25.2863 127.849 24.6065 127.391 24.0713C127.095 23.7687 126.736 23.5352 126.34 23.3873C125.944 23.2394 125.519 23.1808 125.098 23.2157C124.639 23.2119 124.184 23.2898 123.753 23.4458C123.362 23.5889 122.999 23.8007 122.682 24.0713C122.387 24.3356 122.143 24.6525 121.963 25.0059C121.803 25.3126 121.703 25.6469 121.668 25.9909H128.11ZM132.747 28.0687V28.6798C132.759 28.8737 132.759 29.0682 132.747 29.2621H121.647C121.679 29.673 121.81 30.07 122.028 30.4196C122.244 30.7706 122.525 31.0779 122.855 31.3255C123.199 31.5833 123.583 31.7847 123.991 31.9223C124.409 32.066 124.849 32.1389 125.292 32.1379C125.994 32.1584 126.69 32.0053 127.319 31.6922C127.849 31.4152 128.308 31.0219 128.664 30.5419L132.165 32.7491C131.435 33.7896 130.443 34.6182 129.289 35.1504C128.016 35.7236 126.631 36.0061 125.234 35.9772C124.126 35.9836 123.025 35.8012 121.977 35.4379C120.989 35.1013 120.077 34.5709 119.296 33.8778C118.519 33.1766 117.904 32.3158 117.491 31.3543C117.032 30.273 116.806 29.1067 116.83 27.9321C116.815 26.7719 117.032 25.6205 117.47 24.5458C117.873 23.581 118.467 22.7078 119.217 21.9791C119.971 21.2669 120.857 20.7099 121.826 20.3399C122.871 19.9424 123.98 19.7448 125.098 19.7576C126.157 19.7476 127.209 19.9404 128.196 20.3255C129.114 20.6877 129.942 21.2473 130.619 21.9648C131.316 22.7147 131.854 23.5974 132.201 24.5602C132.594 25.6824 132.786 26.8653 132.769 28.0543L132.747 28.0687ZM72.118 24.4739V19.851H67.8043V16.4216C67.6965 14.4445 66.7618 12.9707 62.9442 12.9707V30.7791C62.9407 31.4927 63.0326 32.2036 63.2174 32.8928C63.3804 33.4984 63.675 34.0606 64.0801 34.5392C64.514 35.0161 65.0602 35.3769 65.669 35.5889C66.5195 35.8595 67.4081 35.9906 68.3004 35.9772C69.6003 35.9931 70.8928 35.7789 72.118 35.3445V31.2464C71.3002 31.4561 70.4603 31.5671 69.6161 31.5772C69.3532 31.6097 69.0864 31.5805 68.8368 31.4919C68.5872 31.4033 68.3617 31.2577 68.1782 31.0667C67.8907 30.5999 67.762 30.0526 67.8115 29.5066V24.4739H72.118Z" fill="#008FB4"/>
<path d="M112.487 27.4649L118.167 20.2754H112.157L107.124 26.6309V16.5656C107.031 14.495 106.132 12.9708 102.257 12.9708V35.6322H107.124V28.3132L112.876 35.6322H118.951L112.487 27.4649ZM86.6338 35.6178V25.4806C86.6338 21.1165 83.1685 19.5492 80.0986 19.5492C77.6813 19.4286 75.3034 20.1957 73.4123 21.7061L75.9502 24.8551C76.9721 23.9575 78.2491 23.402 79.6025 23.2662C81.4502 23.2662 81.8312 24.3231 81.8312 25.6747V25.9335H80.1704C75.8999 25.9335 73.3332 27.7812 73.3332 31.074C73.3332 34.6688 76.4966 35.6034 80.3502 35.6034L86.6338 35.6178ZM81.8312 32.4328H80.2352C78.9914 32.4328 78.2293 31.9152 78.2293 30.844C78.2293 29.7727 78.9914 29.1544 80.5155 29.1544H81.8312V32.4328ZM45.215 15.7531C45.215 16.4968 45.5104 17.21 46.0362 17.7358C46.562 18.2616 47.2752 18.5571 48.0189 18.5571C48.7625 18.5571 49.4757 18.2616 50.0015 17.7358C50.5274 17.21 50.8228 16.4968 50.8228 15.7531C50.8228 15.0095 50.5274 14.2963 50.0015 13.7705C49.4757 13.2446 48.7625 12.9492 48.0189 12.9492C47.2752 12.9492 46.562 13.2446 46.0362 13.7705C45.5104 14.2963 45.215 15.0095 45.215 15.7531ZM45.6895 19.8871H45.481V35.6322H50.5496V23.2015C50.4058 21.2891 49.428 19.8871 45.6895 19.8871ZM61.83 24.6034V20.0093C60.9385 20.0453 58.2352 20.412 57.0417 21.8427V20.3257H52.0091V35.6322H57.0417V28.5217C57.0383 28.4811 57.0383 28.4402 57.0417 28.3995C57.7607 24.9917 61.0104 24.6322 61.8443 24.6034H61.83ZM142.274 33.3243H141.993V33.8564H142.274C142.31 33.8583 142.346 33.8529 142.38 33.8404C142.414 33.8279 142.445 33.8086 142.471 33.7837C142.497 33.7588 142.518 33.7288 142.532 33.6956C142.547 33.6623 142.554 33.6265 142.554 33.5904C142.554 33.5542 142.547 33.5184 142.532 33.4851C142.518 33.4519 142.497 33.4219 142.471 33.397C142.445 33.3721 142.414 33.3528 142.38 33.3403C142.346 33.3278 142.31 33.3224 142.274 33.3243ZM142.554 34.7982L142.209 34.0793H141.993V34.7982H141.677V33.0511H142.353C142.424 33.0492 142.496 33.0618 142.562 33.0881C142.629 33.1144 142.69 33.1539 142.741 33.2043C142.792 33.2547 142.832 33.3148 142.859 33.3812C142.887 33.4475 142.9 33.5187 142.899 33.5904C142.9 33.695 142.868 33.7972 142.807 33.8824C142.746 33.9677 142.66 34.0315 142.561 34.0649L142.942 34.7838L142.554 34.7982ZM142.223 32.6413C141.961 32.6284 141.7 32.6945 141.476 32.8309C141.251 32.9674 141.072 33.1681 140.963 33.4071C140.853 33.6461 140.818 33.9124 140.861 34.1717C140.904 34.4311 141.024 34.6715 141.205 34.862C141.386 35.0526 141.62 35.1844 141.877 35.2407C142.134 35.2969 142.402 35.2749 142.646 35.1775C142.89 35.0801 143.1 34.9118 143.247 34.6943C143.395 34.4767 143.474 34.2199 143.474 33.957C143.479 33.7884 143.45 33.6204 143.39 33.4629C143.33 33.3053 143.239 33.1612 143.122 33.039C143.006 32.9167 142.867 32.8186 142.713 32.7504C142.558 32.6821 142.392 32.6451 142.223 32.6413ZM142.223 35.5747C141.903 35.5846 141.586 35.499 141.314 35.3286C141.043 35.1583 140.827 34.911 140.696 34.6181C140.566 34.3252 140.525 34.0001 140.579 33.6839C140.633 33.3677 140.78 33.0748 141.002 32.8424C141.223 32.6101 141.508 32.4487 141.821 32.3789C142.134 32.3091 142.461 32.334 142.76 32.4504C143.059 32.5668 143.317 32.7694 143.5 33.0326C143.684 33.2957 143.785 33.6075 143.791 33.9283C143.796 34.3504 143.635 34.7575 143.341 35.0607C143.047 35.3639 142.645 35.5383 142.223 35.5459V35.5747ZM31.332 26.7531L33.5823 20.2825L35.8326 26.7531H31.332ZM35.9477 12.9708H31.4254L24.4444 31.4191H21.698C19.8256 31.4984 17.9703 31.034 16.3562 30.0819C15.7128 29.669 15.1907 29.0927 14.8433 28.4118C14.4959 27.7309 14.3357 26.9699 14.3791 26.2067V24.0499H12.1503C10.0772 23.993 8.09193 23.2004 6.54966 21.8139C5.34474 20.5501 4.58714 18.9263 4.3928 17.191H20.0157C22.8555 17.191 23.9052 18.5786 24.5594 19.8224C24.8809 20.4462 25.1224 21.1081 25.2784 21.7923L27.2555 16.5656C27.2555 16.5656 25.6019 12.9708 20.0157 12.9708H0V15.1276C0 19.1969 1.20784 22.461 3.59477 24.8048C5.46844 26.5779 7.8388 27.7367 10.3889 28.1263C11.2876 32.742 15.5294 35.6178 21.698 35.6178H28.1111L29.549 31.4623H37.5797L39.0176 35.6106H44.5032L35.9477 12.9708Z" fill="#008FB4"/>
</svg>
