<svg width="127" height="49" viewBox="0 0 127 49" fill="none" xmlns="http://www.w3.org/2000/svg">
<path fill-rule="evenodd" clip-rule="evenodd" d="M122.957 32.9613C123.033 33.8308 123.729 34.9376 124.934 34.9376H125.639C125.913 34.9376 126.137 34.7137 126.137 34.4401V18.9344H126.133C126.12 18.6732 125.904 18.464 125.639 18.464H123.455C123.19 18.464 122.974 18.6732 122.961 18.9344H122.957V20.1943C121.619 18.5444 119.508 17.8596 117.392 17.8596C112.582 17.8596 108.683 21.7621 108.683 26.5763C108.683 31.3908 112.582 35.2933 117.392 35.2933C119.508 35.2933 121.815 34.4721 122.957 32.9593V32.9613ZM117.4 32.2426C114.341 32.2426 111.861 29.7059 111.861 26.5763C111.861 23.4472 114.341 20.9104 117.4 20.9104C120.461 20.9104 122.94 23.4472 122.94 26.5763C122.94 29.7059 120.461 32.2426 117.4 32.2426Z" fill="#0D0E10"/>
<path fill-rule="evenodd" clip-rule="evenodd" d="M105.92 25.471C105.92 20.9481 103.069 17.897 98.5225 17.897C96.3521 17.897 94.573 19.1529 93.9446 20.2318C93.8088 19.3882 93.3613 18.5015 91.9735 18.5015H91.2661C90.9925 18.5015 90.769 18.7256 90.769 18.9992V33.0001C90.769 33.0005 90.769 33.0015 90.769 33.0022V34.5062H90.7718C90.7861 34.767 91.0021 34.9764 91.2663 34.9764H93.451C93.4844 34.9764 93.5172 34.9724 93.5489 34.9663C93.5634 34.9635 93.5768 34.9578 93.5909 34.9538C93.6071 34.9488 93.624 34.945 93.6395 34.9386C93.6589 34.9305 93.6765 34.9197 93.6946 34.9096C93.7035 34.9042 93.7128 34.9004 93.7213 34.8947C93.7431 34.8806 93.7631 34.8637 93.7824 34.8464C93.7856 34.8432 93.7894 34.8411 93.7926 34.8381C93.8143 34.8171 93.8342 34.7939 93.8517 34.7698C93.9063 34.6947 93.9397 34.6038 93.9452 34.5062H93.948V25.3465C93.948 22.9175 95.9159 20.9481 98.3433 20.9481C100.771 20.9481 102.738 22.9175 102.738 25.3465L102.74 33.0028L102.741 33.0001C102.741 33.0069 102.742 33.0138 102.742 33.0211V34.5062H102.745C102.759 34.767 102.975 34.9764 103.239 34.9764H105.424C105.458 34.9764 105.49 34.9724 105.522 34.9663C105.535 34.9639 105.547 34.9587 105.56 34.9552C105.577 34.9499 105.596 34.9455 105.613 34.9386C105.631 34.9312 105.647 34.9209 105.664 34.9113C105.674 34.9055 105.685 34.9013 105.695 34.8947C105.715 34.8814 105.734 34.8654 105.752 34.8496C105.756 34.8453 105.762 34.8421 105.766 34.8378C105.787 34.8178 105.805 34.7962 105.822 34.7736C105.823 34.7719 105.825 34.7705 105.826 34.7688C105.88 34.6944 105.913 34.6045 105.918 34.5075C105.918 34.5068 105.918 34.5062 105.918 34.5062H105.921L105.92 25.471Z" fill="#0D0E10"/>
<path fill-rule="evenodd" clip-rule="evenodd" d="M83.1683 32.9612C83.2447 33.8308 83.9403 34.9376 85.1453 34.9376H85.8503C86.1235 34.9376 86.3473 34.7136 86.3473 34.4401V18.9344H86.3445C86.3303 18.6732 86.1141 18.464 85.8503 18.464H83.6656C83.4014 18.464 83.1856 18.6732 83.1708 18.9344H83.1683V20.1943C81.8297 18.5444 79.7193 17.8596 77.6031 17.8596C72.7929 17.8596 68.8936 21.7621 68.8936 26.5763C68.8936 31.3908 72.7929 35.2934 77.6031 35.2934C79.7193 35.2934 82.0257 34.4721 83.1681 32.9593L83.1683 32.9612ZM77.6116 32.2426C74.5525 32.2426 72.0723 29.706 72.0723 26.5763C72.0723 23.4472 74.5525 20.9104 77.6116 20.9104C80.671 20.9104 83.1508 23.4472 83.1508 26.5763C83.1508 29.706 80.671 32.2426 77.6116 32.2426Z" fill="#0D0E10"/>
<path fill-rule="evenodd" clip-rule="evenodd" d="M55.9744 30.7405C57.4328 31.7516 59.0247 32.2428 60.5545 32.2428C62.0119 32.2428 63.5186 31.4866 63.5186 30.1705C63.5186 28.4135 60.2355 28.1401 58.1728 27.4385C56.1096 26.7369 54.3327 25.2865 54.3327 22.9377C54.3327 19.3437 57.5325 17.8594 60.5191 17.8594C62.4114 17.8594 64.3638 18.4839 65.6296 19.3784C66.0655 19.709 65.8 20.0885 65.8 20.0885L64.5918 21.8156C64.456 22.0101 64.2185 22.1781 63.8777 21.9676C63.5368 21.7572 62.3412 20.9103 60.5191 20.9103C58.6969 20.9103 57.5993 21.7524 57.5993 22.7963C57.5993 24.048 59.0258 24.4417 60.6968 24.8683C63.6087 25.6538 66.7852 26.598 66.7852 30.1705C66.7852 33.3371 63.8255 35.294 60.5545 35.294C58.0757 35.294 55.9653 34.5869 54.1953 33.287C53.8265 32.9177 54.084 32.5747 54.084 32.5747L55.2864 30.8564C55.5311 30.5352 55.8395 30.6472 55.9744 30.7405Z" fill="#0D0E10"/>
<path fill-rule="evenodd" clip-rule="evenodd" d="M47.5757 32.9612C47.652 33.8308 48.3476 34.9376 49.5525 34.9376H50.2576C50.5309 34.9376 50.7549 34.7136 50.7549 34.4401V18.9344H50.7518C50.7375 18.6732 50.5217 18.464 50.2576 18.464H48.0729C47.8087 18.464 47.5929 18.6732 47.5783 18.9344H47.5757V20.1943C46.2371 18.5444 44.1268 17.8596 42.0106 17.8596C37.2003 17.8596 33.3008 21.7621 33.3008 26.5763C33.3008 31.3908 37.2003 35.2934 42.0106 35.2934C44.1268 35.2934 46.4331 34.4721 47.5753 32.9593L47.5757 32.9612ZM42.0191 32.2426C38.9598 32.2426 36.4796 29.706 36.4796 26.5763C36.4796 23.4472 38.9598 20.9104 42.0191 20.9104C45.0783 20.9104 47.5582 23.4472 47.5582 26.5763C47.5582 29.706 45.0783 32.2426 42.0191 32.2426Z" fill="#0D0E10"/>
<path fill-rule="evenodd" clip-rule="evenodd" d="M21.0895 27.1685C17.8525 27.1685 15.2282 29.7927 15.2282 33.0301C15.2282 36.2673 17.8525 38.8915 21.0895 38.8915C24.3267 38.8915 26.9509 36.2673 26.9509 33.0301C26.9509 29.7927 24.3267 27.1685 21.0895 27.1685ZM5.86134 27.1691C2.62424 27.1691 0 29.7927 0 33.0301C0 36.2673 2.62424 38.8915 5.86134 38.8915C9.09858 38.8915 11.723 36.2673 11.723 33.0301C11.723 29.7927 9.09858 27.1691 5.86134 27.1691ZM19.3367 19.8417C19.3367 23.0791 16.7126 25.7035 13.4755 25.7035C10.2382 25.7035 7.61414 23.0791 7.61414 19.8417C7.61414 16.605 10.2382 13.9805 13.4755 13.9805C16.7126 13.9805 19.3367 16.605 19.3367 19.8417Z" fill="#F06A6A"/>
</svg>
