<svg width="64" height="64" viewBox="0 0 64 64" fill="none" xmlns="http://www.w3.org/2000/svg">
<circle cx="32" cy="32" r="32" fill="#83CD20"/>
<path d="M44.7002 42.4901C44.7002 42.4901 41.3704 36.7674 40.7732 35.741C41.4527 35.5337 42.1766 35.3506 42.4774 34.8313C42.9787 33.9659 42.0864 32.5463 42.3207 31.6188C42.562 30.6642 43.9868 29.8381 43.9868 28.8678C43.9868 27.9224 42.5138 26.8179 42.2723 25.8689C42.0364 24.9415 42.926 23.5204 42.4231 22.6561C41.9202 21.7917 40.2452 21.8627 39.5556 21.1992C38.8462 20.5164 38.8484 18.8459 37.9927 18.3883C37.1334 17.929 35.7371 18.8572 34.7831 18.6373C33.84 18.42 32.9974 17 32.0123 17C31.0126 17 29.4225 18.6107 29.1731 18.6687C28.2196 18.8904 26.8215 17.9644 25.9631 18.4257C25.1082 18.8848 25.1135 20.5555 24.4053 21.2394C23.717 21.9041 22.0418 21.8362 21.5405 22.7016C21.0392 23.5668 21.9315 24.986 21.6973 25.9141C21.4624 26.8444 19.988 27.7872 19.988 28.8631C19.988 29.8336 21.4164 30.657 21.6592 31.6112C21.8952 32.5386 21.0056 33.9595 21.5085 34.8242C21.7822 35.2948 22.4034 35.488 23.0238 35.6737C23.0962 35.6954 23.2331 35.7763 23.1404 35.9115C22.716 36.6441 19.3 42.5396 19.3 42.5396C19.0282 43.0085 19.2489 43.4104 19.7902 43.4332L22.4399 43.5437C22.9812 43.5665 23.6603 43.9599 23.9492 44.4182L25.3631 46.6618C25.6521 47.1201 26.1105 47.1115 26.3822 46.6426C26.3822 46.6426 30.3383 39.8126 30.3399 39.8107C30.4193 39.7179 30.4991 39.737 30.5372 39.7694C30.9701 40.138 31.5735 40.5056 32.0771 40.5056C32.571 40.5056 33.0284 40.1595 33.4807 39.7735C33.5175 39.7422 33.6071 39.6779 33.6726 39.8113C33.6737 39.8134 37.6254 46.6061 37.6254 46.6061C37.8978 47.0743 38.3563 47.0823 38.6444 46.6234L40.0543 44.3771C40.3425 43.9185 41.0208 43.5236 41.5621 43.5L44.2115 43.3846C44.7526 43.3608 44.9726 42.9583 44.7002 42.4901ZM36.3912 36.3464C33.4616 38.0508 29.9451 37.8681 27.2592 36.1739C23.3235 33.653 22.0285 28.4381 24.3945 24.3546C26.7874 20.2239 32.0476 18.7664 36.2155 21.0363C36.2374 21.0483 36.259 21.0606 36.2807 21.0727C36.3116 21.0899 36.3424 21.1072 36.3732 21.1247C37.659 21.866 38.7739 22.942 39.5723 24.3143C42.0125 28.5086 40.5855 33.9063 36.3912 36.3464Z" fill="white"/>
<path d="M35.7213 22.3585C35.7091 22.3514 35.6968 22.3449 35.6846 22.3379C33.4582 21.0493 30.6205 20.9551 28.2423 22.3388C24.713 24.392 23.5121 28.9336 25.5654 32.4628C26.1919 33.5397 27.0504 34.3994 28.041 35.0164C28.1252 35.0697 28.2104 35.1222 28.2975 35.1726C31.8305 37.2194 36.3697 36.0103 38.4164 32.4774C40.4631 28.9444 39.2543 24.4053 35.7213 22.3585ZM36.6051 28.1341L35.368 29.3399C34.9849 29.7134 34.7454 30.4505 34.836 30.9778L35.128 32.6804C35.2185 33.2078 34.905 33.4355 34.4314 33.1866L32.9023 32.3827C32.4287 32.1337 31.6537 32.1337 31.1801 32.3827L29.6511 33.1866C29.1774 33.4355 28.8639 33.2078 28.9544 32.6804L29.2464 30.9778C29.3369 30.4505 29.0974 29.7134 28.7143 29.3399L27.4773 28.1341C27.0941 27.7607 27.2139 27.3922 27.7434 27.3152L29.4529 27.0667C29.9823 26.9898 30.6093 26.5343 30.8462 26.0545L31.6107 24.5054C31.8475 24.0256 32.235 24.0256 32.4717 24.5054L33.2363 26.0545C33.4731 26.5343 34.1001 26.9898 34.6296 27.0667L36.3391 27.3152C36.8685 27.3922 36.9883 27.7607 36.6051 28.1341Z" fill="white"/>
</svg>
