<svg width="60" height="61" viewBox="0 0 60 61" fill="none" xmlns="http://www.w3.org/2000/svg">
<rect x="-0.000976562" y="0.0390625" width="60" height="60" rx="30" fill="#83CD20"/>
<g clip-path="url(#clip0_5704_172)">
<path d="M44.5898 38.9781H42.041V25.8493C42.0411 25.7786 42.023 25.7091 41.9883 25.6475C41.9537 25.5859 41.9037 25.5344 41.8432 25.4978L30.2123 18.4616C30.1483 18.4228 30.0749 18.4023 30 18.4023C29.9251 18.4023 29.8517 18.4228 29.7877 18.4616L18.1568 25.4985C18.0963 25.5351 18.0463 25.5867 18.0117 25.6482C17.977 25.7098 17.9589 25.7793 17.959 25.85V38.9788H15.4102C15.3563 38.9788 15.3029 38.9894 15.2531 39.01C15.2033 39.0307 15.1581 39.0609 15.12 39.0991C15.0819 39.1372 15.0517 39.1825 15.0311 39.2323C15.0105 39.2821 14.9999 39.3355 15 39.3894V41.2644C15 41.3732 15.0432 41.4775 15.1201 41.5544C15.1971 41.6313 15.3014 41.6746 15.4102 41.6746H44.5898C44.6986 41.6746 44.8029 41.6313 44.8799 41.5544C44.9568 41.4775 45 41.3732 45 41.2644V39.3894C45.0002 39.3354 44.9897 39.282 44.9691 39.2321C44.9486 39.1822 44.9184 39.1368 44.8803 39.0986C44.8422 39.0604 44.7969 39.0301 44.7471 39.0094C44.6972 38.9887 44.6438 38.9781 44.5898 38.9781ZM18.7793 34.8191H26.0156V36.6685H18.7793V34.8191ZM26.8359 30.5141C26.8365 30.0014 27.0404 29.5099 27.4029 29.1474C27.7654 28.785 28.2569 28.5811 28.7695 28.5805H29.5898V32.7674C29.5893 33.879 29.342 34.9766 28.8657 35.981C28.3895 36.9855 27.6962 37.8717 26.8359 38.5757V30.5141ZM41.2207 36.669H33.9844V34.8191H41.2207V36.669ZM33.1641 38.5757C32.3037 37.8717 31.6104 36.9855 31.1342 35.9811C30.658 34.9766 30.4107 33.879 30.4102 32.7674V28.5805H31.2305C31.7431 28.5811 32.2346 28.785 32.5971 29.1474C32.9596 29.5099 33.1635 30.0014 33.1641 30.5141V38.5757ZM27.7402 38.8754C28.7797 37.9138 29.5574 36.7034 30 35.3582C30.4601 36.7507 31.2761 37.9989 32.3672 38.979H27.6328C27.6696 38.9441 27.7031 38.9092 27.7402 38.8754ZM33.9844 37.4893H41.2207V38.9781H33.9844V37.4893ZM30 19.2917L41.2207 26.0807V33.9988H33.9844V30.5141C33.9835 29.784 33.6931 29.084 33.1768 28.5677C32.6605 28.0515 31.9606 27.7611 31.2305 27.7602H28.7695C28.0394 27.761 27.3394 28.0514 26.8231 28.5677C26.3068 29.084 26.0164 29.784 26.0156 30.5141V33.9988H18.7793V26.0807L30 19.2917ZM18.7793 37.4893H26.0156V38.9781H18.7793V37.4893ZM44.1797 40.8531H15.8203V39.7984H44.1797V40.8531Z" fill="white"/>
<path d="M22.3971 32.5583C22.786 32.5583 23.1663 32.443 23.4897 32.227C23.8132 32.0109 24.0653 31.7038 24.2142 31.3444C24.3631 30.9851 24.402 30.5896 24.3262 30.2081C24.2503 29.8266 24.063 29.4762 23.788 29.2011C23.513 28.926 23.1626 28.7387 22.7811 28.6628C22.3996 28.5869 22.0041 28.6258 21.6448 28.7747C21.2854 28.9235 20.9782 29.1756 20.7621 29.499C20.546 29.8224 20.4307 30.2027 20.4307 30.5916C20.4312 31.113 20.6386 31.6129 21.0072 31.9816C21.3759 32.3503 21.8757 32.5577 22.3971 32.5583ZM22.3971 29.4453C22.6238 29.4453 22.8455 29.5125 23.034 29.6384C23.2225 29.7643 23.3695 29.9433 23.4563 30.1528C23.5431 30.3623 23.5658 30.5928 23.5216 30.8151C23.4774 31.0375 23.3683 31.2418 23.208 31.4021C23.0477 31.5625 22.8434 31.6717 22.621 31.7159C22.3987 31.7602 22.1682 31.7375 21.9587 31.6507C21.7492 31.564 21.5702 31.417 21.4442 31.2285C21.3182 31.04 21.251 30.8184 21.251 30.5916C21.2515 30.2878 21.3725 29.9966 21.5873 29.7818C21.8021 29.5669 22.0933 29.4459 22.3971 29.4453Z" fill="white"/>
<path d="M29.9998 26.4723C30.3888 26.4723 30.7691 26.357 31.0925 26.1409C31.416 25.9247 31.668 25.6175 31.8169 25.2581C31.9657 24.8987 32.0046 24.5033 31.9286 24.1218C31.8527 23.7403 31.6653 23.3898 31.3902 23.1148C31.1151 22.8398 30.7646 22.6526 30.3831 22.5768C30.0015 22.501 29.6061 22.54 29.2468 22.689C28.8874 22.8379 28.5803 23.0901 28.3643 23.4136C28.1483 23.7371 28.0331 24.1174 28.0332 24.5064C28.0339 25.0277 28.2414 25.5274 28.6101 25.896C28.9788 26.2645 29.4786 26.4718 29.9998 26.4723ZM29.9998 23.3594C30.2265 23.3594 30.4481 23.4266 30.6366 23.5525C30.8251 23.6784 30.9721 23.8574 31.0588 24.0669C31.1456 24.2763 31.1684 24.5067 31.1242 24.7291C31.08 24.9514 30.9709 25.1557 30.8107 25.316C30.6504 25.4764 30.4462 25.5856 30.2239 25.6299C30.0016 25.6742 29.7711 25.6516 29.5617 25.565C29.3522 25.4783 29.1731 25.3315 29.047 25.1431C28.921 24.9547 28.8537 24.7331 28.8535 24.5064C28.8539 24.2024 28.9748 23.911 29.1896 23.696C29.4045 23.481 29.6959 23.3599 29.9998 23.3594Z" fill="white"/>
<path d="M37.6021 32.5583C37.9911 32.5583 38.3714 32.443 38.6948 32.227C39.0183 32.0109 39.2704 31.7038 39.4193 31.3444C39.5681 30.9851 39.6071 30.5896 39.5313 30.2081C39.4554 29.8266 39.2681 29.4762 38.9931 29.2011C38.7181 28.926 38.3676 28.7387 37.9861 28.6628C37.6046 28.5869 37.2092 28.6258 36.8498 28.7747C36.4905 28.9235 36.1833 29.1756 35.9672 29.499C35.7511 29.8224 35.6357 30.2027 35.6357 30.5916C35.6363 31.113 35.8436 31.6129 36.2123 31.9816C36.5809 32.3503 37.0808 32.5577 37.6021 32.5583ZM37.6021 29.4453C37.8289 29.4453 38.0505 29.5125 38.2391 29.6384C38.4276 29.7643 38.5746 29.9433 38.6614 30.1528C38.7482 30.3623 38.7709 30.5928 38.7267 30.8151C38.6825 31.0375 38.5734 31.2418 38.413 31.4021C38.2527 31.5625 38.0485 31.6717 37.8261 31.7159C37.6037 31.7602 37.3732 31.7375 37.1638 31.6507C36.9543 31.564 36.7752 31.417 36.6493 31.2285C36.5233 31.04 36.4561 30.8184 36.4561 30.5916C36.4566 30.2878 36.5775 29.9966 36.7923 29.7818C37.0071 29.5669 37.2983 29.4459 37.6021 29.4453Z" fill="white"/>
</g>
<defs>
<clipPath id="clip0_5704_172">
<rect width="30" height="30" fill="white" transform="translate(15 15.0391)"/>
</clipPath>
</defs>
</svg>
