<svg width="114" height="49" viewBox="0 0 114 49" fill="none" xmlns="http://www.w3.org/2000/svg">
<path d="M12.3085 14.0859V23.1737H3.96242V14.0859H0V35.7792H3.96242V26.9866H12.3085V35.7792H16.2709V14.0859H12.3085Z" fill="#33475B"/>
<path d="M28.9522 28.7664C28.9522 29.6358 28.6068 30.4696 27.9921 31.0843C27.3773 31.6991 26.5435 32.0445 25.6741 32.0445C24.8047 32.0445 23.971 31.6991 23.3562 31.0843C22.7414 30.4696 22.3961 29.6358 22.3961 28.7664V19.4748H18.6375V28.7664C18.6375 30.6308 19.3781 32.4189 20.6965 33.7372C22.0149 35.0556 23.8029 35.7962 25.6673 35.7962C27.5318 35.7962 29.3198 35.0556 30.6382 33.7372C31.9565 32.4189 32.6972 30.6308 32.6972 28.7664V19.4748H28.9522V28.7664Z" fill="#33475B"/>
<path d="M56.8007 20.4324C56.8007 18.5279 58.0606 17.9241 59.441 17.9241C60.5534 17.9241 62.0231 18.7706 62.9841 19.7976L65.4458 16.8971C64.2169 15.2353 61.7241 14.086 59.6837 14.086C55.6067 14.086 52.6577 16.4739 52.6577 20.4324C52.6577 27.7768 61.6348 25.4471 61.6348 29.557C61.6348 30.8248 60.4039 31.945 58.9945 31.945C56.7715 31.945 56.0513 30.8578 55.0301 29.7085L52.2985 32.5487C54.0458 34.694 56.2008 35.7831 58.7828 35.7831C62.656 35.7831 65.7719 33.3661 65.7719 29.5881C65.7719 21.4342 56.7948 23.9677 56.7948 20.4324" fill="#33475B"/>
<path d="M112.337 32.3136C110.116 32.3136 109.485 31.3526 109.485 29.881V23.3676H112.937V20.0672H109.485V15.7126L105.674 17.423V30.6906C105.674 34.0842 108.015 35.7945 111.226 35.7945C111.73 35.8037 112.233 35.7634 112.729 35.6742L113.659 32.2515C113.239 32.2806 112.758 32.3097 112.337 32.3097" fill="#33475B"/>
<path d="M43.2594 19.5844C41.3976 19.5844 40.0988 20.1241 38.8427 21.3569V14.2164H35.0783V27.451C35.0783 32.4054 38.6602 35.799 42.6847 35.799C47.15 35.799 51.0774 32.3452 51.0774 27.6936C51.0774 23.1003 47.4625 19.5863 43.2594 19.5863V19.5844ZM43.2361 32.0113C42.3913 32.0113 41.5656 31.7608 40.8632 31.2915C40.1608 30.8222 39.6134 30.1551 39.2901 29.3747C38.9668 28.5943 38.8822 27.7355 39.0471 26.907C39.2119 26.0785 39.6186 25.3174 40.216 24.7201C40.8133 24.1228 41.5743 23.716 42.4028 23.5512C43.2313 23.3864 44.0901 23.471 44.8706 23.7942C45.651 24.1175 46.3181 24.665 46.7874 25.3673C47.2567 26.0697 47.5072 26.8955 47.5072 27.7402C47.5072 28.873 47.0572 29.9594 46.2562 30.7604C45.4552 31.5613 44.3688 32.0113 43.2361 32.0113Z" fill="#33475B"/>
<path d="M84.1336 27.4948C84.1336 22.8354 80.2139 19.3894 75.7409 19.3894C71.7164 19.3894 68.1345 22.783 68.1345 27.7374V40.9798H71.8989V33.8296C73.153 35.0604 74.4538 35.6021 76.3136 35.6021C80.5168 35.6021 84.1317 32.0901 84.1317 27.4948H84.1336ZM80.5692 27.4482C80.5692 28.2929 80.3187 29.1187 79.8494 29.8211C79.3801 30.5234 78.713 31.0709 77.9326 31.3942C77.1521 31.7174 76.2934 31.802 75.4648 31.6372C74.6363 31.4724 73.8753 31.0656 73.278 30.4683C72.6806 29.871 72.2739 29.1099 72.1091 28.2814C71.9443 27.4529 72.0288 26.5941 72.3521 25.8137C72.6754 25.0333 73.2228 24.3662 73.9252 23.8969C74.6276 23.4276 75.4533 23.1771 76.2981 23.1771C77.4309 23.1771 78.5172 23.6271 79.3182 24.4281C80.1192 25.229 80.5692 26.3154 80.5692 27.4482Z" fill="#33475B"/>
<path d="M96.2563 19.3301V15.5871C96.751 15.3561 97.1698 14.9892 97.464 14.5293C97.7583 14.0694 97.9157 13.5354 97.9182 12.9895V12.9021C97.9161 12.1392 97.6121 11.408 97.0726 10.8685C96.5331 10.329 95.802 10.0251 95.0391 10.023H94.9517C94.1887 10.0251 93.4576 10.329 92.9181 10.8685C92.3786 11.408 92.0746 12.1392 92.0726 12.9021V12.9895C92.075 13.5354 92.2325 14.0694 92.5267 14.5293C92.8209 14.9892 93.2398 15.3561 93.7344 15.5871V19.3301C92.3123 19.5476 90.9728 20.137 89.8516 21.0386L79.5738 13.0419C79.647 12.7781 79.6861 12.506 79.6903 12.2323C79.6911 11.5899 79.5013 10.9617 79.1451 10.4272C78.7888 9.89264 78.282 9.47574 77.6888 9.2292C77.0956 8.98265 76.4427 8.91755 75.8125 9.04212C75.1823 9.16669 74.6032 9.47534 74.1484 9.92904C73.6936 10.3827 73.3836 10.9611 73.2575 11.591C73.1314 12.2209 73.195 12.874 73.4401 13.4678C73.6852 14.0616 74.1009 14.5693 74.6346 14.9269C75.1683 15.2844 75.796 15.4757 76.4384 15.4764C77.0027 15.4743 77.5564 15.3237 78.044 15.0396L88.149 22.9062C87.2388 24.2793 86.764 25.8951 86.7865 27.5423C86.809 29.1896 87.3278 30.7918 88.2752 32.1395L85.2 35.2147C84.9531 35.1361 84.6961 35.0943 84.437 35.0905C83.9091 35.0905 83.393 35.247 82.954 35.5404C82.515 35.8337 82.1728 36.2506 81.9708 36.7384C81.7687 37.2261 81.7159 37.7629 81.8189 38.2807C81.9219 38.7985 82.1761 39.2742 82.5494 39.6475C82.9228 40.0208 83.3984 40.2751 83.9162 40.3781C84.4341 40.4811 84.9708 40.4282 85.4586 40.2261C85.9464 40.0241 86.3633 39.682 86.6566 39.243C86.9499 38.804 87.1065 38.2879 87.1065 37.7599C87.1029 37.5008 87.061 37.2437 86.9822 36.9969L90.0244 33.9547C91.0175 34.7133 92.1707 35.2349 93.3961 35.4797C94.6215 35.7246 95.8866 35.6863 97.0949 35.3676C98.3032 35.049 99.4228 34.4585 100.368 33.6412C101.313 32.8239 102.059 31.8014 102.549 30.6518C103.039 29.5022 103.26 28.2559 103.195 27.008C103.129 25.7601 102.78 24.5436 102.173 23.4513C101.566 22.3591 100.717 21.42 99.6917 20.7058C98.6663 19.9915 97.4913 19.521 96.2563 19.3301ZM94.9963 31.6425C94.1639 31.6425 93.3501 31.3957 92.658 30.9332C91.9658 30.4707 91.4263 29.8134 91.1078 29.0443C90.7892 28.2752 90.7058 27.4289 90.8682 26.6124C91.0307 25.796 91.4315 25.046 92.0202 24.4574C92.6088 23.8687 93.3588 23.4679 94.1752 23.3055C94.9917 23.1431 95.838 23.2264 96.607 23.545C97.3761 23.8635 98.0335 24.403 98.496 25.0952C98.9585 25.7873 99.2053 26.6011 99.2053 27.4336C99.2053 28.5498 98.7619 29.6204 97.9725 30.4097C97.1832 31.1991 96.1126 31.6425 94.9963 31.6425Z" fill="#FF7A59"/>
</svg>
