<svg width="160" height="169" viewBox="0 0 160 169" fill="none" xmlns="http://www.w3.org/2000/svg">
<rect y="0.960938" width="160" height="168" rx="10" fill="#83CD20"/>
<g clip-path="url(#clip0_1041_48)">
<path d="M108.249 71.3691C108.249 68.6678 107.448 66.0272 105.947 63.7811C104.447 61.5351 102.314 59.7844 99.818 58.7507C97.3224 57.7169 94.5762 57.4464 91.9269 57.9733C89.2775 58.5003 86.8439 59.8011 84.9338 61.7112C83.0237 63.6213 81.723 66.0549 81.196 68.7042C80.669 71.3536 80.9395 74.0997 81.9733 76.5953C83.0071 79.091 84.7577 81.224 87.0038 82.7247C89.2498 84.2253 91.8905 85.0263 94.5917 85.0262C98.2126 85.0221 101.684 83.582 104.244 81.0217C106.805 78.4613 108.245 74.9899 108.249 71.3691ZM82.7115 71.3691C82.7114 69.0194 83.408 66.7224 84.7134 64.7686C86.0188 62.8148 87.8742 61.292 90.045 60.3928C92.2158 59.4935 94.6046 59.2582 96.9091 59.7165C99.2137 60.1748 101.331 61.3063 102.992 62.9678C104.654 64.6292 105.785 66.7461 106.244 69.0506C106.702 71.3552 106.467 73.744 105.568 75.9148C104.669 78.0857 103.146 79.9412 101.192 81.2466C99.2384 82.5521 96.9414 83.2488 94.5917 83.2488C91.4421 83.2452 88.4225 81.9924 86.1953 79.7654C83.9681 77.5383 82.7152 74.5187 82.7115 71.3691Z" fill="white"/>
<path d="M101.321 98.7301H70.662V95.7203H94.5926C94.7151 95.7199 94.8362 95.6939 94.9481 95.6441H94.9511C95.6895 95.3181 113.001 87.4632 113.001 71.3691C113.001 66.487 111.061 61.8048 107.609 58.3526C104.157 54.9004 99.4748 52.9609 94.5926 52.9609C89.7105 52.9609 85.0283 54.9004 81.576 58.3526C78.1238 61.8048 76.1844 66.487 76.1844 71.3691C76.1844 79.7343 80.8614 85.8687 85.4566 89.8804H70.2811C68.8338 89.882 67.4462 90.4577 66.4228 91.4811C65.3994 92.5045 64.8237 93.8921 64.8221 95.3394V99.1094C64.8237 100.557 65.3994 101.944 66.4228 102.968C67.4462 103.991 68.8338 104.567 70.2811 104.568H100.94V107.2H63.1082C62.4299 105.51 61.1844 104.109 59.5856 103.238C57.9867 102.366 56.1343 102.078 54.3463 102.424C52.5583 102.769 50.9464 103.726 49.7873 105.131C48.6281 106.535 47.9941 108.299 47.9941 110.12C47.9941 111.941 48.6281 113.706 49.7873 115.11C50.9464 116.515 52.5583 117.472 54.3463 117.817C56.1343 118.163 57.9867 117.875 59.5856 117.003C61.1844 116.131 62.4299 114.73 63.1082 113.04H101.321C102.768 113.039 104.156 112.463 105.179 111.44C106.203 110.416 106.779 109.029 106.78 107.581V104.188C106.778 102.74 106.202 101.353 105.179 100.33C104.156 99.3071 102.768 98.7317 101.321 98.7301ZM77.9618 71.3691C77.9618 66.9584 79.7139 62.7282 82.8328 59.6093C85.9517 56.4905 90.1818 54.7383 94.5926 54.7383C99.0034 54.7383 103.234 56.4905 106.352 59.6093C109.471 62.7282 111.223 66.9584 111.223 71.3691C111.223 85.0714 97.0504 92.6399 94.5921 93.8485C92.1323 92.6419 77.9618 85.0907 77.9618 71.3691ZM55.8399 116.185C54.641 116.185 53.4689 115.83 52.472 115.164C51.4751 114.497 50.6981 113.551 50.2392 112.443C49.7803 111.335 49.6602 110.116 49.8941 108.941C50.1279 107.765 50.7052 106.684 51.5529 105.837C52.4006 104.989 53.4807 104.411 54.6566 104.177C55.8325 103.943 57.0514 104.063 58.1591 104.522C59.2669 104.98 60.2138 105.757 60.88 106.754C61.5463 107.751 61.902 108.923 61.9022 110.122C61.9007 111.729 61.2616 113.271 60.125 114.407C58.9885 115.544 57.4474 116.183 55.8399 116.185ZM105.003 107.583C105.002 108.559 104.613 109.495 103.923 110.185C103.233 110.875 102.297 111.263 101.321 111.264H63.5866C63.7105 110.508 63.7105 109.736 63.5866 108.979H101.321C101.691 108.979 102.046 108.832 102.308 108.57C102.57 108.308 102.717 107.953 102.718 107.583V104.189C102.717 103.819 102.57 103.464 102.308 103.202C102.046 102.94 101.691 102.793 101.321 102.793H70.2811C69.305 102.792 68.3692 102.403 67.679 101.713C66.9888 101.023 66.6005 100.087 66.5995 99.1109V95.3409C66.6005 94.3648 66.9888 93.429 67.679 92.7388C68.3692 92.0486 69.305 91.6604 70.2811 91.6593H87.6529C88.7454 92.4777 89.8786 93.2404 91.0481 93.9445H70.2811C69.9108 93.9447 69.5558 94.0919 69.2939 94.3538C69.0321 94.6156 68.8849 94.9707 68.8846 95.3409V99.1109C68.885 99.4812 69.0323 99.8362 69.2941 100.098C69.5559 100.36 69.9108 100.507 70.2811 100.507H101.321C102.297 100.509 103.233 100.897 103.923 101.587C104.613 102.277 105.002 103.213 105.003 104.189V107.583Z" fill="white"/>
</g>
<mask id="path-4-outside-1_1041_48" maskUnits="userSpaceOnUse" x="13" y="16.9609" width="39" height="26" fill="black">
<rect fill="white" x="13" y="16.9609" width="39" height="26"/>
<path d="M23.77 41.3209C21.99 41.3209 20.43 40.8409 19.09 39.8809C17.75 38.9009 16.7 37.5509 15.94 35.8309C15.2 34.0909 14.83 32.0709 14.83 29.7709C14.83 27.4509 15.2 25.4309 15.94 23.7109C16.7 21.9909 17.74 20.6509 19.06 19.6909C20.4 18.7309 21.96 18.2509 23.74 18.2509C25.52 18.2509 27.07 18.7309 28.39 19.6909C29.73 20.6509 30.77 22.0009 31.51 23.7409C32.27 25.4609 32.65 27.4709 32.65 29.7709C32.65 32.0709 32.28 34.0909 31.54 35.8309C30.8 37.5509 29.76 38.9009 28.42 39.8809C27.1 40.8409 25.55 41.3209 23.77 41.3209ZM23.77 38.0809C24.87 38.0809 25.82 37.7409 26.62 37.0609C27.42 36.3809 28.04 35.4209 28.48 34.1809C28.92 32.9409 29.14 31.4709 29.14 29.7709C29.14 28.0709 28.92 26.6009 28.48 25.3609C28.04 24.1209 27.42 23.1609 26.62 22.4809C25.82 21.8009 24.86 21.4609 23.74 21.4609C22.64 21.4609 21.69 21.8009 20.89 22.4809C20.09 23.1609 19.47 24.1209 19.03 25.3609C18.59 26.6009 18.37 28.0709 18.37 29.7709C18.37 31.4509 18.59 32.9209 19.03 34.1809C19.47 35.4209 20.09 36.3809 20.89 37.0609C21.71 37.7409 22.67 38.0809 23.77 38.0809ZM35.9746 40.9609V38.4109L42.0946 31.8709C43.2946 30.5909 44.2346 29.5609 44.9146 28.7809C45.6146 27.9809 46.1146 27.2809 46.4146 26.6809C46.7346 26.0809 46.8946 25.4509 46.8946 24.7909C46.8946 23.7109 46.5646 22.8809 45.9046 22.3009C45.2446 21.7009 44.3946 21.4009 43.3546 21.4009C42.2746 21.4009 41.3446 21.7109 40.5646 22.3309C39.7846 22.9309 39.2446 23.8109 38.9446 24.9709L35.8246 24.0709C36.0646 22.8909 36.5446 21.8709 37.2646 21.0109C37.9846 20.1309 38.8646 19.4509 39.9046 18.9709C40.9646 18.4909 42.1046 18.2509 43.3246 18.2509C44.7446 18.2509 45.9846 18.5209 47.0446 19.0609C48.1046 19.5809 48.9246 20.3109 49.5046 21.2509C50.1046 22.1909 50.4046 23.2809 50.4046 24.5209C50.4046 25.3409 50.2446 26.1409 49.9246 26.9209C49.6246 27.6809 49.1546 28.4909 48.5146 29.3509C47.8746 30.1909 47.0546 31.1409 46.0546 32.2009L40.6546 37.9609H50.8246V40.9609H35.9746Z"/>
</mask>
<path d="M19.09 39.8809L18.4997 40.6881L18.5076 40.6938L19.09 39.8809ZM15.94 35.8309L15.0197 36.2223L15.0253 36.2351L15.94 35.8309ZM15.94 23.7109L15.0253 23.3068L15.0214 23.3157L15.94 23.7109ZM19.06 19.6909L18.4776 18.878L18.4718 18.8822L19.06 19.6909ZM28.39 19.6909L27.8018 20.4997L27.8076 20.5038L28.39 19.6909ZM31.51 23.7409L30.5897 24.1323L30.5953 24.1451L31.51 23.7409ZM31.54 35.8309L32.4586 36.2261L32.4602 36.2223L31.54 35.8309ZM28.42 39.8809L29.0082 40.6897L29.0103 40.6881L28.42 39.8809ZM26.62 37.0609L25.9724 36.299L26.62 37.0609ZM28.48 25.3609L29.4224 25.0265L28.48 25.3609ZM26.62 22.4809L27.2676 21.719L27.2676 21.719L26.62 22.4809ZM20.89 22.4809L20.2424 21.719L20.2424 21.719L20.89 22.4809ZM19.03 25.3609L18.0876 25.0265L19.03 25.3609ZM19.03 34.1809L18.0859 34.5106L18.0876 34.5153L19.03 34.1809ZM20.89 37.0609L20.2423 37.8229L20.2517 37.8307L20.89 37.0609ZM23.77 40.3209C22.1813 40.3209 20.8288 39.8965 19.6724 39.068L18.5076 40.6938C20.0312 41.7854 21.7987 42.3209 23.77 42.3209V40.3209ZM19.6803 39.0738C18.4999 38.2105 17.5534 37.008 16.8547 35.4268L15.0253 36.2351C15.8466 38.0939 17.0001 39.5914 18.4997 40.6881L19.6803 39.0738ZM16.8602 35.4396C16.1829 33.847 15.83 31.9648 15.83 29.7709H13.83C13.83 32.177 14.2171 34.3348 15.0198 36.2223L16.8602 35.4396ZM15.83 29.7709C15.83 27.5553 16.1835 25.6753 16.8586 24.1061L15.0214 23.3157C14.2165 25.1866 13.83 27.3466 13.83 29.7709H15.83ZM16.8547 24.1151C17.5544 22.5315 18.4913 21.3411 19.6482 20.4997L18.4718 18.8822C16.9887 19.9608 15.8456 21.4504 15.0253 23.3068L16.8547 24.1151ZM19.6424 20.5038C20.7988 19.6754 22.1513 19.2509 23.74 19.2509V17.2509C21.7687 17.2509 20.0012 17.7865 18.4776 18.878L19.6424 20.5038ZM23.74 19.2509C25.3288 19.2509 26.6684 19.6753 27.8018 20.4997L28.9782 18.8822C27.4716 17.7865 25.7112 17.2509 23.74 17.2509V19.2509ZM27.8076 20.5038C28.9776 21.342 29.9108 22.5358 30.5898 24.1323L32.4302 23.3496C31.6292 21.466 30.4824 19.9598 28.9724 18.878L27.8076 20.5038ZM30.5953 24.1451C31.288 25.7127 31.65 27.5798 31.65 29.7709H33.65C33.65 27.3621 33.252 25.2092 32.4247 23.3368L30.5953 24.1451ZM31.65 29.7709C31.65 31.9648 31.2971 33.847 30.6198 35.4396L32.4602 36.2223C33.2629 34.3348 33.65 32.177 33.65 29.7709H31.65ZM30.6214 35.4357C29.9428 37.013 29.0077 38.2123 27.8297 39.0738L29.0103 40.6881C30.5123 39.5896 31.6572 38.0889 32.4586 36.2261L30.6214 35.4357ZM27.8318 39.0722C26.6984 39.8965 25.3588 40.3209 23.77 40.3209V42.3209C25.7412 42.3209 27.5016 41.7853 29.0082 40.6897L27.8318 39.0722ZM23.77 39.0809C25.095 39.0809 26.2777 38.6643 27.2676 37.8229L25.9724 36.299C25.3623 36.8175 24.645 37.0809 23.77 37.0809V39.0809ZM27.2676 37.8229C28.2318 37.0033 28.9383 35.8798 29.4224 34.5153L27.5376 33.8465C27.1417 34.962 26.6082 35.7585 25.9724 36.299L27.2676 37.8229ZM29.4224 34.5153C29.9098 33.1418 30.14 31.5533 30.14 29.7709H28.14C28.14 31.3886 27.9302 32.7401 27.5376 33.8465L29.4224 34.5153ZM30.14 29.7709C30.14 27.9886 29.9098 26.4001 29.4224 25.0265L27.5376 25.6953C27.9302 26.8018 28.14 28.1533 28.14 29.7709H30.14ZM29.4224 25.0265C28.9383 23.662 28.2318 22.5385 27.2676 21.719L25.9724 23.2429C26.6082 23.7833 27.1417 24.5798 27.5376 25.6953L29.4224 25.0265ZM27.2676 21.719C26.2742 20.8746 25.0802 20.4609 23.74 20.4609V22.4609C24.6398 22.4609 25.3658 22.7273 25.9724 23.2429L27.2676 21.719ZM23.74 20.4609C22.415 20.4609 21.2323 20.8775 20.2424 21.719L21.5376 23.2429C22.1477 22.7243 22.865 22.4609 23.74 22.4609V20.4609ZM20.2424 21.719C19.2782 22.5385 18.5717 23.662 18.0876 25.0265L19.9724 25.6953C20.3683 24.5798 20.9018 23.7833 21.5376 23.2429L20.2424 21.719ZM18.0876 25.0265C17.6002 26.4001 17.37 27.9886 17.37 29.7709H19.37C19.37 28.1533 19.5798 26.8018 19.9724 25.6953L18.0876 25.0265ZM17.37 29.7709C17.37 31.5354 17.6007 33.1213 18.0859 34.5106L19.9741 33.8513C19.5793 32.7206 19.37 31.3665 19.37 29.7709H17.37ZM18.0876 34.5153C18.5717 35.8798 19.2782 37.0033 20.2424 37.8229L21.5376 36.299C20.9018 35.7585 20.3683 34.962 19.9724 33.8465L18.0876 34.5153ZM20.2517 37.8307C21.2574 38.6647 22.4452 39.0809 23.77 39.0809V37.0809C22.8948 37.0809 22.1626 36.8172 21.5283 36.2912L20.2517 37.8307ZM35.9746 40.9609H34.9746V41.9609H35.9746V40.9609ZM35.9746 38.4109L35.2444 37.7277L34.9746 38.016V38.4109H35.9746ZM42.0946 31.8709L41.3651 31.187L41.3644 31.1877L42.0946 31.8709ZM44.9146 28.7809L44.162 28.1224L44.1608 28.1238L44.9146 28.7809ZM46.4146 26.6809L45.5323 26.2103L45.5261 26.222L45.5202 26.2337L46.4146 26.6809ZM45.9046 22.3009L45.2319 23.0409L45.2382 23.0465L45.2445 23.0521L45.9046 22.3009ZM40.5646 22.3309L41.1743 23.1236L41.1806 23.1187L41.1869 23.1138L40.5646 22.3309ZM38.9446 24.9709L38.6674 25.9318L39.6553 26.2167L39.9128 25.2213L38.9446 24.9709ZM35.8246 24.0709L34.8447 23.8716L34.6607 24.776L35.5474 25.0318L35.8246 24.0709ZM37.2646 21.0109L38.0314 21.6529L38.0386 21.6442L37.2646 21.0109ZM39.9046 18.9709L39.4921 18.06L39.4856 18.063L39.9046 18.9709ZM47.0446 19.0609L46.5907 19.952L46.5974 19.9554L46.6042 19.9587L47.0446 19.0609ZM49.5046 21.2509L48.6536 21.776L48.6576 21.7825L48.6617 21.789L49.5046 21.2509ZM49.9246 26.9209L48.9994 26.5413L48.9945 26.5538L49.9246 26.9209ZM48.5146 29.3509L49.3101 29.957L49.3168 29.9479L48.5146 29.3509ZM46.0546 32.2009L45.3272 31.5147L45.3251 31.517L46.0546 32.2009ZM40.6546 37.9609L39.9251 37.277L38.3464 38.9609H40.6546V37.9609ZM50.8246 37.9609H51.8246V36.9609H50.8246V37.9609ZM50.8246 40.9609V41.9609H51.8246V40.9609H50.8246ZM36.9746 40.9609V38.4109H34.9746V40.9609H36.9746ZM36.7048 39.0942L42.8248 32.5542L41.3644 31.1877L35.2444 37.7277L36.7048 39.0942ZM42.8241 32.5549C44.0276 31.2712 44.9769 30.2312 45.6684 29.4381L44.1608 28.1238C43.4923 28.8906 42.5616 29.9107 41.3651 31.187L42.8241 32.5549ZM45.6672 29.4394C46.3947 28.608 46.9555 27.8353 47.309 27.1282L45.5202 26.2337C45.2737 26.7266 44.8345 27.3539 44.162 28.1224L45.6672 29.4394ZM47.297 27.1515C47.6918 26.4113 47.8946 25.6202 47.8946 24.7909H45.8946C45.8946 25.2817 45.7774 25.7506 45.5323 26.2103L47.297 27.1515ZM47.8946 24.7909C47.8946 23.4948 47.4892 22.3622 46.5647 21.5498L45.2445 23.0521C45.64 23.3997 45.8946 23.9271 45.8946 24.7909H47.8946ZM46.5773 21.561C45.7031 20.7663 44.5994 20.4009 43.3546 20.4009V22.4009C44.1898 22.4009 44.7861 22.6356 45.2319 23.0409L46.5773 21.561ZM43.3546 20.4009C42.0689 20.4009 40.9145 20.7754 39.9424 21.5481L41.1869 23.1138C41.7747 22.6465 42.4804 22.4009 43.3546 22.4009V20.4009ZM39.9549 21.5383C38.9626 22.3016 38.3197 23.3932 37.9765 24.7206L39.9128 25.2213C40.1695 24.2287 40.6067 23.5602 41.1743 23.1236L39.9549 21.5383ZM39.2218 24.0101L36.1018 23.1101L35.5474 25.0318L38.6674 25.9318L39.2218 24.0101ZM36.8045 24.2702C37.0139 23.2409 37.4259 22.376 38.0314 21.6529L36.4979 20.369C35.6633 21.3658 35.1153 22.541 34.8447 23.8716L36.8045 24.2702ZM38.0386 21.6442C38.6619 20.8824 39.4202 20.2959 40.3237 19.8789L39.4856 18.063C38.309 18.606 37.3073 19.3795 36.4907 20.3777L38.0386 21.6442ZM40.3171 19.8819C41.2412 19.4634 42.2398 19.2509 43.3246 19.2509V17.2509C41.9694 17.2509 40.688 17.5185 39.4921 18.06L40.3171 19.8819ZM43.3246 19.2509C44.6172 19.2509 45.696 19.4962 46.5907 19.952L47.4985 18.1699C46.2732 17.5457 44.8721 17.2509 43.3246 17.2509V19.2509ZM46.6042 19.9587C47.5071 20.4017 48.1795 21.0077 48.6536 21.776L50.3556 20.7258C49.6698 19.6142 48.7021 18.7602 47.485 18.1631L46.6042 19.9587ZM48.6617 21.789C49.1479 22.5506 49.4046 23.4495 49.4046 24.5209H51.4046C51.4046 23.1123 51.0614 21.8312 50.3475 20.7129L48.6617 21.789ZM49.4046 24.5209C49.4046 25.2071 49.2715 25.8784 48.9994 26.5414L50.8498 27.3005C51.2178 26.4035 51.4046 25.4748 51.4046 24.5209H49.4046ZM48.9945 26.5538C48.735 27.211 48.3151 27.944 47.7124 28.7539L49.3168 29.9479C49.9941 29.0379 50.5142 28.1509 50.8548 27.2881L48.9945 26.5538ZM47.7192 28.7449C47.1067 29.5488 46.3115 30.4714 45.3272 31.5147L46.782 32.8872C47.7978 31.8105 48.6425 30.8331 49.31 29.957L47.7192 28.7449ZM45.3251 31.517L39.9251 37.277L41.3841 38.6449L46.7841 32.8849L45.3251 31.517ZM40.6546 38.9609H50.8246V36.9609H40.6546V38.9609ZM49.8246 37.9609V40.9609H51.8246V37.9609H49.8246ZM50.8246 39.9609H35.9746V41.9609H50.8246V39.9609Z" fill="white" mask="url(#path-4-outside-1_1041_48)"/>
<defs>
<clipPath id="clip0_1041_48">
<rect width="65" height="65" fill="white" transform="translate(48 52.9609)"/>
</clipPath>
</defs>
</svg>
