<svg width="160" height="169" viewBox="0 0 160 169" fill="none" xmlns="http://www.w3.org/2000/svg">
<rect y="0.960938" width="160" height="168" rx="10" fill="#83CD20"/>
<mask id="path-2-outside-1_1041_47" maskUnits="userSpaceOnUse" x="10" y="16.9609" width="32" height="26" fill="black">
<rect fill="white" x="10" y="16.9609" width="32" height="26"/>
<path d="M20.77 41.3209C18.99 41.3209 17.43 40.8409 16.09 39.8809C14.75 38.9009 13.7 37.5509 12.94 35.8309C12.2 34.0909 11.83 32.0709 11.83 29.7709C11.83 27.4509 12.2 25.4309 12.94 23.7109C13.7 21.9909 14.74 20.6509 16.06 19.6909C17.4 18.7309 18.96 18.2509 20.74 18.2509C22.52 18.2509 24.07 18.7309 25.39 19.6909C26.73 20.6509 27.77 22.0009 28.51 23.7409C29.27 25.4609 29.65 27.4709 29.65 29.7709C29.65 32.0709 29.28 34.0909 28.54 35.8309C27.8 37.5509 26.76 38.9009 25.42 39.8809C24.1 40.8409 22.55 41.3209 20.77 41.3209ZM20.77 38.0809C21.87 38.0809 22.82 37.7409 23.62 37.0609C24.42 36.3809 25.04 35.4209 25.48 34.1809C25.92 32.9409 26.14 31.4709 26.14 29.7709C26.14 28.0709 25.92 26.6009 25.48 25.3609C25.04 24.1209 24.42 23.1609 23.62 22.4809C22.82 21.8009 21.86 21.4609 20.74 21.4609C19.64 21.4609 18.69 21.8009 17.89 22.4809C17.09 23.1609 16.47 24.1209 16.03 25.3609C15.59 26.6009 15.37 28.0709 15.37 29.7709C15.37 31.4509 15.59 32.9209 16.03 34.1809C16.47 35.4209 17.09 36.3809 17.89 37.0609C18.71 37.7409 19.67 38.0809 20.77 38.0809ZM36.7546 40.9609V21.6109H32.4646V18.6109H40.2646V40.9609H36.7546Z"/>
</mask>
<path d="M16.09 39.8809L15.4997 40.6881L15.5076 40.6938L16.09 39.8809ZM12.94 35.8309L12.0197 36.2223L12.0253 36.2351L12.94 35.8309ZM12.94 23.7109L12.0253 23.3068L12.0214 23.3157L12.94 23.7109ZM16.06 19.6909L15.4776 18.878L15.4718 18.8822L16.06 19.6909ZM25.39 19.6909L24.8018 20.4997L24.8076 20.5038L25.39 19.6909ZM28.51 23.7409L27.5897 24.1323L27.5953 24.1451L28.51 23.7409ZM28.54 35.8309L29.4586 36.2261L29.4602 36.2223L28.54 35.8309ZM25.42 39.8809L26.0082 40.6897L26.0103 40.6881L25.42 39.8809ZM23.62 37.0609L22.9724 36.299L23.62 37.0609ZM25.48 25.3609L26.4224 25.0265L25.48 25.3609ZM23.62 22.4809L24.2676 21.719L24.2676 21.719L23.62 22.4809ZM17.89 22.4809L17.2424 21.719L17.2424 21.719L17.89 22.4809ZM16.03 25.3609L15.0876 25.0265L16.03 25.3609ZM16.03 34.1809L15.0859 34.5106L15.0876 34.5153L16.03 34.1809ZM17.89 37.0609L17.2423 37.8229L17.2517 37.8307L17.89 37.0609ZM20.77 40.3209C19.1813 40.3209 17.8288 39.8965 16.6724 39.068L15.5076 40.6938C17.0312 41.7854 18.7987 42.3209 20.77 42.3209V40.3209ZM16.6803 39.0738C15.4999 38.2105 14.5534 37.008 13.8547 35.4268L12.0253 36.2351C12.8466 38.0939 14.0001 39.5914 15.4997 40.6881L16.6803 39.0738ZM13.8602 35.4396C13.1829 33.847 12.83 31.9648 12.83 29.7709H10.83C10.83 32.177 11.2171 34.3348 12.0198 36.2223L13.8602 35.4396ZM12.83 29.7709C12.83 27.5553 13.1835 25.6753 13.8586 24.1061L12.0214 23.3157C11.2165 25.1866 10.83 27.3466 10.83 29.7709H12.83ZM13.8547 24.1151C14.5544 22.5315 15.4913 21.3411 16.6482 20.4997L15.4718 18.8822C13.9887 19.9608 12.8456 21.4504 12.0253 23.3068L13.8547 24.1151ZM16.6424 20.5038C17.7988 19.6754 19.1513 19.2509 20.74 19.2509V17.2509C18.7687 17.2509 17.0012 17.7865 15.4776 18.878L16.6424 20.5038ZM20.74 19.2509C22.3288 19.2509 23.6684 19.6753 24.8018 20.4997L25.9782 18.8822C24.4716 17.7865 22.7112 17.2509 20.74 17.2509V19.2509ZM24.8076 20.5038C25.9776 21.342 26.9108 22.5358 27.5898 24.1323L29.4302 23.3496C28.6292 21.466 27.4824 19.9598 25.9724 18.878L24.8076 20.5038ZM27.5953 24.1451C28.288 25.7127 28.65 27.5798 28.65 29.7709H30.65C30.65 27.3621 30.252 25.2092 29.4247 23.3368L27.5953 24.1451ZM28.65 29.7709C28.65 31.9648 28.2971 33.847 27.6198 35.4396L29.4602 36.2223C30.2629 34.3348 30.65 32.177 30.65 29.7709H28.65ZM27.6214 35.4357C26.9428 37.013 26.0077 38.2123 24.8297 39.0738L26.0103 40.6881C27.5123 39.5896 28.6572 38.0889 29.4586 36.2261L27.6214 35.4357ZM24.8318 39.0722C23.6984 39.8965 22.3588 40.3209 20.77 40.3209V42.3209C22.7412 42.3209 24.5016 41.7853 26.0082 40.6897L24.8318 39.0722ZM20.77 39.0809C22.095 39.0809 23.2777 38.6643 24.2676 37.8229L22.9724 36.299C22.3623 36.8175 21.645 37.0809 20.77 37.0809V39.0809ZM24.2676 37.8229C25.2318 37.0033 25.9383 35.8798 26.4224 34.5153L24.5376 33.8465C24.1417 34.962 23.6082 35.7585 22.9724 36.299L24.2676 37.8229ZM26.4224 34.5153C26.9098 33.1418 27.14 31.5533 27.14 29.7709H25.14C25.14 31.3886 24.9302 32.7401 24.5376 33.8465L26.4224 34.5153ZM27.14 29.7709C27.14 27.9886 26.9098 26.4001 26.4224 25.0265L24.5376 25.6953C24.9302 26.8018 25.14 28.1533 25.14 29.7709H27.14ZM26.4224 25.0265C25.9383 23.662 25.2318 22.5385 24.2676 21.719L22.9724 23.2429C23.6082 23.7833 24.1417 24.5798 24.5376 25.6953L26.4224 25.0265ZM24.2676 21.719C23.2742 20.8746 22.0802 20.4609 20.74 20.4609V22.4609C21.6398 22.4609 22.3658 22.7273 22.9724 23.2429L24.2676 21.719ZM20.74 20.4609C19.415 20.4609 18.2323 20.8775 17.2424 21.719L18.5376 23.2429C19.1477 22.7243 19.865 22.4609 20.74 22.4609V20.4609ZM17.2424 21.719C16.2782 22.5385 15.5717 23.662 15.0876 25.0265L16.9724 25.6953C17.3683 24.5798 17.9018 23.7833 18.5376 23.2429L17.2424 21.719ZM15.0876 25.0265C14.6002 26.4001 14.37 27.9886 14.37 29.7709H16.37C16.37 28.1533 16.5798 26.8018 16.9724 25.6953L15.0876 25.0265ZM14.37 29.7709C14.37 31.5354 14.6007 33.1213 15.0859 34.5106L16.9741 33.8513C16.5793 32.7206 16.37 31.3665 16.37 29.7709H14.37ZM15.0876 34.5153C15.5717 35.8798 16.2782 37.0033 17.2424 37.8229L18.5376 36.299C17.9018 35.7585 17.3683 34.962 16.9724 33.8465L15.0876 34.5153ZM17.2517 37.8307C18.2574 38.6647 19.4452 39.0809 20.77 39.0809V37.0809C19.8948 37.0809 19.1626 36.8172 18.5283 36.2912L17.2517 37.8307ZM36.7546 40.9609H35.7546V41.9609H36.7546V40.9609ZM36.7546 21.6109H37.7546V20.6109H36.7546V21.6109ZM32.4646 21.6109H31.4646V22.6109H32.4646V21.6109ZM32.4646 18.6109V17.6109H31.4646V18.6109H32.4646ZM40.2646 18.6109H41.2646V17.6109H40.2646V18.6109ZM40.2646 40.9609V41.9609H41.2646V40.9609H40.2646ZM37.7546 40.9609V21.6109H35.7546V40.9609H37.7546ZM36.7546 20.6109H32.4646V22.6109H36.7546V20.6109ZM33.4646 21.6109V18.6109H31.4646V21.6109H33.4646ZM32.4646 19.6109H40.2646V17.6109H32.4646V19.6109ZM39.2646 18.6109V40.9609H41.2646V18.6109H39.2646ZM40.2646 39.9609H36.7546V41.9609H40.2646V39.9609Z" fill="white" mask="url(#path-2-outside-1_1041_47)"/>
<g clip-path="url(#clip0_1041_47)">
<path d="M105.374 91.8912C107.512 85.5901 107.456 78.7509 105.214 72.4861C102.971 66.2213 98.6756 60.8993 93.0249 57.3859C87.3742 53.8724 80.7009 52.3741 74.0906 53.1347C67.4802 53.8952 61.3216 56.8699 56.6165 61.5749C51.9114 66.2799 48.9365 72.4384 48.1758 79.0488C47.415 85.6591 48.9131 92.3324 52.4264 97.9832C55.9398 103.634 61.2616 107.93 67.5264 110.172C73.7911 112.415 80.6303 112.471 86.9314 110.333C87.9034 112.286 89.3261 113.98 91.0819 115.275C92.8377 116.57 94.8763 117.428 97.0294 117.78C99.1824 118.131 101.388 117.965 103.465 117.296C105.541 116.627 107.428 115.473 108.971 113.931C110.514 112.388 111.667 110.501 112.337 108.425C113.006 106.348 113.172 104.142 112.82 101.989C112.469 99.8363 111.61 97.7976 110.316 96.0418C109.021 94.2859 107.327 92.8632 105.374 91.8912ZM103.732 91.2005C100.353 90.0287 96.6488 90.224 93.4111 91.7449L94.7136 89.4714C94.7906 89.3369 94.8311 89.1846 94.8309 89.0296V84.8275L97.5924 81.9868C97.7538 81.821 97.844 81.5986 97.8438 81.3672V77.7521C97.8438 77.5581 97.7802 77.3694 97.6629 77.2148C97.5455 77.0603 97.3807 76.9485 97.1938 76.8965L92.3188 75.5376L90.516 72.0103C90.4522 71.8855 90.3598 71.7776 90.2463 71.6954C90.1328 71.6131 90.0014 71.5588 89.863 71.537L82.9517 70.4498V69.7713L92.2812 67.7066L95.7673 71.1902C95.9342 71.3568 96.1602 71.4505 96.396 71.4507H102.886C105.591 77.7042 105.893 84.7364 103.732 91.1985V91.2005ZM102.036 69.6754H96.7637L93.1953 66.1054C93.0896 65.9999 92.9592 65.9227 92.8158 65.8808C92.6725 65.8389 92.521 65.8337 92.3751 65.8658L81.871 68.19C81.6736 68.2338 81.4969 68.3436 81.3703 68.5013C81.2436 68.659 81.1745 68.8551 81.1743 69.0574V71.2095C81.1744 71.4212 81.2501 71.6259 81.3877 71.7867C81.5253 71.9476 81.7158 72.0541 81.9249 72.087L89.1394 73.2214L90.9132 76.6928C90.969 76.8022 91.0469 76.8988 91.142 76.9765C91.2371 77.0542 91.3473 77.1113 91.4657 77.1443L96.0664 78.4265V81.0062L93.305 83.8469C93.1438 84.0128 93.0536 84.2351 93.0536 84.4664V88.7925L90.1194 93.9158C88.932 94.9691 87.9344 96.2185 87.1701 97.6096H85.1896V94.7969C85.1896 94.6737 85.164 94.5519 85.1144 94.4391C85.0648 94.3263 84.9924 94.2251 84.9017 94.1418L81.0585 90.6181V86.5322C81.0585 86.3498 81.0024 86.1719 80.8977 86.0225C80.7931 85.8731 80.645 85.7596 80.4735 85.6974L72.5354 82.811V76.2094L77.7222 70.6087C77.8063 70.518 77.8704 70.4107 77.9106 70.2938C77.9509 70.1769 77.9662 70.0528 77.9558 69.9296C77.9453 69.8064 77.9092 69.6867 77.8499 69.5782C77.7905 69.4697 77.7091 69.3748 77.611 69.2996L72.867 65.6606L76.7548 60.1762H84.6884C84.924 60.1761 85.15 60.0824 85.3166 59.9157L88.2913 56.9415C94.2056 59.4719 99.0619 63.9712 102.036 69.6754ZM59.5918 61.3046L61.8231 65.9008L60.0265 66.7996C59.9382 66.8437 59.8579 66.9023 59.7888 66.9728L55.5709 71.2765C55.4544 71.3954 55.3735 71.5446 55.3376 71.7072C55.3017 71.8698 55.3122 72.0392 55.3678 72.1962L55.9726 73.8963C55.2793 74.3236 54.6514 74.8488 54.1084 75.4558L50.5248 76.0591C51.8938 70.2988 55.0713 65.1282 59.5918 61.3046ZM49.7839 82.6865H52.6952L60.0407 85.4496L63.7985 91.8114V94.3576L62.6976 96.0293C62.5769 96.2121 62.5281 96.433 62.5604 96.6496C62.5928 96.8663 62.704 97.0633 62.8728 97.2029L63.1521 97.4334L60.4866 99.0269C60.3547 99.1057 60.2456 99.2173 60.1698 99.3507C60.094 99.4842 60.054 99.6351 60.0539 99.7887V103.934C56.8802 101.37 54.3135 98.1347 52.5378 94.4611C50.7622 90.7876 49.8217 86.7665 49.7839 82.6865ZM77.4683 110.119C71.8827 110.124 66.4277 108.43 61.8277 105.261C61.8277 105.25 61.8307 105.24 61.8307 105.228V100.294L65.1427 98.3135C65.2649 98.2406 65.3679 98.1394 65.4429 98.0184C65.5178 97.8974 65.5626 97.7602 65.5735 97.6183C65.5843 97.4764 65.5609 97.3339 65.5052 97.203C65.4495 97.072 65.3631 96.9563 65.2534 96.8657L64.6196 96.3411L65.4286 95.1132C65.5245 94.9682 65.5756 94.7981 65.5753 94.6242V91.5682C65.5755 91.4094 65.5329 91.2534 65.4519 91.1167L61.4118 84.2765C61.3087 84.102 61.1491 83.9679 60.9593 83.8967L53.1695 80.9661C53.0695 80.9285 52.9635 80.9092 52.8567 80.9092H49.8205C49.8763 79.909 49.986 78.9126 50.149 77.9243L54.7193 77.1555C54.9304 77.1199 55.1215 77.0094 55.2576 76.8442C55.8604 76.1144 56.6106 75.5201 57.459 75.1003C57.6532 75.0034 57.8051 74.8387 57.8862 74.6374C57.9673 74.4361 57.972 74.212 57.8992 74.0075L57.2289 72.1225L60.9542 68.3215L63.4034 67.0967C63.6126 66.992 63.7721 66.8091 63.8474 66.5877C63.9227 66.3662 63.9077 66.124 63.8056 65.9135L61.0167 60.1706C64.6213 57.4973 68.8232 55.7429 73.2586 55.0593C77.694 54.3758 82.2291 54.7837 86.4713 56.2478L84.3202 58.3989H76.2953C76.1533 58.3989 76.0133 58.433 75.8872 58.4982C75.761 58.5634 75.6523 58.6578 75.5701 58.7737L70.9221 65.331C70.7893 65.5186 70.7343 65.7503 70.7686 65.9776C70.803 66.2048 70.9241 66.4099 71.1064 66.5498L75.7555 70.1156L70.9952 75.2527C70.8428 75.417 70.7581 75.6328 70.7581 75.857V83.4335C70.7581 83.6159 70.8142 83.7939 70.9189 83.9432C71.0235 84.0926 71.1716 84.2061 71.3431 84.2684L79.2812 87.1548V91.0091C79.2812 91.1323 79.3068 91.2541 79.3564 91.3669C79.406 91.4796 79.4784 91.5809 79.5691 91.6642L83.4128 95.1874V98.4983C83.4128 98.734 83.5064 98.96 83.673 99.1267C83.8397 99.2934 84.0657 99.387 84.3014 99.387H86.3565C85.235 102.381 85.1942 105.672 86.2413 108.693C83.4131 109.639 80.4505 110.12 77.4683 110.119ZM99.2423 116.182C96.8727 116.182 94.5562 115.48 92.5859 114.163C90.6156 112.847 89.0799 110.976 88.173 108.787C87.2662 106.597 87.0289 104.188 87.4911 101.864C87.9534 99.5402 89.0945 97.4054 90.7701 95.7298C92.4456 94.0543 94.5805 92.9132 96.9046 92.4509C99.2287 91.9886 101.638 92.2259 103.827 93.1328C106.016 94.0397 107.887 95.5754 109.204 97.5457C110.52 99.516 111.223 101.832 111.223 104.202C111.219 107.378 109.956 110.423 107.71 112.669C105.464 114.915 102.419 116.179 99.2423 116.182Z" fill="white"/>
<path d="M108.757 99.1786L107.627 98.0482C107.076 97.4971 106.329 97.1875 105.549 97.1875C104.77 97.1875 104.022 97.4971 103.471 98.0482L101.101 100.418L97.0585 99.4823C96.5161 99.355 95.9502 99.3687 95.4146 99.5221C94.879 99.6755 94.3916 99.9636 93.9989 100.359L93.0651 101.293C92.9626 101.395 92.8867 101.521 92.844 101.659C92.8012 101.798 92.7929 101.944 92.8197 102.086C92.8465 102.229 92.9077 102.362 92.9979 102.475C93.0881 102.589 93.2046 102.678 93.3373 102.736L97.1281 104.391L95.6351 105.884L92.085 106.213C91.8788 106.231 91.6855 106.321 91.5386 106.467L89.7267 108.278C89.6173 108.388 89.5385 108.524 89.4979 108.673C89.4573 108.823 89.4564 108.98 89.4954 109.13C89.5343 109.28 89.6117 109.417 89.7199 109.528C89.828 109.638 89.9633 109.719 90.1121 109.761L94.5464 111.023C95.4009 111.266 96.3049 111.276 97.1649 111.053C98.0248 110.83 98.8096 110.381 99.4381 109.753L108.757 100.434C108.84 100.352 108.905 100.254 108.95 100.146C108.994 100.038 109.017 99.9229 109.017 99.8063C109.017 99.6896 108.994 99.574 108.95 99.4662C108.905 99.3585 108.84 99.261 108.757 99.1786ZM98.1813 108.497C97.7769 108.901 97.2718 109.19 96.7183 109.334C96.1648 109.478 95.5829 109.471 95.0328 109.315L92.054 108.468L92.5689 107.953L96.1191 107.624C96.3253 107.605 96.5186 107.516 96.6655 107.37L99.3061 104.729C99.4084 104.627 99.4842 104.501 99.5268 104.363C99.5695 104.225 99.5778 104.078 99.5509 103.936C99.524 103.794 99.4628 103.66 99.3726 103.547C99.2824 103.434 99.166 103.345 99.0334 103.287L95.2431 101.631L95.2563 101.618C95.436 101.436 95.6591 101.304 95.9045 101.234C96.1498 101.164 96.409 101.158 96.6573 101.216L101.18 102.264C101.327 102.298 101.48 102.294 101.625 102.252C101.77 102.21 101.902 102.133 102.009 102.026L104.728 99.3076C104.949 99.096 105.243 98.9778 105.549 98.9778C105.855 98.9778 106.149 99.096 106.37 99.3076L106.872 99.8093L98.1813 108.497Z" fill="white"/>
</g>
<defs>
<clipPath id="clip0_1041_47">
<rect width="65" height="65" fill="white" transform="translate(48 52.9609)"/>
</clipPath>
</defs>
</svg>
