<svg width="60" height="61" viewBox="0 0 60 61" fill="none" xmlns="http://www.w3.org/2000/svg">
<rect x="-0.000976562" y="0.0390625" width="60" height="60" rx="30" fill="#83CD20"/>
<path d="M43.1836 18.2031H16.8164C16.3348 18.2037 15.8732 18.3952 15.5326 18.7358C15.1921 19.0763 15.0006 19.538 15 20.0195V41.4634C15.0001 41.5722 15.0433 41.6765 15.1202 41.7534C15.1971 41.8303 15.3014 41.8735 15.4102 41.8736H44.5898C44.6986 41.8735 44.8029 41.8303 44.8798 41.7534C44.9567 41.6765 44.9999 41.5722 45 41.4634V20.0195C44.9994 19.538 44.8079 19.0763 44.4674 18.7358C44.1269 18.3952 43.6652 18.2037 43.1836 18.2031ZM15.8203 20.0195C15.8206 19.7554 15.9257 19.5023 16.1124 19.3155C16.2991 19.1288 16.5523 19.0237 16.8164 19.0234H43.1836C43.4477 19.0237 43.7009 19.1288 43.8876 19.3155C44.0743 19.5023 44.1794 19.7554 44.1797 20.0195V23.743H15.8203V20.0195ZM44.1797 41.0533H15.8203V24.5634H44.1797V41.0533Z" fill="white"/>
<path d="M42.7147 20.0781H24.7881C24.6793 20.0781 24.575 20.1213 24.4981 20.1983C24.4211 20.2752 24.3779 20.3795 24.3779 20.4883V22.278C24.3779 22.3867 24.4211 22.4911 24.4981 22.568C24.575 22.6449 24.6793 22.6881 24.7881 22.6881H42.7147C42.8235 22.6881 42.9278 22.6448 43.0047 22.5679C43.0816 22.491 43.1248 22.3867 43.1249 22.278V20.4883C43.1248 20.3795 43.0816 20.2752 43.0047 20.1983C42.9278 20.1214 42.8235 20.0782 42.7147 20.0781ZM42.3046 21.8678H25.1982V20.8984H42.3046V21.8678Z" fill="white"/>
<path d="M19.1602 20.0781H17.2852C17.1764 20.0782 17.0721 20.1214 16.9952 20.1983C16.9183 20.2752 16.8751 20.3795 16.875 20.4883V22.278C16.8751 22.3867 16.9183 22.491 16.9952 22.5679C17.0721 22.6448 17.1764 22.6881 17.2852 22.6881H19.1602C19.2689 22.6881 19.3732 22.6448 19.4501 22.5679C19.527 22.491 19.5703 22.3867 19.5703 22.278V20.4883C19.5703 20.3795 19.527 20.2752 19.4501 20.1983C19.3732 20.1214 19.2689 20.0782 19.1602 20.0781ZM18.75 21.8678H17.6953V20.8984H18.75V21.8678Z" fill="white"/>
<path d="M22.9111 20.0781H21.0361C20.9274 20.0782 20.8231 20.1214 20.7462 20.1983C20.6693 20.2752 20.626 20.3795 20.626 20.4883V22.278C20.626 22.3867 20.6693 22.491 20.7462 22.5679C20.8231 22.6448 20.9274 22.6881 21.0361 22.6881H22.9111C23.0199 22.6881 23.1242 22.6449 23.2012 22.568C23.2781 22.4911 23.3213 22.3867 23.3213 22.278V20.4883C23.3213 20.3795 23.2781 20.2752 23.2012 20.1983C23.1242 20.1213 23.0199 20.0781 22.9111 20.0781ZM22.501 21.8678H21.4463V20.8984H22.501V21.8678Z" fill="white"/>
<path d="M30.0001 39.1608C31.256 39.1608 32.4837 38.7885 33.528 38.0907C34.5722 37.393 35.3862 36.4013 35.8668 35.241C36.3475 34.0807 36.4732 32.804 36.2283 31.5722C35.9833 30.3404 35.3785 29.2089 34.4905 28.3209C33.6024 27.4328 32.471 26.828 31.2392 26.583C30.0074 26.3379 28.7307 26.4637 27.5704 26.9443C26.41 27.4249 25.4183 28.2388 24.7206 29.283C24.0228 30.3273 23.6504 31.555 23.6504 32.8109C23.6523 34.4944 24.3218 36.1084 25.5122 37.2988C26.7026 38.4892 28.3166 39.1589 30.0001 39.1608ZM30.0001 27.2815C31.0938 27.2814 32.1629 27.6057 33.0723 28.2133C33.9816 28.8209 34.6904 29.6845 35.109 30.6949C35.5275 31.7053 35.637 32.8172 35.4237 33.8898C35.2103 34.9625 34.6837 35.9478 33.9103 36.7211C33.137 37.4945 32.1517 38.0211 31.079 38.2345C30.0064 38.4478 28.8945 38.3383 27.8841 37.9197C26.8737 37.5012 26.0101 36.7924 25.4025 35.883C24.7949 34.9737 24.4707 33.9045 24.4707 32.8109C24.4724 31.3449 25.0555 29.9395 26.0921 28.9029C27.1287 27.8663 28.5341 27.2832 30.0001 27.2815Z" fill="white"/>
<path d="M27.1441 35.9755H32.8544C32.9631 35.9755 33.0674 35.9323 33.1443 35.8553C33.2212 35.7784 33.2645 35.6742 33.2645 35.5654V31.5353C33.2645 31.4266 33.2212 31.3223 33.1443 31.2454C33.0674 31.1685 32.9631 31.1252 32.8544 31.1252H32.0809L31.8302 29.9645C31.8104 29.8728 31.7598 29.7906 31.6868 29.7316C31.6138 29.6727 31.5228 29.6406 31.4289 29.6406H28.5695C28.4758 29.6406 28.385 29.6728 28.312 29.7316C28.2391 29.7904 28.1886 29.8725 28.1687 29.9641L27.918 31.1247H27.1445C27.0358 31.1248 26.9315 31.168 26.8546 31.2449C26.7777 31.3218 26.7344 31.4261 26.7344 31.5348V35.5654C26.7344 35.6741 26.7776 35.7783 26.8544 35.8552C26.9312 35.9321 27.0354 35.9754 27.1441 35.9755ZM27.5542 35.1552V33.6679H28.6323V33.7091C28.6323 33.8179 28.6756 33.9222 28.7525 33.9992C28.8294 34.0761 28.9337 34.1193 29.0425 34.1193C29.1513 34.1193 29.2556 34.0761 29.3325 33.9992C29.4094 33.9222 29.4527 33.8179 29.4527 33.7091V33.6679H30.5448V33.7091C30.5448 33.8179 30.5881 33.9222 30.665 33.9992C30.7419 34.0761 30.8462 34.1193 30.955 34.1193C31.0638 34.1193 31.1681 34.0761 31.245 33.9992C31.3219 33.9222 31.3652 33.8179 31.3652 33.7091V33.6679H32.4433V35.1552H27.5542ZM28.9007 30.4609H31.0975L31.2412 31.1247H28.757L28.9007 30.4609ZM31.7484 31.945H32.4442V32.8471H27.5542V31.9455L31.7484 31.945Z" fill="white"/>
</svg>
