<svg width="64" height="64" viewBox="0 0 64 64" fill="none" xmlns="http://www.w3.org/2000/svg">
<circle cx="32" cy="32" r="32" fill="#83CD20"/>
<g clip-path="url(#clip0_3875_163)">
<path d="M28.4258 31.1211C28.9104 31.1211 29.3047 31.5154 29.3047 32C29.3047 32.4846 28.9104 32.8789 28.4258 32.8789C27.9412 32.8789 27.5469 32.4846 27.5469 32C27.5469 31.5154 27.9412 31.1211 28.4258 31.1211Z" fill="white"/>
<path d="M29.3047 27.6934V29.5145C29.0299 29.4166 28.734 29.3633 28.4258 29.3633C26.9721 29.3633 25.7891 30.5463 25.7891 32C25.7891 33.4537 26.9721 34.6367 28.4258 34.6367C28.734 34.6367 29.0299 34.5834 29.3047 34.4855V36.3066C29.017 36.3652 28.7229 36.3945 28.4258 36.3945C26.0029 36.3945 24.0312 34.4229 24.0312 32C24.0312 29.5771 26.0029 27.6055 28.4258 27.6055C28.7229 27.6055 29.017 27.6348 29.3047 27.6934Z" fill="white"/>
<path d="M22.2734 32C22.2734 35.3926 25.0332 38.1523 28.4258 38.1523C28.7217 38.1523 29.0152 38.1318 29.3047 38.0896V43.4258H26.668C26.1828 43.4258 25.7891 43.032 25.7891 42.5469V41.3023C25.0701 41.0979 24.377 40.8084 23.7166 40.4375L22.8324 41.3223C22.4891 41.6656 21.933 41.6656 21.5896 41.3223L19.1035 38.8361C18.76 38.4927 18.7614 37.9355 19.1035 37.5934L19.9883 36.7086C19.6168 36.0488 19.3279 35.3557 19.1234 34.6367H17.8789C17.3938 34.6367 17 34.243 17 33.7578V30.2422C17 29.757 17.3938 29.3633 17.8789 29.3633H19.1234C19.3279 28.6443 19.6168 27.9512 19.9883 27.2908L19.1035 26.4066C18.7614 26.0645 18.76 25.5073 19.1035 25.1639L21.5896 22.6777C21.933 22.3344 22.4891 22.3344 22.8324 22.6777L23.7172 23.5625C24.377 23.191 25.0701 22.9021 25.7891 22.6977V21.4531C25.7891 20.968 26.1828 20.5742 26.668 20.5742H29.3047V25.9104C29.0152 25.8682 28.7217 25.8477 28.4258 25.8477C25.0332 25.8477 22.2734 28.6074 22.2734 32Z" fill="white"/>
<path d="M41.7266 21.0887V25.8477H46.4855L41.7266 21.0887ZM33.6992 25.8477H37.332C37.8172 25.8477 38.2109 26.2414 38.2109 26.7266C38.2109 27.2117 37.8172 27.6055 37.332 27.6055H33.6992C33.2141 27.6055 32.8203 27.2117 32.8203 26.7266C32.8203 26.2414 33.2141 25.8477 33.6992 25.8477ZM42.6055 38.1523H33.6992C33.2141 38.1523 32.8203 37.7586 32.8203 37.2734C32.8203 36.7883 33.2141 36.3945 33.6992 36.3945H42.6055C43.0906 36.3945 43.4844 36.7883 43.4844 37.2734C43.4844 37.7586 43.0906 38.1523 42.6055 38.1523ZM42.6055 34.6367H33.6992C33.2141 34.6367 32.8203 34.243 32.8203 33.7578C32.8203 33.2727 33.2141 32.8789 33.6992 32.8789H42.6055C43.0906 32.8789 43.4844 33.2727 43.4844 33.7578C43.4844 34.243 43.0906 34.6367 42.6055 34.6367ZM42.6055 31.1211H33.6992C33.2141 31.1211 32.8203 30.7273 32.8203 30.2422C32.8203 29.757 33.2141 29.3633 33.6992 29.3633H42.6055C43.0906 29.3633 43.4844 29.757 43.4844 30.2422C43.4844 30.7273 43.0906 31.1211 42.6055 31.1211ZM40.8477 27.6055C40.3625 27.6055 39.9688 27.2117 39.9688 26.7266V20.5742H31.0625V43.4258H46.1211C46.6062 43.4258 47 43.032 47 42.5469V27.6055H40.8477Z" fill="white"/>
</g>
<defs>
<clipPath id="clip0_3875_163">
<rect width="30" height="30" fill="white" transform="translate(17 17)"/>
</clipPath>
</defs>
</svg>
