<svg width="64" height="64" viewBox="0 0 64 64" fill="none" xmlns="http://www.w3.org/2000/svg">
<circle cx="32" cy="32" r="32" fill="#83CD20"/>
<path fill-rule="evenodd" clip-rule="evenodd" d="M29.7169 18.0441L30.515 20.1462C30.539 20.2093 30.5949 20.2499 30.6624 20.2532L32.9082 20.3627C33.0609 20.3701 33.1234 20.5625 33.0043 20.6583L31.2517 22.0669C31.199 22.1092 31.1777 22.1749 31.1954 22.2401L31.7853 24.4098C31.8255 24.5573 31.6618 24.6763 31.5338 24.5925L29.6526 23.361C29.596 23.324 29.527 23.324 29.4705 23.361L27.5893 24.5925C27.4613 24.6763 27.2976 24.5573 27.3378 24.4098L27.9276 22.2401C27.9453 22.1749 27.9241 22.1092 27.8714 22.0669L26.1188 20.6583C25.9997 20.5625 26.0622 20.3701 26.2149 20.3626L28.4607 20.2532C28.5282 20.2499 28.5841 20.2093 28.6081 20.1461L29.4062 18.0441C29.46 17.902 29.663 17.902 29.7169 18.0441ZM40.5752 35.8469C43.3961 35.8469 45.683 38.1337 45.683 40.9547C45.683 43.7756 43.3961 46.0625 40.5752 46.0625C37.7543 46.0625 35.4674 43.7756 35.4674 40.9547C35.4674 38.1337 37.7543 35.8469 40.5752 35.8469ZM39.9043 41.4052L38.763 40.2639C38.4672 39.9681 37.9874 39.9681 37.6916 40.2639C37.3958 40.5597 37.3958 41.0395 37.6916 41.3353L39.3702 43.014C39.666 43.3097 40.1458 43.3097 40.4416 43.014C41.4534 42.0022 42.4538 40.9789 43.4609 39.9625C43.7546 39.6661 43.7536 39.1878 43.4576 38.8934C43.1615 38.599 42.6819 38.5998 42.3879 38.8968L39.9043 41.4052ZM21.1554 43.3209L35.0107 43.3208C34.7013 42.5941 34.53 41.7944 34.53 40.9547C34.53 39.6776 34.9264 38.4932 35.6023 37.5172C33.9972 36.0862 31.8812 35.2163 29.5616 35.2163C25.0966 35.2163 21.3845 38.4387 20.6232 42.6846C20.5633 43.0181 20.8166 43.3209 21.1554 43.3209ZM29.5616 25.4468C32.0976 25.4468 34.1534 27.5026 34.1534 30.0386C34.1534 32.5745 32.0976 34.6303 29.5616 34.6303C27.0257 34.6303 24.9699 32.5745 24.9699 30.0386C24.9698 27.5026 27.0256 25.4468 29.5616 25.4468ZM37.453 21.0195C37.399 20.8774 37.196 20.8774 37.1421 21.0195L36.344 23.1216C36.32 23.1848 36.2641 23.2253 36.1966 23.2286L33.9508 23.3381C33.7981 23.3455 33.7356 23.5379 33.8547 23.6337L35.6073 25.0423C35.66 25.0847 35.6813 25.1503 35.6635 25.2155L35.0737 27.3853C35.0335 27.5328 35.1972 27.6517 35.3251 27.5679L37.2064 26.3365C37.2629 26.2995 37.3319 26.2995 37.3885 26.3365L39.2697 27.5679C39.3977 27.6517 39.5614 27.5328 39.5212 27.3853L38.9313 25.2156C38.9135 25.1504 38.9349 25.0847 38.9876 25.0424L40.7401 23.6338C40.8593 23.538 40.7968 23.3456 40.644 23.3381L38.3982 23.2287C38.3307 23.2254 38.2749 23.1848 38.2509 23.1216L37.453 21.0195ZM21.9808 21.0195C21.9269 20.8774 21.7239 20.8774 21.67 21.0195L20.8719 23.1216C20.8479 23.1848 20.792 23.2253 20.7245 23.2286L18.4787 23.3381C18.326 23.3455 18.2635 23.5379 18.3826 23.6337L20.1352 25.0423C20.1879 25.0847 20.2092 25.1503 20.1914 25.2155L19.6016 27.3853C19.5614 27.5328 19.7251 27.6517 19.8531 27.5679L21.7343 26.3365C21.7908 26.2995 21.8598 26.2995 21.9164 26.3365L23.7976 27.5679C23.9256 27.6517 24.0893 27.5328 24.0491 27.3853L23.4593 25.2156C23.4415 25.1504 23.4628 25.0847 23.5155 25.0424L25.2681 23.6338C25.3872 23.538 25.3247 23.3456 25.172 23.3381L22.9262 23.2287C22.8587 23.2254 22.8028 23.1848 22.7788 23.1216L21.9808 21.0195Z" fill="white"/>
</svg>
