<svg width="171" height="49" viewBox="0 0 171 49" fill="none" xmlns="http://www.w3.org/2000/svg">
<path fill-rule="evenodd" clip-rule="evenodd" d="M63.5316 22.8098L60.427 22.1363C58.8734 21.7995 58.0182 20.8413 58.0182 19.4372C58.0182 17.6526 59.6025 16.3064 61.7039 16.3064C64.6118 16.3064 65.4703 18.4457 65.6648 19.1023C65.7265 19.3205 65.8783 19.5055 66.0823 19.6075C66.2815 19.7094 66.5044 19.7246 66.7179 19.6501L68.3544 19.0728C68.5509 19.0031 68.7134 18.8609 68.8086 18.6754C68.9038 18.4899 68.9246 18.2751 68.8668 18.0748C68.4446 16.5901 66.8934 13.1367 61.6328 13.1367C57.7383 13.1367 54.451 16.1157 54.451 19.6426C54.451 22.6737 56.44 24.9127 59.7733 25.6385L62.7333 26.2836C64.515 26.6583 65.5794 27.7446 65.5794 29.1867C65.5794 31.0272 64.0662 32.1704 61.628 32.1704C58.7629 32.1704 57.3825 30.2919 57.0457 28.532C57.0244 28.4186 56.9793 28.3109 56.9132 28.2162C56.8472 28.1215 56.7618 28.0419 56.6627 27.9827C56.5635 27.9235 56.453 27.8861 56.3383 27.8728C56.2236 27.8596 56.1074 27.8708 55.9974 27.9059L54.1996 28.4799C54.0106 28.5374 53.8495 28.6627 53.7471 28.8316C53.6447 29.0005 53.6082 29.2012 53.6446 29.3954C54.2043 32.3127 56.6013 35.4245 61.6612 35.4245C65.9371 35.4245 69.1618 32.64 69.1618 28.9495C69.1618 25.8329 67.105 23.594 63.5169 22.8018L63.5316 22.8098ZM81.8993 25.6479C81.9088 25.7096 81.8803 25.757 81.8613 25.776C81.8456 25.7954 81.8258 25.8111 81.8032 25.8218C81.7806 25.8324 81.7559 25.8379 81.7309 25.8377H75.1373C75.1111 25.8377 75.0852 25.8317 75.0616 25.8202C75.038 25.8087 75.0173 25.792 75.0012 25.7713C74.9861 25.7539 74.9753 25.7333 74.9696 25.7111C74.9638 25.6889 74.9633 25.6657 74.968 25.6432C75.2692 24.2685 76.448 22.8824 78.4023 22.8824C80.3221 22.8824 81.628 23.9118 81.896 25.6399L81.8993 25.6479ZM78.3767 19.8038C74.9044 19.8038 71.3135 22.7069 71.3135 27.5691C71.3135 29.9124 72.082 31.9142 73.5382 33.3515C74.8873 34.6845 76.7307 35.4197 78.7277 35.4197C81.702 35.4197 84.1117 33.8657 85.1743 31.2644C85.2597 31.0509 85.2549 30.8137 85.1629 30.605C85.1175 30.5037 85.0518 30.4129 84.9697 30.3381C84.8877 30.2634 84.7912 30.2063 84.6862 30.1705L83.2346 29.6677C83.0404 29.6009 82.8281 29.6099 82.6402 29.6929C82.4523 29.7758 82.3026 29.9265 82.2209 30.115C81.5948 31.5902 80.4183 32.335 78.7249 32.335C76.6757 32.335 75.115 30.9546 74.8446 28.8992C74.8412 28.8762 74.8431 28.8527 74.8501 28.8305C74.857 28.8083 74.869 28.788 74.8849 28.7711C74.9039 28.7474 74.9466 28.7095 75.013 28.7095H84.6349C85.0666 28.7095 85.4271 28.3727 85.4508 27.9429C85.4603 27.8053 85.4651 27.6535 85.4651 27.5036C85.4651 22.7506 82.747 19.7986 78.3734 19.7986L78.3767 19.8038ZM94.7611 31.3402C92.4509 31.3402 91.0136 29.7369 91.0136 27.1564C91.0136 24.6138 92.4841 22.9707 94.7611 22.9707C96.9668 22.9707 98.4487 24.6499 98.4487 27.1545C98.4487 29.6563 96.9659 31.3384 94.7606 31.3384L94.7611 31.3402ZM100.918 20.2402H99.1773C98.7267 20.2402 98.3591 20.6069 98.3591 21.0799C98.3589 21.1133 98.3489 21.146 98.3304 21.1738C98.3118 21.2016 98.2855 21.2234 98.2547 21.2364C98.2215 21.2506 98.1551 21.2696 98.0953 21.2127C97.1988 20.393 95.937 19.977 94.3479 19.977C90.4093 19.977 87.5503 22.9986 87.5503 27.1588C87.5503 31.3009 90.4093 34.3074 94.3479 34.3074C95.8042 34.3074 97.1229 33.8292 98.0621 32.9611C98.1238 32.9042 98.1902 32.9184 98.2234 32.9327C98.2471 32.9422 98.3278 32.9849 98.3278 33.0892V33.6869C98.3278 36.5805 97.0612 37.93 94.3479 37.93C92.626 37.93 91.2741 36.8627 90.9088 35.2129C90.8614 34.9995 90.7333 34.8192 90.5483 34.7039C90.3633 34.5887 90.1403 34.5521 89.9269 34.5996L88.2173 34.9933C88.0073 35.0432 87.8254 35.1736 87.7106 35.3564C87.5958 35.5391 87.5573 35.7596 87.6035 35.9705C88.2154 38.9684 90.9268 40.9844 94.3441 40.9844C96.8914 40.9844 98.8315 40.2089 100.112 38.6791C101.17 37.4144 101.73 35.6588 101.73 33.602V21.0708C101.73 20.6202 101.365 20.255 100.914 20.255L100.918 20.2402ZM121.615 19.8304C119.689 19.8304 118.122 20.5571 117.083 21.9366C117.065 21.9621 117.041 21.9827 117.013 21.9963C116.985 22.0099 116.955 22.0161 116.924 22.0143C116.901 22.0146 116.878 22.0088 116.858 21.9976C116.838 21.9864 116.821 21.97 116.81 21.9503C115.938 20.6031 114.434 19.8299 112.683 19.8299C111.29 19.8299 109.951 20.3195 109.007 21.1747C108.985 21.1985 108.955 21.2145 108.923 21.2205C108.89 21.2264 108.857 21.222 108.827 21.2079C108.798 21.196 108.773 21.1754 108.756 21.1489C108.739 21.1224 108.731 21.0914 108.732 21.0599C108.732 20.6093 108.365 20.244 107.915 20.244H106.261C105.81 20.244 105.445 20.6093 105.445 21.0599V34.1665C105.445 34.6171 105.812 34.9833 106.263 34.9833H108.004C108.454 34.9833 108.82 34.6152 108.82 34.1646V26.175C108.82 24.2334 110.006 22.9284 111.775 22.9284C114.09 22.9284 114.436 24.7438 114.436 25.8254V34.1788C114.436 34.6295 114.801 34.9947 115.252 34.9947H117.023C117.473 34.9947 117.839 34.6276 117.839 34.1769V26.1465C117.839 24.251 119.044 22.9275 120.765 22.9275C123.082 22.9275 123.427 24.7443 123.427 25.8258V34.1793C123.427 34.6299 123.792 34.9952 124.242 34.9952H125.983C126.434 34.9952 126.799 34.628 126.799 34.1774V25.5298C126.799 21.6021 124.195 19.8456 121.615 19.8456V19.8304ZM133.383 25.8491C133.357 25.849 133.331 25.8431 133.308 25.8317C133.284 25.8204 133.264 25.804 133.247 25.7836C133.233 25.7663 133.223 25.746 133.217 25.7241C133.212 25.7023 133.211 25.6795 133.216 25.6574C133.518 24.2818 134.696 22.8967 136.652 22.8967C138.571 22.8967 139.878 23.926 140.145 25.6527C140.155 25.7143 140.125 25.7618 140.107 25.7808C140.091 25.7984 140.07 25.8125 140.048 25.8223C140.026 25.8321 140.001 25.8373 139.977 25.8377H133.383V25.8491ZM136.623 19.8152C133.151 19.8152 129.56 22.7202 129.56 27.5805C129.56 29.9267 130.328 31.927 131.783 33.3658C133.13 34.6987 134.971 35.4292 136.972 35.4292C139.942 35.4292 142.352 33.8733 143.419 31.2691C143.504 31.0556 143.5 30.8185 143.405 30.6097C143.31 30.401 143.139 30.2492 142.926 30.1733L141.474 29.6715C141.071 29.5325 140.625 29.7284 140.46 30.1183C139.834 31.5898 138.657 32.3383 136.964 32.3383C134.915 32.3383 133.354 30.9551 133.084 28.8992C133.08 28.8759 133.081 28.8521 133.088 28.8295C133.095 28.8069 133.106 28.786 133.122 28.7683C133.141 28.7446 133.183 28.709 133.25 28.709H142.874C143.306 28.709 143.665 28.3722 143.69 27.9419C143.698 27.8044 143.704 27.6526 143.704 27.5008C143.704 22.7477 140.986 19.7925 136.613 19.7925L136.623 19.8152ZM154.065 19.8451C152.593 19.8451 151.301 20.347 150.332 21.2966C150.31 21.319 150.282 21.3342 150.251 21.3401C150.22 21.346 150.188 21.3424 150.159 21.3298C150.129 21.3168 150.103 21.2953 150.086 21.268C150.068 21.2407 150.059 21.2087 150.059 21.1762V21.0718C150.059 20.6212 149.692 20.2559 149.241 20.2559H147.534C147.083 20.2559 146.716 20.6212 146.716 21.0718V34.176C146.716 34.6266 147.081 34.9933 147.532 34.9933H149.301C149.752 34.9933 150.119 34.6257 150.119 34.175V26.525C150.119 24.8135 150.895 22.9844 153.074 22.9844C155.034 22.9844 156.028 24.0674 156.028 26.2029V34.1722C156.028 34.6228 156.393 34.9881 156.844 34.9881H158.613C159.064 34.9881 159.43 34.6181 159.43 34.1674V25.7338C159.43 22.1002 157.372 19.8423 154.065 19.8423L154.065 19.8451ZM167.674 23.3943H169.738C170.188 23.3943 170.554 23.0266 170.554 22.5765V21.0708C170.554 20.6202 170.188 20.255 169.738 20.255H167.674C167.653 20.255 167.631 20.2507 167.611 20.2423C167.591 20.234 167.572 20.2217 167.557 20.2063C167.541 20.1909 167.529 20.1726 167.521 20.1525C167.513 20.1323 167.508 20.1107 167.508 20.0889V16.6195C167.508 16.1688 167.14 15.8026 166.69 15.8026H165.153C164.702 15.8026 164.337 16.1688 164.337 16.6195V18.4125C164.337 19.2522 164.016 20.2545 162.493 20.2545H162.231C161.78 20.2545 161.415 20.6197 161.415 21.0704V22.5741C161.415 23.0247 161.781 23.39 162.231 23.39H163.943C164.035 23.39 164.109 23.4611 164.109 23.556V30.7995C164.109 33.4749 165.738 35.1351 168.359 35.1351C169.09 35.1351 169.658 35.0308 169.932 34.9691C170.302 34.8837 170.562 34.5564 170.562 34.1722V32.778C170.562 32.6633 170.537 32.55 170.491 32.4453C170.444 32.3405 170.375 32.2468 170.29 32.1702C170.205 32.0936 170.104 32.0358 169.995 32.0005C169.886 31.9652 169.771 31.9533 169.657 31.9655C169.472 31.9844 169.292 31.9953 169.152 31.9953C167.961 31.9953 167.515 31.5589 167.515 30.3873V23.5565C167.515 23.4654 167.591 23.3914 167.681 23.3914" fill="#43AF79"/>
<path fill-rule="evenodd" clip-rule="evenodd" d="M19.7575 41.982C17.9056 41.982 16.0764 41.7069 14.3213 41.1628C13.8407 41.0139 13.4389 40.6801 13.2043 40.235C12.9697 39.7898 12.9216 39.2697 13.0704 38.7891C13.3807 37.7835 14.4461 37.2237 15.4446 37.5368C16.8354 37.9685 18.286 38.1867 19.7575 38.1867C26.1959 38.1867 31.7863 34.055 33.669 27.9026C33.7418 27.6643 33.861 27.4428 34.0195 27.2506C34.1781 27.0585 34.373 26.8995 34.5931 26.7827C34.8131 26.666 35.0541 26.5938 35.3021 26.5702C35.5501 26.5467 35.8003 26.5723 36.0384 26.6455C37.0403 26.9491 37.6038 28.0117 37.2974 29.0126C34.9237 36.7688 27.8747 41.982 19.7575 41.982Z" fill="#43AF79"/>
<path fill-rule="evenodd" clip-rule="evenodd" d="M4.03246 20.7193C3.7357 20.7194 3.44306 20.6498 3.17807 20.5162C2.91307 20.3826 2.6831 20.1888 2.50664 19.9502C2.33018 19.7115 2.21215 19.4349 2.16203 19.1424C2.1119 18.8499 2.13109 18.5497 2.21804 18.266C4.59221 10.5102 11.6412 5.30078 19.7575 5.30078C21.6108 5.30078 23.4399 5.57591 25.1936 6.12047C25.4316 6.19422 25.6528 6.31412 25.8445 6.47335C26.0362 6.63258 26.1946 6.828 26.3108 7.04847C26.427 7.26893 26.4986 7.51012 26.5215 7.75826C26.5444 8.00639 26.5183 8.25662 26.4445 8.49464C26.371 8.73281 26.2512 8.95413 26.092 9.14593C25.9328 9.33774 25.7374 9.49625 25.5168 9.61241C25.2963 9.72856 25.055 9.80006 24.8068 9.82282C24.5586 9.84558 24.3083 9.81916 24.0703 9.74505C22.6805 9.31813 21.2289 9.09992 19.7575 9.09992C13.3204 9.09992 7.72914 13.2316 5.84641 19.384C5.72741 19.7723 5.48708 20.1122 5.16068 20.3538C4.83429 20.5954 4.43903 20.726 4.03294 20.7265" fill="#43AF79"/>
<path fill-rule="evenodd" clip-rule="evenodd" d="M24.6316 30.3569H1.89744C0.849102 30.3569 0 29.5078 0 28.4595C0 27.4112 0.849102 26.5621 1.89744 26.5621H24.6316C25.6799 26.5621 26.529 27.4112 26.529 28.4595C26.529 29.5078 25.6799 30.3569 24.6316 30.3569Z" fill="#93C8A2"/>
<path fill-rule="evenodd" clip-rule="evenodd" d="M37.6167 20.7169H14.8835C13.8352 20.7169 12.9861 19.8678 12.9861 18.8195C12.9861 17.7712 13.8352 16.9221 14.8835 16.9221H37.6167C38.665 16.9221 39.5141 17.7712 39.5141 18.8195C39.5141 19.8678 38.665 20.7169 37.6167 20.7169Z" fill="#93C8A2"/>
<path fill-rule="evenodd" clip-rule="evenodd" d="M32.9167 11.5888C32.9167 12.0921 32.7168 12.5747 32.361 12.9305C32.0051 13.2864 31.5225 13.4863 31.0193 13.4863C30.5161 13.4863 30.0334 13.2864 29.6776 12.9305C29.3218 12.5747 29.1218 12.0921 29.1218 11.5888C29.1218 11.0856 29.3218 10.603 29.6776 10.2472C30.0334 9.89131 30.5161 9.69141 31.0193 9.69141C31.5225 9.69141 32.0051 9.89131 32.361 10.2472C32.7168 10.603 32.9167 11.0856 32.9167 11.5888ZM10.3918 35.6929C10.3918 36.1961 10.1919 36.6788 9.83604 37.0346C9.4802 37.3904 8.99758 37.5904 8.49435 37.5904C7.99111 37.5904 7.50849 37.3904 7.15266 37.0346C6.79682 36.6788 6.59691 36.1961 6.59691 35.6929C6.59691 35.1897 6.79682 34.7071 7.15266 34.3512C7.50849 33.9954 7.99111 33.7955 8.49435 33.7955C8.99758 33.7955 9.4802 33.9954 9.83604 34.3512C10.1919 34.7071 10.3918 35.1897 10.3918 35.6929Z" fill="#93C8A2"/>
</svg>
