<svg width="100" height="101" viewBox="0 0 100 101" fill="none" xmlns="http://www.w3.org/2000/svg">
<circle cx="50" cy="50.0195" r="50" fill="#83CD20"/>
<path d="M72.3848 37.7734H39.7348C39.644 37.7734 39.5543 37.7934 39.4722 37.8322C39.3901 37.8709 39.3176 37.9273 39.2598 37.9974L37.8888 39.6624L36.5177 37.9974C36.4599 37.9273 36.3874 37.8709 36.3053 37.8322C36.2232 37.7934 36.1335 37.7734 36.0427 37.7734H28.6152C28.5344 37.7734 28.4544 37.7894 28.3797 37.8203C28.305 37.8512 28.2372 37.8966 28.1801 37.9538C28.1229 38.0109 28.0776 38.0788 28.0467 38.1535C28.0158 38.2282 28 38.3082 28 38.389V62.6468C28 62.81 28.0648 62.9665 28.1802 63.0819C28.2956 63.1973 28.4521 63.2621 28.6152 63.2621H36.0406C36.1314 63.2621 36.2211 63.2421 36.3032 63.2033C36.3853 63.1646 36.4578 63.1082 36.5155 63.0381L37.8866 61.3731L39.2577 63.0381C39.3155 63.1082 39.388 63.1646 39.4701 63.2033C39.5522 63.2421 39.6419 63.2621 39.7327 63.2621H72.3848C72.4656 63.2621 72.5456 63.2462 72.6203 63.2153C72.6949 63.1844 72.7628 63.1391 72.8199 63.082C72.877 63.0248 72.9224 62.957 72.9533 62.8823C72.9842 62.8077 73 62.7276 73 62.6468V38.389C73.0001 38.3082 72.9842 38.2281 72.9534 38.1534C72.9225 38.0787 72.8772 38.0108 72.82 37.9537C72.7629 37.8965 72.695 37.8511 72.6203 37.8202C72.5457 37.7893 72.4656 37.7734 72.3848 37.7734ZM29.2305 39.0039H35.7502L37.4127 41.0212C37.4724 41.088 37.5456 41.1415 37.6273 41.1781C37.7091 41.2147 37.7977 41.2336 37.8873 41.2336C37.977 41.2336 38.0656 41.2147 38.1473 41.1781C38.2291 41.1415 38.3023 41.088 38.362 41.0212L40.0245 39.0039H71.7706V57.7714H29.2305V39.0039ZM71.7695 62.0312H40.0252L38.3627 60.014C38.303 59.9471 38.2298 59.8937 38.148 59.8571C38.0663 59.8204 37.9777 59.8015 37.888 59.8015C37.7984 59.8015 37.7098 59.8204 37.628 59.8571C37.5463 59.8937 37.4731 59.9471 37.4134 60.014L35.7509 62.0312H29.2305V59.0018H71.7695V62.0312Z" fill="white"/>
<path d="M48.4609 40.5863H41.0612C40.9705 40.5862 40.8809 40.6063 40.7988 40.645C40.7167 40.6837 40.6443 40.7401 40.5866 40.8102L37.8877 44.0847L35.1887 40.8099C35.1311 40.7398 35.0587 40.6834 34.9766 40.6446C34.8945 40.6059 34.8049 40.5859 34.7141 40.5859H31.4277C31.3469 40.5859 31.2668 40.6019 31.1921 40.6328C31.1174 40.6638 31.0496 40.7092 30.9924 40.7664C30.9353 40.8236 30.89 40.8915 30.8591 40.9662C30.8283 41.0409 30.8124 41.121 30.8125 41.2019V55.5745C30.8125 55.7376 30.8773 55.8941 30.9927 56.0095C31.1081 56.1249 31.2646 56.1897 31.4277 56.1897H48.4609C48.6241 56.1897 48.7806 56.1249 48.896 56.0095C49.0114 55.8941 49.0762 55.7376 49.0762 55.5745V41.2019C49.0762 41.1211 49.0603 41.041 49.0294 40.9663C48.9985 40.8916 48.9532 40.8238 48.8961 40.7666C48.839 40.7094 48.7711 40.6641 48.6965 40.6332C48.6218 40.6022 48.5418 40.5863 48.4609 40.5863ZM47.8457 54.9592H32.043V41.8168H34.4237L37.412 45.4438C37.4717 45.5107 37.5449 45.5641 37.6266 45.6008C37.7084 45.6374 37.797 45.6563 37.8866 45.6563C37.9763 45.6563 38.0648 45.6374 38.1466 45.6008C38.2284 45.5641 38.3016 45.5107 38.3612 45.4438L41.3495 41.8168H47.8464L47.8457 54.9592Z" fill="white"/>
<path d="M68.8447 41.5192C68.3333 41.0091 67.6405 40.7227 66.9181 40.7227C66.1958 40.7227 65.503 41.0091 64.9916 41.5192L62.435 44.0758L58.1133 43.0752C57.6047 42.9558 57.074 42.9687 56.5718 43.1126C56.0697 43.2565 55.6127 43.5266 55.2445 43.8972L54.2833 44.8583C54.2124 44.9291 54.1599 45.0162 54.1303 45.1119C54.1007 45.2077 54.095 45.3092 54.1136 45.4077C54.1322 45.5061 54.1746 45.5985 54.2371 45.6769C54.2996 45.7552 54.3803 45.8171 54.4721 45.8571L58.7742 47.7383L56.8515 49.6607L53.0898 50.0091C52.947 50.0217 52.8132 50.0839 52.7115 50.1849L50.8482 52.0481C50.7724 52.1239 50.7177 52.2183 50.6896 52.3217C50.6614 52.4252 50.6608 52.5342 50.6877 52.638C50.7147 52.7417 50.7683 52.8367 50.8433 52.9133C50.9182 52.99 51.0119 53.0458 51.1151 53.0751L55.678 54.3727C56.5061 54.608 57.382 54.618 58.2153 54.4017C59.0486 54.1854 59.809 53.7506 60.4181 53.1422L70.0073 43.553C70.0645 43.4959 70.1099 43.4281 70.1408 43.3535C70.1717 43.2789 70.1877 43.1989 70.1877 43.1181C70.1877 43.0373 70.1717 42.9573 70.1408 42.8827C70.1099 42.8081 70.0645 42.7403 70.0073 42.6832L68.8447 41.5192ZM59.548 52.2714C59.0941 52.7251 58.5272 53.0495 57.906 53.2108C57.2848 53.3722 56.6318 53.3648 56.0144 53.1893L52.4587 52.1786L53.4255 51.2118L57.1873 50.8634C57.3302 50.8503 57.4641 50.7875 57.5655 50.6858L60.2828 47.9686C60.3537 47.8978 60.4062 47.8107 60.4358 47.715C60.4654 47.6193 60.4711 47.5178 60.4525 47.4193C60.4339 47.3208 60.3915 47.2284 60.329 47.1501C60.2665 47.0717 60.1858 47.0099 60.094 46.9698L55.7912 45.0904L56.1146 44.7669C56.3357 44.5444 56.6102 44.3823 56.9118 44.2961C57.2134 44.21 57.532 44.2026 57.8373 44.2747L62.4885 45.3512C62.5902 45.3745 62.6961 45.3717 62.7965 45.343C62.8968 45.3143 62.9882 45.2606 63.0622 45.187L65.86 42.3893C66.1405 42.1096 66.5204 41.9526 66.9166 41.9526C67.3127 41.9526 67.6927 42.1096 67.9732 42.3893L68.7009 43.1174L59.548 52.2714Z" fill="white"/>
<path d="M45.6484 52.1484H34.2402C34.0771 52.1484 33.9206 52.2133 33.8052 52.3286C33.6898 52.444 33.625 52.6005 33.625 52.7637C33.625 52.9268 33.6898 53.0833 33.8052 53.1987C33.9206 53.3141 34.0771 53.3789 34.2402 53.3789H45.6484C45.8116 53.3789 45.9681 53.3141 46.0835 53.1987C46.1988 53.0833 46.2637 52.9268 46.2637 52.7637C46.2637 52.6005 46.1988 52.444 46.0835 52.3286C45.9681 52.2133 45.8116 52.1484 45.6484 52.1484Z" fill="white"/>
<path d="M45.6484 49.8945H34.2402C34.0771 49.8945 33.9206 49.9593 33.8052 50.0747C33.6898 50.1901 33.625 50.3466 33.625 50.5098C33.625 50.6729 33.6898 50.8294 33.8052 50.9448C33.9206 51.0602 34.0771 51.125 34.2402 51.125H45.6484C45.8116 51.125 45.9681 51.0602 46.0835 50.9448C46.1988 50.8294 46.2637 50.6729 46.2637 50.5098C46.2637 50.3466 46.1988 50.1901 46.0835 50.0747C45.9681 49.9593 45.8116 49.8945 45.6484 49.8945Z" fill="white"/>
<path d="M45.6484 47.6406H34.2402C34.0771 47.6406 33.9206 47.7054 33.8052 47.8208C33.6898 47.9362 33.625 48.0927 33.625 48.2559C33.625 48.419 33.6898 48.5755 33.8052 48.6909C33.9206 48.8063 34.0771 48.8711 34.2402 48.8711H45.6484C45.8116 48.8711 45.9681 48.8063 46.0835 48.6909C46.1988 48.5755 46.2637 48.419 46.2637 48.2559C46.2637 48.0927 46.1988 47.9362 46.0835 47.8208C45.9681 47.7054 45.8116 47.6406 45.6484 47.6406Z" fill="white"/>
<path d="M40.7334 46.0059C40.7334 46.0867 40.7492 46.1667 40.7801 46.2414C40.811 46.316 40.8564 46.3839 40.9135 46.441C40.9706 46.4981 41.0385 46.5435 41.1131 46.5744C41.1878 46.6053 41.2678 46.6211 41.3486 46.6211H45.6486C45.8118 46.6211 45.9683 46.5563 46.0836 46.4409C46.199 46.3255 46.2638 46.169 46.2638 46.0059C46.2638 45.8427 46.199 45.6862 46.0836 45.5708C45.9683 45.4554 45.8118 45.3906 45.6486 45.3906H41.3486C41.2678 45.3906 41.1878 45.4065 41.1131 45.4374C41.0385 45.4683 40.9706 45.5136 40.9135 45.5707C40.8564 45.6279 40.811 45.6957 40.7801 45.7704C40.7492 45.845 40.7334 45.9251 40.7334 46.0059Z" fill="white"/>
</svg>
