<svg width="108" height="49" viewBox="0 0 108 49" fill="none" xmlns="http://www.w3.org/2000/svg">
<path d="M11.4932 30.3564C11.4932 31.0692 11.3425 31.7315 11.041 32.3439C10.7395 32.9478 10.3123 33.4675 9.77609 33.8871C9.23164 34.3147 8.58675 34.6417 7.84098 34.8764C7.09555 35.1111 6.27475 35.2286 5.38675 35.2286C4.32275 35.2286 3.36809 35.086 2.53075 34.7926C1.69315 34.5074 0.847199 34.021 0.000976562 33.3499L1.40009 31.077C2.07013 31.6389 2.67298 32.0494 3.21787 32.3099C3.75395 32.5699 4.30675 32.6957 4.87653 32.6957C5.57173 32.6957 6.12453 32.5195 6.55209 32.159C6.97929 31.7983 7.18027 31.3204 7.18027 30.7083C7.18027 30.4484 7.13838 30.2052 7.06302 29.9788C6.98763 29.7523 6.84524 29.5175 6.64426 29.2743C6.4432 29.0396 6.15849 28.7712 5.79831 28.4945C5.44649 28.2177 4.98587 27.8655 4.41609 27.4545C3.98889 27.1527 3.56178 26.834 3.1512 26.515C2.7408 26.1879 2.37227 25.8441 2.02853 25.475C1.69351 25.106 1.42551 24.6951 1.21609 24.2341C1.01502 23.7813 0.906221 23.2527 0.906221 22.6741C0.906221 22.0032 1.04862 21.3825 1.32498 20.8287C1.60133 20.275 1.98667 19.8056 2.47253 19.4119C2.95831 19.0177 3.53653 18.7159 4.22275 18.4981C4.90115 18.28 5.63787 18.1711 6.44231 18.1711C7.28827 18.1711 8.10098 18.28 8.88764 18.5065C9.67493 18.7329 10.4041 19.0599 11.0823 19.4959L9.81742 21.5421C8.95475 20.9383 8.04142 20.6283 7.08675 20.6283C6.5088 20.6283 6.02275 20.7792 5.64586 21.0811C5.26898 21.383 5.07626 21.7604 5.07626 22.2215C5.07626 22.6576 5.24382 23.0518 5.57884 23.3958C5.91387 23.7479 6.49173 24.226 7.31307 24.8633C8.14231 25.4671 8.82951 26.0038 9.36551 26.4562C9.90995 26.909 10.3371 27.3451 10.6553 27.7478C10.9736 28.1503 11.183 28.5528 11.3086 28.9718C11.4342 29.3994 11.4929 29.8522 11.4929 30.3558L11.4932 30.3564ZM25.8577 26.5244C25.8577 27.1533 25.7907 27.8328 25.6567 28.5617C25.531 29.2913 25.3049 29.9626 24.9867 30.583C24.6684 31.2036 24.258 31.7155 23.7467 32.1093C23.2357 32.5118 22.5822 32.713 21.8036 32.713C20.4969 32.713 19.4667 32.1931 18.7129 31.145C17.959 30.105 17.5822 28.6712 17.5822 26.8517C17.5822 24.9815 17.9591 23.5059 18.7298 22.4072C19.492 21.3086 20.5307 20.7637 21.8373 20.7637C23.0773 20.7637 24.0569 21.2836 24.7769 22.3068C25.4972 23.3379 25.8578 24.7468 25.8578 26.5246L25.8577 26.5244ZM30.3972 26.365C30.3972 25.149 30.2213 24.0423 29.878 23.053C29.5261 22.0548 29.0404 21.1997 28.3953 20.4788C27.7504 19.7576 26.9962 19.2041 26.1171 18.8015C25.238 18.3988 24.2664 18.1977 23.2024 18.1977C22.03 18.1977 20.9997 18.4241 20.1117 18.8602C19.2239 19.3047 18.3944 20.0007 17.6406 20.9562L17.6156 18.5829H13.436V42.974H17.6076V32.6718C18.018 33.1497 18.4116 33.5522 18.7969 33.8789C19.1738 34.2059 19.5591 34.4743 19.9524 34.6755C20.346 34.8767 20.7564 35.0277 21.1916 35.1116C21.6271 35.1954 22.0964 35.2374 22.5907 35.2374C23.6964 35.2374 24.7347 35.0109 25.6893 34.5749C26.644 34.1304 27.4733 33.51 28.1684 32.7046C28.8636 31.8993 29.4084 30.9606 29.8022 29.8958C30.2043 28.822 30.3969 27.6398 30.3969 26.3651L30.3972 26.365ZM32.2568 34.8432H36.5448V10.9766H32.2568V34.8432ZM54.8346 34.8516V18.5671H50.5466V27.3298C50.5466 28.1097 50.5131 28.7138 50.446 29.1414C50.379 29.569 50.2701 29.9463 50.1194 30.2987C49.5163 31.64 48.402 32.32 46.786 32.32C45.5211 32.32 44.642 31.8672 44.1389 30.9529C43.938 30.6091 43.8039 30.215 43.7285 29.7787C43.6531 29.3427 43.6113 28.7138 43.6113 27.8836V18.568H39.3233V27.8214C39.3233 28.4503 39.3316 28.9867 39.3401 29.4143C39.3484 29.8419 39.382 30.236 39.4238 30.5716C39.4657 30.9071 39.5159 31.2089 39.5746 31.4694C39.6248 31.7293 39.7086 31.9808 39.8175 32.2157C40.2111 33.2139 40.8397 33.9686 41.7188 34.4797C42.5983 34.9911 43.6788 35.2428 44.9517 35.2428C46.0993 35.2428 47.1126 35.0415 47.9837 34.639C48.8548 34.2365 49.7011 33.5821 50.5215 32.6683L50.5299 34.8487L54.8348 34.8571L54.8346 34.8516ZM73.3146 34.8432V25.6077C73.3146 24.9787 73.3062 24.4423 73.2978 23.9979C73.2894 23.5535 73.2644 23.1678 73.214 22.8406C73.1722 22.5135 73.1136 22.2284 73.0549 21.9852C72.9879 21.7336 72.9125 21.4904 72.8288 21.2556C72.4351 20.2831 71.8066 19.5285 70.9275 18.9996C70.0484 18.4707 68.9675 18.203 67.6857 18.203C66.5381 18.203 65.5248 18.4042 64.6537 18.8067C63.7826 19.2092 62.9364 19.8716 62.1159 20.7774L62.1076 18.5969H57.7938V34.8458H62.1156V26.0743C62.1156 25.3195 62.1407 24.724 62.1993 24.3045C62.2495 23.8852 62.3585 23.4911 62.5092 23.1134C62.7856 22.4592 63.2212 21.9729 63.799 21.6378C64.3769 21.3027 65.0639 21.1347 65.8675 21.1347C67.1323 21.1347 68.0115 21.5875 68.5146 22.5018C68.7073 22.8456 68.8412 23.2398 68.9166 23.6671C68.992 24.0949 69.0339 24.732 69.0339 25.5543V34.8254L73.3139 34.8338L73.3146 34.8432ZM91.0568 33.7695L84.5243 25.6432L90.0435 19.7232L86.7937 18.3232L81.0479 24.9899H80.5956V10.981H76.2739V34.8477H80.5956V26.2023L87.0614 35.1712L91.0561 33.7703L91.0568 33.7695ZM107.759 27.933V25.2743L94.7635 18.7499V21.6761L104.835 26.5819L94.7635 31.5543V34.4139L107.759 27.9321V27.933ZM96.0257 14.5286C95.2301 14.5286 94.5848 15.1826 94.5848 15.9881C94.5848 16.8099 95.2301 17.4557 96.0257 17.4557C96.8301 17.4557 97.4666 16.81 97.4666 15.9881C97.4666 15.1747 96.8301 14.5286 96.0257 14.5286ZM96.0346 14.755C96.679 14.755 97.1981 15.3084 97.1981 15.9959C97.1981 16.6835 96.679 17.2367 96.0346 17.2287C95.3812 17.2287 94.8612 16.6837 94.8612 15.9879C94.8612 15.3086 95.3812 14.755 96.0346 14.755ZM95.7581 16.139H95.9332C96.143 16.139 96.2435 16.2144 96.2852 16.4241C96.319 16.6422 96.3608 16.7847 96.3946 16.8351H96.671C96.6452 16.7847 96.6035 16.6841 96.5706 16.4326C96.5368 16.1894 96.4444 16.0636 96.2941 16.0384V16.0216C96.4701 15.9713 96.6124 15.8372 96.6124 15.6275C96.6124 15.4766 96.5617 15.3592 96.4612 15.292C96.3608 15.2166 96.2017 15.1663 95.959 15.1663C95.7661 15.1663 95.6319 15.183 95.4986 15.2082V16.8349H95.7581V16.1389V16.139ZM95.7581 15.3842C95.7999 15.3758 95.8586 15.3674 95.9421 15.3674C96.2355 15.3674 96.3359 15.51 96.3359 15.6526C96.3359 15.8538 96.151 15.9293 95.9421 15.9293H95.7581V15.3842V15.3842Z" fill="#0C1724"/>
</svg>
