<svg width="160" height="169" viewBox="0 0 160 169" fill="none" xmlns="http://www.w3.org/2000/svg">
<rect y="0.960938" width="160" height="168" rx="10" fill="#83CD20"/>
<g clip-path="url(#clip0_1041_49)">
<path d="M101.676 65.9102C104.113 65.9102 106.145 63.9297 106.145 61.4414C106.145 58.9531 104.113 57.0234 101.676 57.0234C99.2383 57.0234 97.207 59.0039 97.207 61.4922C97.207 63.9297 99.1875 65.9102 101.676 65.9102ZM101.676 58.8008C103.148 58.8008 104.367 60.0195 104.367 61.4922C104.367 62.9648 103.148 64.1836 101.676 64.1836C100.203 64.1836 98.9844 62.9648 98.9844 61.4922C98.9844 60.0195 100.152 58.8008 101.676 58.8008Z" fill="white"/>
<path d="M107.008 76.2188C106.195 74.4922 105.231 72.8164 104.113 71.293C106.551 69.668 110.156 66.4688 110.156 61.4922C110.156 56.7695 106.348 53.0117 101.676 53.0117C97.0041 53.0117 93.1447 56.7695 93.1447 61.4922V62.0508C92.4845 61.7461 91.8244 61.4414 91.1642 61.1367C72.0705 53.4687 50.9455 67.332 50.8439 88.4063C50.7931 104.656 63.8947 117.859 80.1447 117.91C96.3947 117.961 109.598 104.859 109.649 88.6094C109.649 88.5078 109.649 88.457 109.649 88.3555C109.649 84.1914 108.735 80.0273 107.008 76.2188ZM101.676 54.7383C105.383 54.7383 108.379 57.7344 108.43 61.4922C108.43 66.8242 103.149 69.9727 101.676 70.6836C100.254 69.9219 94.922 66.8242 94.922 61.4922C94.922 57.7344 97.9181 54.7383 101.676 54.7383ZM101.27 72.5117C101.524 72.6133 101.777 72.6133 101.981 72.5117C102.031 72.5117 102.235 72.4102 102.539 72.207C103.352 73.3242 104.063 74.4922 104.723 75.7109H99.4416L95.8869 72.1563C95.6837 71.9531 95.3791 71.8516 95.0744 71.9023L84.6134 74.2383C84.2072 74.3398 83.9025 74.6953 83.9025 75.1016V77.2344C83.9025 77.6914 84.2072 78.0469 84.6642 78.0977L91.8751 79.2148L93.6525 82.668C93.7541 82.8711 93.9572 83.0742 94.2111 83.125L98.7814 84.3945V86.9844L96.0392 89.8281C95.8869 89.9805 95.7853 90.2344 95.7853 90.4375V94.7539L90.758 103.539H87.965V100.746C87.965 100.492 87.8634 100.238 87.6603 100.086L83.8009 96.582V92.5195C83.8009 92.1641 83.547 91.8086 83.2423 91.707L75.3205 88.8125V82.2109L80.5001 76.625C80.8556 76.2695 80.8048 75.7109 80.4494 75.3555L80.3986 75.3047L75.6759 71.6484L79.5353 66.1641H87.4572C87.7111 66.1641 87.9142 66.0625 88.0666 65.9102L91.0119 62.9648C91.8244 63.3203 92.6876 63.7266 93.5001 64.1836C95.1251 69.668 101.016 72.3594 101.27 72.5117ZM62.422 67.332L64.6564 71.9531L62.8791 72.8672C62.7775 72.918 62.7267 72.9688 62.6251 73.0195L58.4103 77.3359C58.1564 77.5898 58.1056 77.9453 58.2072 78.25L58.8166 79.9766C58.1564 80.3828 57.4962 80.9414 56.9884 81.5L53.383 82.1094C54.7033 76.3203 57.9025 71.1406 62.422 67.332ZM63.2853 96.3281C61.8634 95.5664 56.5314 92.4688 56.5314 87.1367C56.5822 83.4297 59.6291 80.4336 63.3361 80.4844C66.9923 80.5352 69.9884 83.4805 69.9884 87.1367C69.9884 92.4688 64.7072 95.6172 63.2853 96.3281ZM52.672 86.9336C52.7228 85.918 52.8244 84.9531 52.9767 83.9375L55.5666 83.4805C55.0587 84.5469 54.7541 85.7149 54.7541 86.8828H52.672V86.9336ZM62.8791 105.773V109.938C56.4806 104.758 52.7228 96.9883 52.6212 88.7109H54.9064C55.8712 94.957 62.6251 98.0039 62.9298 98.1563C63.1837 98.2578 63.4376 98.2578 63.6408 98.1563C64.3517 97.8008 65.0119 97.4453 65.672 96.9883L66.5861 97.9024V100.34L65.4689 102.016C65.215 102.371 65.3166 102.879 65.6212 103.184L65.8751 103.438L63.2345 105.012C63.0314 105.164 62.8791 105.418 62.8791 105.773ZM80.2462 116.082C74.6603 116.082 69.2267 114.406 64.6564 111.258V106.281L67.9572 104.301C68.3634 104.047 68.5158 103.488 68.2619 103.082C68.2111 102.98 68.1603 102.93 68.0587 102.879L67.4494 102.371L68.2619 101.152C68.3634 101 68.4142 100.848 68.4142 100.645V97.5977C68.4142 97.3438 68.3126 97.1406 68.1603 96.9883L67.1955 96.0234C69.4298 94.2461 71.8673 91.3008 71.8673 87.2383C71.8673 82.5664 68.1095 78.7578 63.3869 78.7578C62.3712 78.7578 61.4064 78.9102 60.4416 79.2656L60.0861 78.25L63.7931 74.4414L66.2306 73.2227C66.6876 73.0195 66.84 72.4609 66.6369 72.0547L63.8439 66.3164C71.1564 60.9336 80.6525 59.4609 89.2345 62.4063L87.1017 64.4375H79.0783C78.7736 64.4375 78.5197 64.5898 78.3673 64.793L73.7462 71.3438C73.4923 71.75 73.5431 72.2578 73.9494 72.5625L78.5705 76.1172L73.797 81.2461C73.6447 81.3984 73.5431 81.6016 73.5431 81.8555V89.4219C73.5431 89.7774 73.797 90.1328 74.1017 90.2344L82.0236 93.1289V96.9883C82.0236 97.2422 82.1251 97.4961 82.3283 97.6484L86.1876 101.152V104.453C86.1876 104.961 86.5939 105.316 87.0509 105.316H91.2658C91.5705 105.316 91.8751 105.164 92.0275 104.859L97.4611 95.4141C97.5626 95.2617 97.5626 95.1094 97.5626 94.957V90.7422L100.305 88C100.457 87.8477 100.559 87.5938 100.559 87.3906V83.7852C100.559 83.3789 100.305 83.0234 99.8986 82.9219L95.0236 81.5508L93.2462 78.0469C93.0939 77.793 92.8908 77.6406 92.5861 77.5898L85.6798 76.5234V75.8125L94.9728 73.7305L98.4767 77.2344C98.6291 77.3867 98.883 77.4883 99.0861 77.4883H105.586C107.11 80.9414 107.871 84.6484 107.871 88.457C107.871 103.691 95.4806 116.031 80.2462 116.082Z" fill="white"/>
<path d="M63.2852 82.668C60.8477 82.668 58.8164 84.6484 58.8164 87.1367C58.8164 89.5742 60.7969 91.6055 63.2852 91.6055C65.7734 91.6055 67.7539 89.625 67.7539 87.1367C67.7031 84.6992 65.7227 82.668 63.2852 82.668ZM63.2852 89.8281C61.8125 89.8281 60.5937 88.6094 60.5937 87.1367C60.5937 85.6641 61.8125 84.4453 63.2852 84.4453C64.7578 84.4453 65.9766 85.6641 65.9766 87.1367C65.9766 88.6094 64.7578 89.8281 63.2852 89.8281Z" fill="white"/>
</g>
<mask id="path-5-outside-1_1041_49" maskUnits="userSpaceOnUse" x="13" y="16.9609" width="40" height="26" fill="black">
<rect fill="white" x="13" y="16.9609" width="40" height="26"/>
<path d="M23.77 41.3209C21.99 41.3209 20.43 40.8409 19.09 39.8809C17.75 38.9009 16.7 37.5509 15.94 35.8309C15.2 34.0909 14.83 32.0709 14.83 29.7709C14.83 27.4509 15.2 25.4309 15.94 23.7109C16.7 21.9909 17.74 20.6509 19.06 19.6909C20.4 18.7309 21.96 18.2509 23.74 18.2509C25.52 18.2509 27.07 18.7309 28.39 19.6909C29.73 20.6509 30.77 22.0009 31.51 23.7409C32.27 25.4609 32.65 27.4709 32.65 29.7709C32.65 32.0709 32.28 34.0909 31.54 35.8309C30.8 37.5509 29.76 38.9009 28.42 39.8809C27.1 40.8409 25.55 41.3209 23.77 41.3209ZM23.77 38.0809C24.87 38.0809 25.82 37.7409 26.62 37.0609C27.42 36.3809 28.04 35.4209 28.48 34.1809C28.92 32.9409 29.14 31.4709 29.14 29.7709C29.14 28.0709 28.92 26.6009 28.48 25.3609C28.04 24.1209 27.42 23.1609 26.62 22.4809C25.82 21.8009 24.86 21.4609 23.74 21.4609C22.64 21.4609 21.69 21.8009 20.89 22.4809C20.09 23.1609 19.47 24.1209 19.03 25.3609C18.59 26.6009 18.37 28.0709 18.37 29.7709C18.37 31.4509 18.59 32.9209 19.03 34.1809C19.47 35.4209 20.09 36.3809 20.89 37.0609C21.71 37.7409 22.67 38.0809 23.77 38.0809ZM43.2646 41.3209C42.0646 41.3209 40.9346 41.1009 39.8746 40.6609C38.8346 40.2209 37.9346 39.6009 37.1746 38.8009C36.4346 38.0009 35.9046 37.0609 35.5846 35.9809L38.5846 34.8409C38.9846 35.9009 39.5946 36.7209 40.4146 37.3009C41.2346 37.8809 42.1846 38.1709 43.2646 38.1709C44.1446 38.1709 44.9046 38.0009 45.5446 37.6609C46.2046 37.3209 46.7146 36.8409 47.0746 36.2209C47.4546 35.6009 47.6446 34.8509 47.6446 33.9709C47.6446 33.1109 47.4546 32.3709 47.0746 31.7509C46.7146 31.1309 46.2046 30.6609 45.5446 30.3409C44.9046 30.0209 44.1446 29.8609 43.2646 29.8609C42.9046 29.8609 42.5346 29.8909 42.1546 29.9509C41.7946 30.0109 41.4746 30.0909 41.1946 30.1909L40.4146 28.5409L46.2946 21.6109H36.7846V18.6109H50.2546V21.4609L44.4946 28.3609L44.4046 27.2209C45.7446 27.2409 46.9246 27.5409 47.9446 28.1209C48.9646 28.6809 49.7546 29.4609 50.3146 30.4609C50.8946 31.4409 51.1846 32.5809 51.1846 33.8809C51.1846 35.2809 50.8446 36.5509 50.1646 37.6909C49.4846 38.8109 48.5446 39.7009 47.3446 40.3609C46.1646 41.0009 44.8046 41.3209 43.2646 41.3209Z"/>
</mask>
<path d="M19.09 39.8809L18.4997 40.6881L18.5076 40.6938L19.09 39.8809ZM15.94 35.8309L15.0197 36.2223L15.0253 36.2351L15.94 35.8309ZM15.94 23.7109L15.0253 23.3068L15.0214 23.3157L15.94 23.7109ZM19.06 19.6909L18.4776 18.878L18.4718 18.8822L19.06 19.6909ZM28.39 19.6909L27.8018 20.4997L27.8076 20.5038L28.39 19.6909ZM31.51 23.7409L30.5897 24.1323L30.5953 24.1451L31.51 23.7409ZM31.54 35.8309L32.4586 36.2261L32.4602 36.2223L31.54 35.8309ZM28.42 39.8809L29.0082 40.6897L29.0103 40.6881L28.42 39.8809ZM26.62 37.0609L25.9724 36.299L26.62 37.0609ZM28.48 25.3609L29.4224 25.0265L28.48 25.3609ZM26.62 22.4809L27.2676 21.719L27.2676 21.719L26.62 22.4809ZM20.89 22.4809L20.2424 21.719L20.2424 21.719L20.89 22.4809ZM19.03 25.3609L18.0876 25.0265L19.03 25.3609ZM19.03 34.1809L18.0859 34.5106L18.0876 34.5153L19.03 34.1809ZM20.89 37.0609L20.2423 37.8229L20.2517 37.8307L20.89 37.0609ZM23.77 40.3209C22.1813 40.3209 20.8288 39.8965 19.6724 39.068L18.5076 40.6938C20.0312 41.7854 21.7987 42.3209 23.77 42.3209V40.3209ZM19.6803 39.0738C18.4999 38.2105 17.5534 37.008 16.8547 35.4268L15.0253 36.2351C15.8466 38.0939 17.0001 39.5914 18.4997 40.6881L19.6803 39.0738ZM16.8602 35.4396C16.1829 33.847 15.83 31.9648 15.83 29.7709H13.83C13.83 32.177 14.2171 34.3348 15.0198 36.2223L16.8602 35.4396ZM15.83 29.7709C15.83 27.5553 16.1835 25.6753 16.8586 24.1061L15.0214 23.3157C14.2165 25.1866 13.83 27.3466 13.83 29.7709H15.83ZM16.8547 24.1151C17.5544 22.5315 18.4913 21.3411 19.6482 20.4997L18.4718 18.8822C16.9887 19.9608 15.8456 21.4504 15.0253 23.3068L16.8547 24.1151ZM19.6424 20.5038C20.7988 19.6754 22.1513 19.2509 23.74 19.2509V17.2509C21.7687 17.2509 20.0012 17.7865 18.4776 18.878L19.6424 20.5038ZM23.74 19.2509C25.3288 19.2509 26.6684 19.6753 27.8018 20.4997L28.9782 18.8822C27.4716 17.7865 25.7112 17.2509 23.74 17.2509V19.2509ZM27.8076 20.5038C28.9776 21.342 29.9108 22.5358 30.5898 24.1323L32.4302 23.3496C31.6292 21.466 30.4824 19.9598 28.9724 18.878L27.8076 20.5038ZM30.5953 24.1451C31.288 25.7127 31.65 27.5798 31.65 29.7709H33.65C33.65 27.3621 33.252 25.2092 32.4247 23.3368L30.5953 24.1451ZM31.65 29.7709C31.65 31.9648 31.2971 33.847 30.6198 35.4396L32.4602 36.2223C33.2629 34.3348 33.65 32.177 33.65 29.7709H31.65ZM30.6214 35.4357C29.9428 37.013 29.0077 38.2123 27.8297 39.0738L29.0103 40.6881C30.5123 39.5896 31.6572 38.0889 32.4586 36.2261L30.6214 35.4357ZM27.8318 39.0722C26.6984 39.8965 25.3588 40.3209 23.77 40.3209V42.3209C25.7412 42.3209 27.5016 41.7853 29.0082 40.6897L27.8318 39.0722ZM23.77 39.0809C25.095 39.0809 26.2777 38.6643 27.2676 37.8229L25.9724 36.299C25.3623 36.8175 24.645 37.0809 23.77 37.0809V39.0809ZM27.2676 37.8229C28.2318 37.0033 28.9383 35.8798 29.4224 34.5153L27.5376 33.8465C27.1417 34.962 26.6082 35.7585 25.9724 36.299L27.2676 37.8229ZM29.4224 34.5153C29.9098 33.1418 30.14 31.5533 30.14 29.7709H28.14C28.14 31.3886 27.9302 32.7401 27.5376 33.8465L29.4224 34.5153ZM30.14 29.7709C30.14 27.9886 29.9098 26.4001 29.4224 25.0265L27.5376 25.6953C27.9302 26.8018 28.14 28.1533 28.14 29.7709H30.14ZM29.4224 25.0265C28.9383 23.662 28.2318 22.5385 27.2676 21.719L25.9724 23.2429C26.6082 23.7833 27.1417 24.5798 27.5376 25.6953L29.4224 25.0265ZM27.2676 21.719C26.2742 20.8746 25.0802 20.4609 23.74 20.4609V22.4609C24.6398 22.4609 25.3658 22.7273 25.9724 23.2429L27.2676 21.719ZM23.74 20.4609C22.415 20.4609 21.2323 20.8775 20.2424 21.719L21.5376 23.2429C22.1477 22.7243 22.865 22.4609 23.74 22.4609V20.4609ZM20.2424 21.719C19.2782 22.5385 18.5717 23.662 18.0876 25.0265L19.9724 25.6953C20.3683 24.5798 20.9018 23.7833 21.5376 23.2429L20.2424 21.719ZM18.0876 25.0265C17.6002 26.4001 17.37 27.9886 17.37 29.7709H19.37C19.37 28.1533 19.5798 26.8018 19.9724 25.6953L18.0876 25.0265ZM17.37 29.7709C17.37 31.5354 17.6007 33.1213 18.0859 34.5106L19.9741 33.8513C19.5793 32.7206 19.37 31.3665 19.37 29.7709H17.37ZM18.0876 34.5153C18.5717 35.8798 19.2782 37.0033 20.2424 37.8229L21.5376 36.299C20.9018 35.7585 20.3683 34.962 19.9724 33.8465L18.0876 34.5153ZM20.2517 37.8307C21.2574 38.6647 22.4452 39.0809 23.77 39.0809V37.0809C22.8948 37.0809 22.1626 36.8172 21.5283 36.2912L20.2517 37.8307ZM39.8746 40.6609L39.485 41.5819L39.4912 41.5845L39.8746 40.6609ZM37.1746 38.8009L36.4404 39.48L36.4496 39.4897L37.1746 38.8009ZM35.5846 35.9809L35.2294 35.0462L34.3623 35.3757L34.6258 36.265L35.5846 35.9809ZM38.5846 34.8409L39.5202 34.4879L39.1663 33.5501L38.2294 33.9062L38.5846 34.8409ZM40.4146 37.3009L40.9921 36.4845L40.4146 37.3009ZM45.5446 37.6609L45.0866 36.7719L45.0755 36.7778L45.5446 37.6609ZM47.0746 36.2209L46.222 35.6984L46.2158 35.7085L46.2098 35.7188L47.0746 36.2209ZM47.0746 31.7509L46.2098 32.2531L46.2158 32.2634L46.222 32.2735L47.0746 31.7509ZM45.5446 30.3409L45.0974 31.2354L45.1083 31.2408L45.5446 30.3409ZM42.1546 29.9509L41.9986 28.9631L41.9902 28.9645L42.1546 29.9509ZM41.1946 30.1909L40.2905 30.6183L40.6777 31.4374L41.5309 31.1327L41.1946 30.1909ZM40.4146 28.5409L39.6521 27.894L39.235 28.3855L39.5105 28.9683L40.4146 28.5409ZM46.2946 21.6109L47.0571 22.2579L48.4546 20.6109H46.2946V21.6109ZM36.7846 21.6109H35.7846V22.6109H36.7846V21.6109ZM36.7846 18.6109V17.6109H35.7846V18.6109H36.7846ZM50.2546 18.6109H51.2546V17.6109H50.2546V18.6109ZM50.2546 21.4609L51.0223 22.1018L51.2546 21.8235V21.4609H50.2546ZM44.4946 28.3609L43.4977 28.4396L43.6907 30.8844L45.2623 29.0018L44.4946 28.3609ZM44.4046 27.2209L44.4195 26.221L43.3213 26.2047L43.4077 27.2996L44.4046 27.2209ZM47.9446 28.1209L47.4503 28.9902L47.4568 28.9939L47.4634 28.9975L47.9446 28.1209ZM50.3146 30.4609L49.4421 30.9495L49.4479 30.96L49.454 30.9703L50.3146 30.4609ZM50.1646 37.6909L51.0194 38.2099L51.0234 38.2032L50.1646 37.6909ZM47.3446 40.3609L47.8214 41.24L47.8265 41.2372L47.3446 40.3609ZM43.2646 40.3209C42.1901 40.3209 41.191 40.1246 40.258 39.7373L39.4912 41.5845C40.6783 42.0773 41.9391 42.3209 43.2646 42.3209V40.3209ZM40.2642 39.74C39.3478 39.3522 38.5627 38.8102 37.8996 38.1122L36.4496 39.4897C37.3065 40.3917 38.3215 41.0896 39.485 41.5819L40.2642 39.74ZM37.9087 38.1219C37.2765 37.4384 36.8213 36.6348 36.5434 35.6968L34.6258 36.265C34.9879 37.4871 35.5927 38.5635 36.4405 39.48L37.9087 38.1219ZM35.9398 36.9157L38.9398 35.7757L38.2294 33.9062L35.2294 35.0462L35.9398 36.9157ZM37.649 35.194C38.1101 36.416 38.8339 37.4077 39.8371 38.1174L40.9921 36.4845C40.3554 36.0342 39.8591 35.3859 39.5202 34.4879L37.649 35.194ZM39.8371 38.1174C40.8389 38.8259 41.9942 39.1709 43.2646 39.1709V37.1709C42.375 37.1709 41.6303 36.9359 40.9921 36.4845L39.8371 38.1174ZM43.2646 39.1709C44.2735 39.1709 45.2015 38.9756 46.0138 38.5441L45.0755 36.7778C44.6078 37.0263 44.0157 37.1709 43.2646 37.1709V39.1709ZM46.0026 38.5499C46.826 38.1257 47.48 37.5143 47.9394 36.7231L46.2098 35.7188C45.9492 36.1676 45.5833 36.5161 45.0867 36.772L46.0026 38.5499ZM47.9272 36.7435C48.4221 35.9361 48.6446 34.9965 48.6446 33.9709H46.6446C46.6446 34.7054 46.4871 35.2658 46.222 35.6984L47.9272 36.7435ZM48.6446 33.9709C48.6446 32.9605 48.42 32.0323 47.9272 31.2284L46.222 32.2735C46.4893 32.7095 46.6446 33.2613 46.6446 33.9709H48.6446ZM47.9394 31.2488C47.4769 30.4523 46.8157 29.8459 45.9809 29.4411L45.1083 31.2408C45.5935 31.476 45.9523 31.8095 46.2098 32.2531L47.9394 31.2488ZM45.9918 29.4465C45.1847 29.0429 44.2648 28.8609 43.2646 28.8609V30.8609C44.0244 30.8609 44.6245 30.9989 45.0974 31.2354L45.9918 29.4465ZM43.2646 28.8609C42.849 28.8609 42.4267 28.8956 41.9986 28.9632L42.3106 30.9387C42.6425 30.8863 42.9603 30.8609 43.2646 30.8609V28.8609ZM41.9902 28.9645C41.5843 29.0322 41.205 29.1253 40.8583 29.2492L41.5309 31.1327C41.7442 31.0565 42.0049 30.9897 42.319 30.9373L41.9902 28.9645ZM42.0987 29.7636L41.3187 28.1136L39.5105 28.9683L40.2905 30.6183L42.0987 29.7636ZM41.1771 29.1879L47.0571 22.2579L45.5321 20.964L39.6521 27.894L41.1771 29.1879ZM46.2946 20.6109H36.7846V22.6109H46.2946V20.6109ZM37.7846 21.6109V18.6109H35.7846V21.6109H37.7846ZM36.7846 19.6109H50.2546V17.6109H36.7846V19.6109ZM49.2546 18.6109V21.4609H51.2546V18.6109H49.2546ZM49.4869 20.8201L43.7269 27.7201L45.2623 29.0018L51.0223 22.1018L49.4869 20.8201ZM45.4915 28.2822L45.4015 27.1422L43.4077 27.2996L43.4977 28.4396L45.4915 28.2822ZM44.3897 28.2208C45.5856 28.2387 46.5963 28.5046 47.4503 28.9902L48.4389 27.2516C47.253 26.5773 45.9036 26.2432 44.4195 26.221L44.3897 28.2208ZM47.4634 28.9975C48.3218 29.4688 48.9751 30.1156 49.4421 30.9495L51.1871 29.9723C50.5341 28.8063 49.6074 27.893 48.4259 27.2444L47.4634 28.9975ZM49.454 30.9703C49.9304 31.7752 50.1846 32.7343 50.1846 33.8809H52.1846C52.1846 32.4276 51.8588 31.1066 51.1752 29.9516L49.454 30.9703ZM50.1846 33.8809C50.1846 35.1109 49.8883 36.2022 49.3058 37.1787L51.0234 38.2032C51.801 36.8997 52.1846 35.451 52.1846 33.8809H50.1846ZM49.3098 37.172C48.7249 38.1354 47.9165 38.9051 46.8627 39.4847L47.8265 41.2372C49.1727 40.4967 50.2443 39.4865 51.0194 38.2099L49.3098 37.172ZM46.8678 39.4819C45.8545 40.0315 44.6628 40.3209 43.2646 40.3209V42.3209C44.9464 42.3209 46.4747 41.9704 47.8214 41.24L46.8678 39.4819Z" fill="white" mask="url(#path-5-outside-1_1041_49)"/>
<defs>
<clipPath id="clip0_1041_49">
<rect width="65" height="65" fill="white" transform="translate(48 52.9609)"/>
</clipPath>
</defs>
</svg>
