<svg width="100" height="101" viewBox="0 0 100 101" fill="none" xmlns="http://www.w3.org/2000/svg">
<circle cx="50" cy="50.0195" r="50" fill="#83CD20"/>
<path d="M64.1602 36.9648C65.8477 36.9648 67.2539 35.5938 67.2539 33.8711C67.2539 32.1484 65.8477 30.8125 64.1602 30.8125C62.4727 30.8125 61.0664 32.1836 61.0664 33.9062C61.0664 35.5938 62.4375 36.9648 64.1602 36.9648ZM64.1602 32.043C65.1797 32.043 66.0234 32.8867 66.0234 33.9062C66.0234 34.9258 65.1797 35.7695 64.1602 35.7695C63.1406 35.7695 62.2969 34.9258 62.2969 33.9062C62.2969 32.8867 63.1055 32.043 64.1602 32.043Z" fill="white"/>
<path d="M67.8517 44.1016C67.2892 42.9063 66.6212 41.7461 65.8478 40.6914C67.5353 39.5664 70.0314 37.3516 70.0314 33.9062C70.0314 30.6367 67.3946 28.0352 64.1603 28.0352C60.9259 28.0352 58.254 30.6367 58.254 33.9062V34.293C57.797 34.082 57.3399 33.8711 56.8829 33.6602C43.6642 28.3516 29.0392 37.9492 28.9689 52.5391C28.9337 63.7891 38.004 72.9297 49.254 72.9648C60.504 73 69.6446 63.9297 69.6798 52.6797C69.6798 52.6094 69.6798 52.5742 69.6798 52.5039C69.6798 49.6211 69.047 46.7383 67.8517 44.1016ZM64.1603 29.2305C66.7267 29.2305 68.8009 31.3047 68.836 33.9062C68.836 37.5977 65.1798 39.7773 64.1603 40.2695C63.1759 39.7422 59.4845 37.5977 59.4845 33.9062C59.4845 31.3047 61.5587 29.2305 64.1603 29.2305ZM63.879 41.5352C64.0548 41.6055 64.2306 41.6055 64.3712 41.5352C64.4064 41.5352 64.547 41.4648 64.7579 41.3242C65.3204 42.0977 65.8126 42.9063 66.2696 43.75H62.6134L60.1524 41.2891C60.0118 41.1484 59.8009 41.0781 59.5899 41.1133L52.3478 42.7305C52.0665 42.8008 51.8556 43.0469 51.8556 43.3281V44.8047C51.8556 45.1211 52.0665 45.3672 52.3829 45.4023L57.3751 46.1758L58.6056 48.5664C58.6759 48.707 58.8165 48.8477 58.9923 48.8828L62.1564 49.7617V51.5547L60.2579 53.5234C60.1524 53.6289 60.0821 53.8047 60.0821 53.9453V56.9336L56.6017 63.0156H54.6681V61.082C54.6681 60.9063 54.5978 60.7305 54.4571 60.625L51.7853 58.1992V55.3867C51.7853 55.1406 51.6095 54.8945 51.3985 54.8242L45.9142 52.8203V48.25L49.5001 44.3828C49.7462 44.1367 49.711 43.75 49.4649 43.5039L49.4298 43.4688L46.1603 40.9375L48.8321 37.1406H54.3165C54.4923 37.1406 54.6329 37.0703 54.7384 36.9648L56.7774 34.9258C57.3399 35.1719 57.9376 35.4531 58.5001 35.7695C59.6251 39.5664 63.7032 41.4297 63.879 41.5352ZM36.9845 37.9492L38.5314 41.1484L37.3009 41.7813C37.2306 41.8164 37.1954 41.8516 37.1251 41.8867L34.2071 44.875C34.0314 45.0508 33.9962 45.2969 34.0665 45.5078L34.4884 46.7031C34.0314 46.9844 33.5743 47.3711 33.2228 47.7578L30.7267 48.1797C31.6407 44.1719 33.8556 40.5859 36.9845 37.9492ZM37.5821 58.0234C36.5978 57.4961 32.9064 55.3516 32.9064 51.6602C32.9415 49.0938 35.0509 47.0195 37.6173 47.0547C40.1485 47.0898 42.2228 49.1289 42.2228 51.6602C42.2228 55.3516 38.5665 57.5313 37.5821 58.0234ZM30.2345 51.5195C30.2696 50.8164 30.3399 50.1484 30.4454 49.4453L32.2384 49.1289C31.8868 49.8672 31.6759 50.6758 31.6759 51.4844H30.2345V51.5195ZM37.3009 64.5625V67.4453C32.8712 63.8594 30.2696 58.4805 30.1993 52.75H31.7814C32.4493 57.0742 37.1251 59.1836 37.336 59.2891C37.5118 59.3594 37.6876 59.3594 37.8282 59.2891C38.3204 59.043 38.7774 58.7969 39.2345 58.4805L39.8673 59.1133V60.8008L39.0939 61.9609C38.9181 62.207 38.9884 62.5586 39.1993 62.7695L39.3751 62.9453L37.547 64.0352C37.4064 64.1406 37.3009 64.3164 37.3009 64.5625ZM49.3243 71.6992C45.4571 71.6992 41.6954 70.5391 38.5314 68.3594V64.9141L40.8165 63.543C41.0978 63.3672 41.2032 62.9805 41.0274 62.6992C40.9923 62.6289 40.9571 62.5938 40.8868 62.5586L40.4649 62.207L41.0274 61.3633C41.0978 61.2578 41.1329 61.1523 41.1329 61.0117V58.9023C41.1329 58.7266 41.0626 58.5859 40.9571 58.4805L40.2892 57.8125C41.836 56.582 43.5235 54.543 43.5235 51.7305C43.5235 48.4961 40.922 45.8594 37.6524 45.8594C36.9493 45.8594 36.2814 45.9648 35.6134 46.2109L35.3673 45.5078L37.9337 42.8711L39.6212 42.0273C39.9376 41.8867 40.0431 41.5 39.9024 41.2188L37.9689 37.2461C43.0314 33.5195 49.6056 32.5 55.547 34.5391L54.0704 35.9453H48.5157C48.3048 35.9453 48.129 36.0508 48.0235 36.1914L44.8243 40.7266C44.6485 41.0078 44.6837 41.3594 44.9649 41.5703L48.1642 44.0313L44.8595 47.582C44.754 47.6875 44.6837 47.8281 44.6837 48.0039V53.2422C44.6837 53.4883 44.8595 53.7344 45.0704 53.8047L50.5548 55.8086V58.4805C50.5548 58.6563 50.6251 58.832 50.7657 58.9375L53.4376 61.3633V63.6484C53.4376 64 53.7189 64.2461 54.0353 64.2461H56.9532C57.1642 64.2461 57.3751 64.1406 57.4806 63.9297L61.2423 57.3906C61.3126 57.2852 61.3126 57.1797 61.3126 57.0742V54.1563L63.211 52.2578C63.3165 52.1523 63.3868 51.9766 63.3868 51.8359V49.3398C63.3868 49.0586 63.211 48.8125 62.9298 48.7422L59.5548 47.793L58.3243 45.3672C58.2189 45.1914 58.0782 45.0859 57.8673 45.0508L53.086 44.3125V43.8203L59.5196 42.3789L61.9454 44.8047C62.0509 44.9102 62.2267 44.9805 62.3673 44.9805H66.8673C67.922 47.3711 68.4493 49.9375 68.4493 52.5742C68.4493 63.1211 59.8712 71.6641 49.3243 71.6992Z" fill="white"/>
<path d="M37.582 48.5664C35.8945 48.5664 34.4883 49.9375 34.4883 51.6602C34.4883 53.3477 35.8594 54.7539 37.582 54.7539C39.3047 54.7539 40.6758 53.3828 40.6758 51.6602C40.6406 49.9727 39.2695 48.5664 37.582 48.5664ZM37.582 53.5234C36.5625 53.5234 35.7187 52.6797 35.7187 51.6602C35.7187 50.6406 36.5625 49.7969 37.582 49.7969C38.6016 49.7969 39.4453 50.6406 39.4453 51.6602C39.4453 52.6797 38.6016 53.5234 37.582 53.5234Z" fill="white"/>
</svg>
