<svg width="100" height="101" viewBox="0 0 100 101" fill="none" xmlns="http://www.w3.org/2000/svg">
<circle cx="50" cy="50.0195" r="50" fill="#83CD20"/>
<path d="M34.6797 48.0586C34.6797 52.3125 38.125 55.8281 42.4492 55.8281C46.7383 55.8281 50.2187 52.3477 50.2187 48.0586C50.2187 43.8398 46.8086 40.2891 42.4492 40.2891C38.1953 40.2891 34.6797 43.7695 34.6797 48.0586ZM48.3555 50.8359H46.3867C46.5273 50.1328 46.6328 49.3945 46.6328 48.6562H48.9531C48.918 49.4297 48.707 50.168 48.3555 50.8359ZM35.9453 48.6562H38.2656C38.3008 49.3945 38.3711 50.0977 38.5117 50.8359H36.543C36.1914 50.168 36.0156 49.4297 35.9453 48.6562ZM39.4961 48.6562H41.8516V50.8359H39.7773C39.6016 50.1328 39.4961 49.3945 39.4961 48.6562ZM41.8516 52.0664V54.4219C41.2187 54.1055 40.5859 53.2617 40.1289 52.0664H41.8516ZM43.082 54.457V52.1016H44.8047C44.3125 53.2617 43.7148 54.1055 43.082 54.457ZM43.082 50.8359V48.6562H45.4375C45.4023 49.3945 45.2969 50.1328 45.1562 50.8359H43.082ZM48.9883 47.4609H46.668C46.6328 46.7227 46.5625 46.0195 46.4219 45.2812H48.3906C48.707 45.9492 48.918 46.6875 48.9883 47.4609ZM45.4375 47.4609H43.082V45.2812H45.1562C45.2969 45.9844 45.4023 46.7227 45.4375 47.4609ZM43.082 44.0508V41.6953C43.7148 42.0117 44.3477 42.8555 44.8047 44.0508H43.082ZM41.8516 41.6602V44.0156H40.1289C40.5859 42.8555 41.1836 42.0117 41.8516 41.6602ZM41.8516 45.2812V47.4609H39.4961C39.5312 46.7227 39.6367 45.9844 39.7773 45.2812H41.8516ZM38.2656 47.4609H35.9453C36.0156 46.7227 36.2266 45.9844 36.543 45.2812H38.5117C38.3711 45.9844 38.2656 46.7227 38.2656 47.4609ZM37.2812 52.0664H38.8281C39.0391 52.7344 39.3203 53.4023 39.707 54C38.7578 53.543 37.9492 52.9102 37.2812 52.0664ZM45.1914 54C45.5781 53.4023 45.8594 52.7695 46.0703 52.0664H47.6172C46.9844 52.9102 46.1406 53.543 45.1914 54ZM47.6172 44.0508H46.0703C45.8594 43.3828 45.5781 42.75 45.1914 42.1172C46.1406 42.5742 46.9844 43.207 47.6172 44.0508ZM39.707 42.1172C39.3203 42.7148 39.0391 43.3477 38.8281 44.0508H37.2812C37.9492 43.207 38.7578 42.5742 39.707 42.1172Z" fill="white"/>
<path d="M53.875 57.6211H31.0586C30.707 57.6211 30.4609 57.9023 30.4609 58.2188V60.6094C30.4609 60.9609 30.7422 61.207 31.0586 61.207H53.875C54.2266 61.207 54.4727 60.9258 54.4727 60.6094V58.2188C54.4727 57.9023 54.1914 57.6211 53.875 57.6211ZM53.2422 60.0117H31.6562V58.8516H53.2422V60.0117Z" fill="white"/>
<path d="M49.0586 62.4023H35.875C35.5234 62.4023 35.2773 62.6836 35.2773 63V65.3906C35.2773 65.7422 35.5586 65.9883 35.875 65.9883H49.0586C49.4102 65.9883 49.6562 65.707 49.6562 65.3906V63C49.6562 62.6836 49.375 62.4023 49.0586 62.4023ZM48.4258 64.8281H36.4727V63.668H48.4258V64.8281Z" fill="white"/>
<path d="M58.4805 42.293L60.625 41.4492V42.5039L59.2891 44.1211C59.1836 44.2266 59.1484 44.3672 59.1484 44.5078V46.0195C59.1484 46.4766 59.6406 46.793 60.0625 46.5469L62.418 45.2461C63.3672 44.7187 63.9648 43.6992 63.9648 42.6094V34.875C63.9648 34.5234 63.6836 34.2773 63.3672 34.2773H62.418C61.4336 34.2773 60.5898 35.0859 60.5898 36.1055V38.0039L58.5859 39.2344C57.9883 39.5859 57.6367 40.2539 57.6367 40.957V41.7305C57.6367 42.1523 58.0937 42.4687 58.4805 42.293ZM59.2539 40.2891L61.5742 38.8477C61.75 38.7422 61.8555 38.5312 61.8555 38.3203V36.0703C61.8555 35.7539 62.1016 35.4727 62.4531 35.4727H62.7695V42.5742C62.7695 43.207 62.418 43.8047 61.8555 44.1211L60.4141 44.9297V44.6836L61.7148 43.1016C61.8203 42.9961 61.8555 42.8555 61.8555 42.7148V40.5352C61.8555 40.1133 61.4336 39.7969 61.0117 39.9727L58.9023 40.8164C58.9023 40.6055 59.043 40.3945 59.2539 40.2891Z" fill="white"/>
<path d="M72.7891 41.1689C59.3945 27.7744 64.0351 32.415 63.0156 31.3955C62.7695 31.1494 62.3828 31.1494 62.1367 31.3955L56.1602 37.4072C55.4219 36.3525 54.2266 35.7549 52.9609 35.7549H52.3984V31.8525C52.3984 31.4658 52.0469 31.1846 51.6602 31.2549L28.5273 35.7549C28.2461 35.8252 28.0352 36.0713 28.0352 36.3525V69.2236C28.0352 69.5752 28.3164 69.8213 28.6328 69.8213H56.2305C56.582 69.8213 56.8281 69.54 56.8281 69.2236V57.9736L72.7539 42.0479C73.0351 41.8018 73.0351 41.415 72.7891 41.1689ZM56.7227 38.5674L62.5937 32.6963L69.7656 39.8682C69.0977 40.5361 58.3047 51.3291 56.8633 52.7705V39.6572C56.8633 39.2705 56.8281 38.9189 56.7227 38.5674ZM51.168 32.5908V35.7197H35.0312L51.168 32.5908ZM29.2656 68.5908V36.9502H52.9609C54.4375 36.9502 55.6328 38.1455 55.6328 39.6221V68.5557H29.2656V68.5908ZM56.8633 56.2158V54.5283L70.6445 40.7471L71.4883 41.5908L56.8633 56.2158Z" fill="white"/>
</svg>
