<svg width="55" height="56" viewBox="0 0 55 56" fill="none" xmlns="http://www.w3.org/2000/svg">
<circle cx="27.499" cy="27.5391" r="27.5" fill="#83CD20"/>
<path d="M35.9678 31.1328L35.2178 34.2891C35.124 34.7578 34.749 35.0703 34.2803 35.0703C26.4053 35.0391 19.999 28.6328 19.999 20.7578C19.999 20.2891 20.2803 19.9141 20.749 19.8203L23.9053 19.0703C24.3428 18.9766 24.8115 19.2266 24.999 19.6328L26.4678 23.0391C26.624 23.4453 26.5303 23.9141 26.1865 24.1641L24.499 25.5391C25.5615 27.6953 27.3115 29.4453 29.499 30.5078L30.874 28.8203C31.124 28.5078 31.5928 28.3828 31.999 28.5391L35.4053 30.0078C35.8115 30.2266 36.0615 30.6953 35.9678 31.1328Z" fill="white"/>
</svg>
